<?xml version="1.0" encoding="utf-8"?>
<!-- Generator: Adobe Illustrator 16.0.0, SVG Export Plug-In . SVG Version: 6.00 Build 0)  -->
<!DOCTYPE svg PUBLIC "-//W3C//DTD SVG 1.1//EN" "http://www.w3.org/Graphics/SVG/1.1/DTD/svg11.dtd">
<svg version="1.1" id="Layer_1" xmlns="http://www.w3.org/2000/svg" xmlns:xlink="http://www.w3.org/1999/xlink" x="0px" y="0px"
	 width="340.16px" height="425.2px" viewBox="0 0 340.16 425.2" enable-background="new 0 0 340.16 425.2" xml:space="preserve">
<g>
	<path fill="#010101" d="M65.747,210.831c0.495-0.098,1.343-0.191,1.886-0.206c0.877-0.024,0.943-0.055,0.591-0.275
		c-0.444-0.278-3.264-0.282-3.669-0.004c-0.132,0.09-1.466,0.278-2.963,0.417s-3.003,0.336-3.346,0.439l0,0
		C57.46,211.438,64.422,211.094,65.747,210.831z"/>
	<path fill="#010101" d="M68.61,211.421c0.497-0.013,0.699-0.054,0.449-0.09c-0.25-0.037-0.657-0.026-0.904,0.023
		C67.908,211.404,68.113,211.434,68.61,211.421z"/>
	<path fill="#010101" d="M83.918,194.317c0.272,0,0.423-0.045,0.336-0.1c-0.088-0.055-0.311-0.055-0.496,0l0,0
		C83.555,194.277,83.617,194.316,83.918,194.317z"/>
	<path fill="#010101" d="M81.663,199.696c0.497-0.013,0.699-0.054,0.449-0.09c-0.25-0.037-0.657-0.026-0.904,0.023
		C80.961,199.679,81.166,199.709,81.663,199.696z"/>
	<path fill="#010101" d="M81.978,198.162c0.272,0,0.424-0.045,0.336-0.1c-0.088-0.055-0.311-0.055-0.496,0
		C81.614,198.122,81.677,198.162,81.978,198.162z"/>
	<path fill="#010101" d="M82.955,199.7c0.216,0.087,0.674,0.153,1.018,0.146c0.829-0.018,0.616-0.111-0.503-0.218
		C82.832,199.566,82.679,199.587,82.955,199.7z"/>
	
		<ellipse transform="matrix(0.034 0.9994 -0.9994 0.034 265.8561 102.7945)" fill="#010101" cx="79.754" cy="188.921" rx="0.172" ry="0.258"/>
	<path fill="#010101" d="M39.596,221.708c0.205-0.005,0.442-0.089,0.526-0.186c0.084-0.098-0.085-0.171-0.378-0.163
		s-0.529,0.092-0.526,0.187C39.221,221.641,39.391,221.714,39.596,221.708z"/>
	
		<ellipse transform="matrix(-0.034 -0.9994 0.9994 -0.034 -185.3266 258.797)" fill="#010101" cx="32.411" cy="218.965" rx="0.172" ry="0.258"/>
	
		<ellipse transform="matrix(0.0331 0.9995 -0.9995 0.0331 252.0853 173.54)" fill="#010101" cx="36.355" cy="217.051" rx="0.258" ry="0.387"/>
	<path fill="#010101" d="M20.693,216.768c-0.385-0.146-1.086,0.08-0.884,0.285c0.21,0.215,1.171,0.198,1.164-0.019
		C20.97,216.944,20.844,216.824,20.693,216.768z"/>
	<path fill="#010101" d="M97.439,205.756c-0.247,0.05-0.043,0.08,0.455,0.067c0.497-0.013,0.699-0.054,0.449-0.09
		C98.093,205.696,97.686,205.707,97.439,205.756z"/>
	<path fill="#010101" d="M93.656,205.666c0.072,0.073,0.676,0.109,1.342,0.081c1.271-0.055,1.081-0.12-0.52-0.179
		C93.954,205.549,93.584,205.593,93.656,205.666z"/>
	<path fill="#010101" d="M160.007,237.061c-0.176-0.043-0.525-0.036-0.775,0.014c-0.25,0.051-0.105,0.086,0.321,0.078
		S160.184,237.104,160.007,237.061z"/>
	<path fill="#010101" d="M154.578,237.197c-0.247,0.05-0.042,0.079,0.455,0.066c0.497-0.013,0.699-0.054,0.449-0.091
		C155.232,237.137,154.826,237.147,154.578,237.197z"/>
	<path fill="#010101" d="M152.125,237.266c-0.176,0.053-0.029,0.088,0.326,0.079c0.355-0.01,0.499-0.053,0.32-0.096
		S152.301,237.213,152.125,237.266z"/>
	<path fill="#010101" d="M204.575,221.067c-0.088-0.056-0.311-0.056-0.496-0.001c-0.204,0.061-0.142,0.1,0.16,0.1
		C204.511,221.167,204.662,221.122,204.575,221.067z"/>
	<path fill="#010101" d="M170.772,220.812c0.497-0.014,0.699-0.055,0.449-0.091c-0.25-0.037-0.657-0.026-0.904,0.023
		C170.07,220.794,170.275,220.824,170.772,220.812z"/>
	<path fill="#010101" d="M233.218,215.472c-0.247,0.05-0.043,0.08,0.454,0.066c0.498-0.013,0.7-0.054,0.45-0.091
		C233.871,215.411,233.465,215.422,233.218,215.472z"/>
	<path fill="#010101" d="M81.355,219.631c-0.247,0.05-0.042,0.08,0.455,0.066c0.498-0.013,0.7-0.054,0.45-0.09
		C82.009,219.57,81.603,219.581,81.355,219.631z"/>
	<path fill="#010101" d="M150.564,237.146c-0.088-0.056-0.311-0.056-0.496-0.001c-0.204,0.061-0.142,0.1,0.16,0.1
		C150.501,237.245,150.652,237.2,150.564,237.146z"/>
	<path fill="#010101" d="M124.716,238.122c-0.863,0.041-0.713,0.077,0.8,0.194c1.024,0.08,1.949,0.2,2.056,0.269
		c0.309,0.197,0.625,0.135,0.617-0.122C128.18,238.204,126.488,238.038,124.716,238.122z"/>
	<path fill="#010101" d="M142.815,237.153c-0.534-0.022-1.406,0-1.937,0.052c-0.532,0.051-0.095,0.069,0.971,0.042
		C142.914,237.219,143.349,237.177,142.815,237.153z"/>
	<path fill="#010101" d="M80.95,238.576l-0.709,0.036l0.65,0.121v-0.001c0.357,0.067,0.679,0.129,0.715,0.137
		c0.036,0.009,0.062-0.062,0.06-0.157C81.663,238.617,81.341,238.557,80.95,238.576z"/>
	<path fill="#010101" d="M80.17,236.874c-0.32-0.187-6.035-0.938-6.415-0.843c-0.157,0.04,1.109,0.271,2.814,0.516
		C80.037,237.044,80.538,237.089,80.17,236.874z"/>
	<path fill="#010101" d="M71.998,235.604c-0.36-0.126-0.771-0.227-0.912-0.223c-0.142,0.004,0.036,0.109,0.396,0.236
		c0.359,0.126,0.77,0.226,0.912,0.223C72.536,235.836,72.357,235.729,71.998,235.604z"/>
	<path fill="#010101" d="M83.994,238.745c-1.296-0.02-2.038,0.023-1.806,0.105c0.216,0.076,1.774,0.148,3.463,0.16
		c1.689,0.011,3.135,0.061,3.213,0.109c0.227,0.143,0.573,0.093,0.567-0.08C89.427,238.881,88.096,238.809,83.994,238.745z"/>
	<path fill="#010101" d="M84.725,237.42c0.344-0.01,0.344-0.027-0.006-0.167c-0.216-0.086-0.567-0.152-0.78-0.146
		c-0.344,0.009-0.344,0.027,0.006,0.167C84.161,237.359,84.512,237.425,84.725,237.42z"/>
	<path fill="#010101" d="M114.606,238.127c0.285,0.034,1.451,0.104,2.59,0.152v-0.001c1.139,0.05,2.71,0.074,3.492,0.054l1.42-0.035
		l-1.554-0.089C118.721,238.103,113.853,238.036,114.606,238.127z"/>
	<path fill="#010101" d="M119.43,221.741c-0.176-0.043-0.525-0.036-0.775,0.014c-0.25,0.051-0.105,0.085,0.321,0.078
		C119.402,221.825,119.606,221.784,119.43,221.741z"/>
	<path fill="#010101" d="M170.923,240.272c-0.058,0.036,0.663,0.046,1.601,0.021s1.768-0.115,1.843-0.201
		C174.493,239.948,171.163,240.122,170.923,240.272z"/>
	<path fill="#010101" d="M278.04,206.362c-0.204,0.061-0.142,0.1,0.16,0.1c0.272,0,0.424-0.044,0.336-0.1
		S278.225,206.308,278.04,206.362z"/>
	<path fill="#010101" d="M270.884,201.031c-0.204,0.061-0.142,0.1,0.159,0.1c0.272,0,0.424-0.044,0.336-0.099
		C271.292,200.977,271.068,200.977,270.884,201.031z"/>
	<path fill="#010101" d="M284.743,202.391c-0.248,0.05-0.043,0.08,0.454,0.067c0.497-0.013,0.699-0.054,0.449-0.091
		C285.396,202.331,284.99,202.341,284.743,202.391z"/>
	<path fill="#010101" d="M275.952,206.248c-0.176,0.052-0.029,0.088,0.326,0.079s0.499-0.052,0.319-0.096
		C276.419,206.188,276.129,206.196,275.952,206.248z"/>
	<path fill="#010101" d="M286.69,202.168c-0.204,0.061-0.142,0.1,0.159,0.1c0.272,0,0.424-0.044,0.336-0.099
		C287.098,202.114,286.875,202.114,286.69,202.168z"/>
	<path fill="#010101" d="M300.69,228.742L300.69,228.742c-0.627,0.339-0.207,0.324,0.631-0.022c0.37-0.152,0.475-0.259,0.25-0.253
		C301.358,228.472,300.962,228.596,300.69,228.742z"/>
	<path fill="#010101" d="M293.668,225.948c-0.745,0.055-0.134,0.066,1.357,0.027c1.492-0.039,2.102-0.083,1.354-0.099
		C295.633,225.862,294.412,225.894,293.668,225.948z"/>
	<path fill="#010101" d="M192.91,200.483c-0.604-0.021-1.593,0.005-2.195,0.058c-0.603,0.052-0.107,0.069,1.1,0.037
		C193.022,200.546,193.516,200.504,192.91,200.483z"/>
	<path fill="#010101" d="M294.863,232.759c0.287,0.067,0.665,0.082,0.842,0.033c0.549-0.153,0.349-0.226-0.523-0.19
		C294.498,232.629,294.439,232.658,294.863,232.759z"/>
	<path fill="#010101" d="M309.058,220.842c-0.461,0.013-0.721,0.091-0.624,0.189c0.091,0.092,0.449,0.161,0.795,0.151
		c0.348-0.009,0.629-0.094,0.625-0.188C309.851,220.899,309.492,220.831,309.058,220.842z"/>
	<path fill="#010101" d="M281.476,210.713c0.085,0.086,0.257,0.154,0.382,0.151c0.361-0.01,0.541-0.325,0.248-0.436
		C281.757,210.295,281.278,210.512,281.476,210.713z"/>
	<path fill="#010101" d="M82.241,201.532c0.14-0.062,0.252-0.186,0.249-0.275c-0.002-0.089-0.121-0.159-0.264-0.155
		c-0.142,0.004-0.254,0.127-0.249,0.275S82.101,201.594,82.241,201.532z"/>
	<path fill="#010101" d="M171.997,203.201c0.355-0.01,0.499-0.053,0.32-0.096c-0.18-0.043-0.47-0.036-0.646,0.017
		C171.495,203.175,171.643,203.21,171.997,203.201z"/>
	<path fill="#010101" d="M180.506,210.921c1.393-0.035,2.299-0.124,2.208-0.216c-0.169-0.173-4.14-0.03-4.404,0.158
		C178.218,210.928,179.206,210.954,180.506,210.921z"/>
	<path fill="#010101" d="M174.907,211.049c1.669-0.052,3.032-0.152,3.03-0.222c-0.006-0.168-1.413-0.309-1.495-0.149
		c-0.035,0.068-0.756,0.125-1.601,0.127c-0.846,0.002-1.859,0.079-2.253,0.171C172.104,211.089,172.854,211.113,174.907,211.049z"/>
	<path fill="#010101" d="M190.341,202.892c0.355-0.01,0.499-0.052,0.32-0.096c-0.18-0.043-0.47-0.036-0.646,0.017
		C189.839,202.866,189.985,202.901,190.341,202.892z"/>
	<path fill="#010101" d="M165.651,201.049c-0.087-0.055-0.311-0.056-0.495-0.001c-0.205,0.061-0.142,0.1,0.159,0.1
		C165.588,201.148,165.739,201.104,165.651,201.049z"/>
	<path fill="#010101" d="M199.706,202.721c-0.463-0.026-1.219-0.006-1.68,0.044c-0.46,0.051-0.081,0.072,0.843,0.048
		C199.792,202.788,200.169,202.747,199.706,202.721z"/>
	<path fill="#010101" d="M189.374,202.831c-0.176-0.042-0.525-0.036-0.775,0.014c-0.249,0.05-0.104,0.085,0.321,0.078
		S189.551,202.874,189.374,202.831z"/>
	<path fill="#010101" d="M188.386,200.624c-0.088-0.055-0.311-0.055-0.495,0c-0.204,0.061-0.142,0.1,0.159,0.1
		C188.322,200.724,188.474,200.679,188.386,200.624z"/>
	<path fill="#010101" d="M299.177,234.2c-4.604,0.799-8.861,1.238-13.508,1.396c-1.41,0.048-2.657,0.129-2.77,0.179
		c-0.192,0.086-4.338-0.049-6.491-0.211c-0.85-0.063-0.949-0.035-0.789,0.224c0.156,0.253,0.069,0.284-0.585,0.215
		c-0.422-0.045-2.101-0.093-3.73-0.105c-1.629-0.014-3.833-0.043-4.897-0.066s-1.84,0.018-1.724,0.09
		c0.116,0.073,0.349,0.133,0.516,0.134c0.168,0.001,1.354,0.031,2.634,0.067c1.28,0.035,3.196,0.081,4.257,0.103
		c1.061,0.021,1.983,0.072,2.051,0.114c0.223,0.14,11.219-0.22,14.449-0.473c3.539-0.277,5.342-0.441,6.874-0.628
		c1.479-0.179,6.806-1.262,7.29-1.48C303.242,233.536,302.423,233.638,299.177,234.2z"/>
	<path fill="#010101" d="M232.297,238.258c-0.319,0.05-0.116,0.079,0.452,0.066s0.83-0.054,0.581-0.091
		C233.082,238.197,232.617,238.208,232.297,238.258z"/>
	<path fill="#010101" d="M239.858,238.345c-0.642-0.06-1.864-0.081-2.716-0.049l-1.549,0.058l1.812,0.064
		c0.996,0.035,2.218,0.058,2.716,0.049C240.916,238.454,240.885,238.439,239.858,238.345z"/>
	<path fill="#010101" d="M261.985,237.323c-0.087-0.055-0.311-0.056-0.495,0c-0.204,0.06-0.142,0.099,0.159,0.1
		C261.922,237.423,262.073,237.378,261.985,237.323z"/>
	<path fill="#010101" d="M88.925,194.587c5.406-0.044,5.238-0.038,3.679-0.145c-2.058-0.141-6.725-0.113-6.72,0.04
		C85.886,194.554,87.255,194.601,88.925,194.587z"/>
	<path fill="#010101" d="M254.527,237.84c-1.926,0.056-2.72,0.122-2.014,0.167l1.166,0.075l-1.648,0.17
		c-2.026,0.209-5.468,0.291-7.977,0.189c-1.036-0.042-2.021-0.016-2.19,0.06c-0.168,0.075,0.564,0.141,1.628,0.146
		c4.684,0.023,7.228-0.078,10.527-0.421c1.941-0.202,3.565-0.392,3.609-0.422C257.672,237.773,256.276,237.79,254.527,237.84z"/>
	<path fill="#010101" d="M218.583,238.118c-0.088-0.056-0.311-0.056-0.495-0.001c-0.204,0.061-0.142,0.1,0.159,0.101
		C218.52,238.218,218.671,238.173,218.583,238.118z"/>
	<path fill="#010101" d="M223.372,238.149c-0.247,0.051-0.042,0.08,0.455,0.067s0.699-0.054,0.449-0.091
		S223.619,238.101,223.372,238.149z"/>
	<path fill="#010101" d="M258.771,237.561L258.771,237.561c-0.392,0.05-0.13,0.076,0.58,0.06c0.71-0.018,1.03-0.059,0.711-0.091
		C259.743,237.496,259.163,237.511,258.771,237.561z"/>
	<path fill="#010101" d="M212.384,238.098c-0.176,0.053-0.029,0.088,0.326,0.079c0.354-0.01,0.499-0.053,0.32-0.096
		C212.851,238.038,212.56,238.046,212.384,238.098z"/>
	<path fill="#010101" d="M150.211,210.939c-0.087-0.055-0.311-0.056-0.495-0.001c-0.204,0.061-0.142,0.1,0.159,0.1
		C150.147,211.039,150.299,210.994,150.211,210.939z"/>
	<path fill="#010101" d="M206.819,237.889c-0.463-0.026-1.219-0.006-1.679,0.044c-0.461,0.051-0.082,0.072,0.842,0.048
		C206.905,237.956,207.282,237.915,206.819,237.889z"/>
	<path fill="#010101" d="M209.154,238.012c-0.176-0.043-0.525-0.036-0.774,0.014c-0.25,0.051-0.105,0.085,0.32,0.077
		C209.127,238.096,209.331,238.055,209.154,238.012z"/>
	<path fill="#010101" d="M132.036,222.008c-2.203,0.014-3.423,0.062-2.71,0.106c1.382,0.088,7.01,0.028,6.826-0.071
		C136.092,222.01,134.24,221.994,132.036,222.008z"/>
	<path fill="#010101" d="M74.489,219.309c-0.088-0.056-0.311-0.056-0.496-0.001c-0.204,0.061-0.142,0.1,0.16,0.101
		C74.425,219.408,74.577,219.363,74.489,219.309z"/>
	<path fill="#010101" d="M73.7,219.81c0.132,0.135,1.398,0.169,1.394,0.038c-0.001-0.037-0.346-0.092-0.766-0.121
		C73.908,219.696,73.625,219.733,73.7,219.81z"/>
	
		<ellipse transform="matrix(0.9997 -0.0265 0.0265 0.9997 -5.7776 1.7277)" fill="#010101" cx="62.406" cy="219.212" rx="0.258" ry="0.172"/>
	<path fill="#010101" d="M42.231,226.641c-0.003-0.095-0.441-0.15-0.974-0.124l-0.968,0.048l0.908,0.103
		c0.5,0.058,0.938,0.113,0.974,0.125C42.207,226.803,42.234,226.735,42.231,226.641z"/>
	<path fill="#010101" d="M52.466,217.816c-0.088-0.055-0.311-0.055-0.495,0c-0.205,0.061-0.142,0.1,0.159,0.1
		C52.403,217.916,52.554,217.872,52.466,217.816z"/>
	<path fill="#010101" d="M75.174,210.599c0.687-0.018,1.165-0.085,1.063-0.149c-0.194-0.122-1.999-0.04-2.196,0.101
		C73.978,210.595,74.488,210.617,75.174,210.599z"/>
	<path fill="#010101" d="M74.932,209.294c-0.087-0.055-0.311-0.055-0.495,0c-0.205,0.061-0.142,0.1,0.159,0.1
		C74.868,209.394,75.02,209.349,74.932,209.294z"/>
	<path fill="#010101" d="M145.887,210.958c0.355-0.01,0.499-0.053,0.32-0.096c-0.179-0.043-0.47-0.036-0.646,0.017
		C145.386,210.931,145.532,210.966,145.887,210.958z"/>
	<path fill="#010101" d="M70.564,210.099c-0.087-0.055-0.311-0.055-0.496-0.001c-0.204,0.061-0.142,0.1,0.16,0.101
		C70.5,210.198,70.652,210.153,70.564,210.099z"/>
	<path fill="#010101" d="M72.45,210.298c0.355-0.009,0.499-0.052,0.32-0.095s-0.47-0.036-0.646,0.017
		C71.948,210.272,72.095,210.308,72.45,210.298z"/>
	<path fill="#010101" d="M161.414,221.338c-0.088-0.055-0.311-0.056-0.496-0.001c-0.204,0.061-0.142,0.1,0.16,0.101
		C161.35,221.438,161.501,221.393,161.414,221.338z"/>
	<path fill="#010101" d="M142.378,221.175c-0.062,0.044,0.248,0.07,0.689,0.059s0.874-0.103,0.961-0.202
		C144.181,220.856,142.638,220.991,142.378,221.175z"/>
	<path fill="#010101" d="M144.512,221.945c-0.177-0.043-0.525-0.037-0.775,0.014l0,0c-0.25,0.05-0.105,0.085,0.321,0.077
		S144.688,221.987,144.512,221.945z"/>
	<path fill="#010101" d="M140.475,221.188c-0.176,0.053-0.029,0.088,0.326,0.078c0.355-0.009,0.499-0.052,0.32-0.095
		C140.941,221.127,140.651,221.135,140.475,221.188z"/>
	<path fill="#010101" d="M126.59,222.015c-0.226-0.081-1.799-0.149-3.495-0.151l-3.084-0.004l2.717,0.089
		c1.495,0.049,2.893,0.115,3.107,0.146c0.214,0.032,0.564,0.061,0.778,0.063C126.942,222.162,126.939,222.141,126.59,222.015z"/>
	<path fill="#010101" d="M151.063,220.877c0.113,0.071,1.542,0.119,3.174,0.106c1.632-0.012,3.491-0.028,4.131-0.036l1.163-0.014
		l-1.296-0.103C156.405,220.686,150.816,220.722,151.063,220.877z"/>
	<path fill="#010101" d="M147.959,220.811c-0.318,0.05-0.056,0.077,0.584,0.061c0.639-0.018,0.899-0.058,0.579-0.091
		C148.8,220.748,148.277,220.762,147.959,220.811z"/>
	<path fill="#010101" d="M77.089,211.997c-0.087-0.055-0.311-0.055-0.495,0c-0.204,0.061-0.142,0.1,0.159,0.1
		C77.026,212.096,77.177,212.052,77.089,211.997z"/>
	<path fill="#010101" d="M144.908,220.841c-0.134,0.003-0.241,0.084-0.237,0.179c0.003,0.095,0.187,0.167,0.408,0.161
		c0.221-0.006,0.328-0.086,0.237-0.179C145.225,220.91,145.041,220.837,144.908,220.841z"/>
	<path fill="#010101" d="M146.674,221.207c-0.087-0.055-0.311-0.055-0.496,0c-0.204,0.061-0.142,0.1,0.16,0.1
		C146.611,221.307,146.762,221.263,146.674,221.207z"/>
	<path fill="#010101" d="M311.334,227.157c-1.881,0.271-8.78,0.579-8.61,0.384c0.074-0.085,0.331-0.16,0.571-0.167
		s0.767-0.137,1.168-0.289c0.402-0.152,0.863-0.282,1.024-0.288c0.606-0.024,1.518-0.679,1.341-0.964
		c-0.162-0.263-0.219-0.261-0.823,0.023c-0.356,0.168-0.716,0.263-0.797,0.212c-0.305-0.19,0.188-0.817,0.652-0.829
		c0.267-0.007,0.562-0.101,0.655-0.209c0.166-0.19,0.038-0.181-2.661,0.201c-0.389,0.055-0.997,0.122-1.352,0.149
		s-0.724,0.135-0.819,0.239c-0.103,0.111-0.784,0.182-1.644,0.17c-0.807-0.012-1.613,0.065-1.791,0.171
		c-0.179,0.105-1.293,0.246-2.478,0.312s-2.675,0.177-3.312,0.246c-0.903,0.097-0.989,0.088-0.39-0.042
		c0.447-0.096,0.572-0.169,0.3-0.174c-0.533-0.009-1.366-0.466-1.141-0.625c0.081-0.058,0.912-0.147,1.848-0.199
		c0.935-0.053,1.837-0.17,2.003-0.263c0.167-0.092,0.885-0.187,1.595-0.21c2.759-0.093,4.767-0.473,4.753-0.899
		c-0.003-0.072,0.257-0.148,0.575-0.169c1.029-0.067-2.462-0.276-4.597-0.274c-3.83,0.002-3.936-0.004-3.367-0.184
		c0.281-0.089,0.875-0.177,1.319-0.195s0.962-0.165,1.15-0.326c0.309-0.263,0.969-0.297,6.568-0.335
		c4.668-0.032,6.397-0.1,6.908-0.271c0.746-0.249,0.786-0.312,0.426-0.671c-0.153-0.152-0.934-0.265-2.139-0.307
		c-1.043-0.037-1.49-0.09-0.994-0.118c0.681-0.039,0.807-0.09,0.511-0.205c-0.333-0.131-0.289-0.229,0.281-0.635
		c0.618-0.439,0.856-0.486,2.804-0.553c1.563-0.055,2.158-0.138,2.24-0.314c0.09-0.195-0.201-0.213-1.532-0.092
		c-0.904,0.083-2.862,0.23-4.353,0.328c-2.96,0.194-3.73,0.339-1.52,0.285c0.77-0.019,1.567,0.031,1.773,0.112
		c0.65,0.254-1.258,0.43-3.446,0.317c-1.107-0.057-2.551-0.029-3.208,0.061c-1.664,0.227-3.904,0.285-3.91,0.101
		c-0.004-0.084,0.255-0.206,0.572-0.271s1.066-0.396,1.664-0.738l1.086-0.619l-3.041,0.143c-1.672,0.078-3.915,0.215-4.983,0.303
		c-1.686,0.139-1.941,0.204-1.932,0.49c0.01,0.279,0.213,0.328,1.312,0.316c0.716-0.008,1.651,0.03,2.08,0.083l0.778,0.098
		l-0.9,0.135c-1.317,0.196-4.102,0.254-5.158,0.106c-0.505-0.07-2.43-0.143-4.279-0.159c-1.849-0.018-3.826-0.04-4.396-0.05
		s-2.838-0.031-5.042-0.047c-2.205-0.016-4.05-0.051-4.101-0.077c-0.051-0.027-0.014-0.14,0.082-0.249
		c0.121-0.139,1.615-0.23,4.863-0.298c4.671-0.097,11.004-0.479,15.092-0.908c3.364-0.354,8.638-1.117,8.893-1.288
		c0.13-0.087-0.182-0.099-0.712-0.027c-1.33,0.18-1.176-0.006,0.313-0.378c0.694-0.173,1.397-0.431,1.563-0.572
		c0.389-0.331,0.004-0.317-0.966,0.035c-1.173,0.426-3.005,0.584-4.323,0.374c-1.273-0.203-1.35-0.483-0.14-0.516
		c0.889-0.023,0.955-0.234,0.221-0.695c-0.291-0.183-0.53-0.374-0.532-0.427c-0.001-0.053,0.898-0.096,2-0.098
		c3.695-0.003,8.846-0.258,8.84-0.437c-0.003-0.095-0.286-0.164-0.63-0.155c-0.343,0.009-0.665-0.06-0.716-0.151
		c-0.06-0.109-0.676-0.087-1.765,0.063c-1.664,0.23-7.237,0.278-9.949,0.085c-1.227-0.088-1.255-0.102-0.525-0.246
		c0.424-0.083,1.15-0.24,1.614-0.347c0.661-0.153,0.98-0.14,1.479,0.062c0.831,0.337,0.884,0.328,1.158-0.19
		c0.154-0.292,0.497-0.484,1.014-0.567c0.845-0.135,1.144-0.336,0.888-0.597c-0.104-0.105-0.321-0.093-0.604,0.034
		c-0.326,0.146-1.335,0.143-3.802-0.013c-1.848-0.117-3.97-0.231-4.717-0.255c-0.748-0.024-1.361-0.104-1.363-0.176
		c-0.003-0.073-1.372-0.147-3.043-0.165c-1.672-0.018-3.677-0.058-4.456-0.089c-0.779-0.032-1.321,0.003-1.204,0.077
		c0.233,0.146,0.364,0.163,1.351,0.169c0.363,0.002,0.603,0.071,0.531,0.153c-0.071,0.083-0.688,0.1-1.371,0.038
		s-2.269-0.158-3.524-0.214c-1.678-0.075-2.734-0.233-3.99-0.601c-1.995-0.583-4.603-1.012-6.259-1.029
		c-0.25-0.002-0.26-0.078-0.042-0.325c0.578-0.656,2.957-0.885,7.957-0.765c2.49,0.06,5.605,0.109,6.923,0.11
		c1.316,0,3.237,0.036,4.268,0.08c2.285,0.096,6.14-0.142,6.122-0.378c-0.007-0.094,0.772-0.231,1.731-0.304
		c2.001-0.151,1.851-0.333-0.362-0.44c-2.331-0.112-2.59-0.329-0.502-0.42l1.807-0.08l-2.131-0.053
		c-1.172-0.029-2.275-0.144-2.451-0.254c-0.251-0.158-0.156-0.21,0.441-0.243c0.418-0.023-0.23-0.116-1.442-0.206
		c-1.211-0.09-3.253-0.259-4.536-0.374c-1.283-0.116-3.382-0.264-4.664-0.329c-3.268-0.167-5.282-0.329-4.616-0.372
		c0.311-0.02,0.625-0.105,0.698-0.189c0.146-0.166-1.589-0.262-5.805-0.319c-1.494-0.021-2.775-0.075-2.848-0.121
		c-0.186-0.118,10.643-0.165,14.086-0.062c3.674,0.111,10.91-0.076,11.094-0.286c0.077-0.089-0.299-0.253-0.837-0.363l-0.979-0.201
		l1.158-0.137l1.159-0.137l-1.422,0.007c-0.781,0.004-1.889-0.06-2.46-0.141c-1.108-0.158-1.707-0.178-8.54-0.279
		c-7.104-0.106-6.499-0.293,1.347-0.416c5.034-0.079,7.294-0.171,7.29-0.297c-0.004-0.101-0.678-0.254-1.498-0.342
		c-0.82-0.087-2.252-0.28-3.182-0.428c-0.929-0.148-2.91-0.286-4.404-0.305c-1.493-0.02-3.706-0.084-4.916-0.143
		c-1.211-0.06-3.599-0.159-5.307-0.222c-1.709-0.062-3.516-0.172-4.016-0.243c-0.499-0.071-2.712-0.126-4.915-0.121
		c-4.671,0.01-7.136-0.127-8.181-0.458c-0.411-0.13-1.247-0.273-1.858-0.318c-2.142-0.158-1.356-0.357,1.401-0.356
		c9.369,0.002,10.136,0.021,10.439,0.25c0.169,0.128,0.438,0.229,0.599,0.223c0.161-0.005,0.115-0.081-0.102-0.167
		c-0.626-0.25,2.23-0.27,4.565-0.032c1.28,0.131,2.581,0.152,3.514,0.058c0.904-0.091,1.483-0.084,1.487,0.019
		c0.003,0.093,1.49,0.227,3.306,0.298s4.29,0.168,5.501,0.215c1.21,0.047,3.885,0.034,5.944-0.028l3.744-0.112l-3.254-0.037
		c-1.79-0.02-3.828-0.106-4.53-0.191s-2.325-0.214-3.607-0.286c-1.281-0.071-2.443-0.2-2.581-0.285
		c-0.327-0.202,0.287-0.208,4.184-0.037c2.143,0.094,3.731,0.074,4.91-0.062c0.957-0.11,2.031-0.199,2.387-0.196
		c1.867,0.012,4.958-0.126,5.194-0.231c0.535-0.238-1.201-0.712-2.884-0.788c-1.218-0.056-1.555-0.119-1.188-0.226
		c0.377-0.109,0.239-0.14-0.521-0.117c-0.568,0.017-1.5-0.028-2.071-0.101c-0.717-0.091,0.242-0.141,3.097-0.162
		c2.274-0.017,4.066-0.076,3.983-0.133c-0.084-0.057-2.854-0.055-6.154,0.004c-4.426,0.08-6.056,0.053-6.206-0.101
		c-0.198-0.201-3.98-0.536-10.014-0.886c-1.567-0.091-5.287-0.189-8.267-0.219c-2.979-0.029-5.488-0.081-5.576-0.115
		c-0.088-0.033-2.015-0.058-4.28-0.056c-2.268,0.003-4.589-0.055-5.16-0.129c-0.571-0.074-1.329-0.128-1.685-0.119
		c-0.526,0.013-0.573,0.047-0.252,0.189c0.377,0.166-2.334,0.189-5.883,0.05c-0.912-0.036-1.06-0.013-0.575,0.086
		c1.099,0.227-36.569,1.288-59.4,1.673c-11.96,0.202-25.103,0.494-27.716,0.617c-1.647,0.077-0.782,0.379,0.956,0.333
		c0.891-0.023,1.751,0.044,1.922,0.152c0.206,0.129,1.807,0.174,4.774,0.135c2.455-0.033,5.22-0.047,6.145-0.032
		c4.881,0.078,15.53,0.044,22.487-0.071c13.8-0.23,27.982-0.309,29.723-0.165c0.927,0.077,3.372,0.169,5.436,0.204
		c2.062,0.036,4.158,0.082,4.656,0.102c0.498,0.02-5.195,0.229-12.651,0.462c-33.64,1.056-67.26,1.675-78.925,1.454
		c-2.988-0.057-7.061-0.105-9.051-0.107s-4.319-0.057-5.174-0.121c-0.855-0.064-2.544-0.131-3.753-0.148
		c-1.209-0.017-3.189-0.08-4.399-0.14c-1.21-0.06-2.958-0.136-3.883-0.169c-2.574-0.092-3.637-0.156-5.051-0.304
		c-1.907-0.2-10.946-0.4-14.228-0.316c-1.563,0.04-4.472,0-6.466-0.089c-4.3-0.191-4.013-0.192-4.006,0.014
		c0.013,0.399,4.737,0.663,11.654,0.65c3.732-0.006,9.992,0.197,13.198,0.43c3.709,0.269,13.772,0.595,20.573,0.668
		c2.702,0.028,6.601,0.083,8.664,0.12c3.488,0.063,15.833-0.026,31.143-0.225c7.754-0.101,37.516-0.7,52.958-1.066
		c8.22-0.195,11.243-0.213,11.631-0.067c0.503,0.189,0.498,0.199-0.122,0.242c-0.974,0.068,1.728,0.248,3.498,0.232
		c1.99-0.017,3.124,0.23,1.432,0.312c-6.143,0.298-14.395,0.606-19.493,0.728c-6.042,0.145-7.8,0.192-10.718,0.293
		c-0.781,0.027-1.769,0.044-2.196,0.037c-0.427-0.006-3.101,0.04-5.941,0.104c-8.858,0.198-28.257,0.429-28.812,0.342
		c-0.214-0.033-5.04,0.014-10.724,0.106c-15.641,0.252-39.292-0.012-39.716-0.444c-0.125-0.127-0.654-0.138-1.607-0.033
		c-0.797,0.088-1.487,0.089-1.572,0.002c-0.083-0.084-0.649-0.146-1.257-0.137c-0.608,0.009-3.319-0.088-6.025-0.217
		c-4.601-0.219-10.305-0.396-13.586-0.424c-0.782-0.007-2.82-0.06-4.528-0.118c-5.142-0.176-6.388-0.21-8.28-0.228
		c-0.995-0.009-2.218-0.057-2.717-0.105l-0.908-0.089l0.655,0.264c0.36,0.145,0.45,0.228,0.2,0.183
		c-0.25-0.044-0.453-0.015-0.451,0.065c0.003,0.08,0.646,0.164,1.428,0.187c1.572,0.045,1.819,0.124,1.614,0.508
		c-0.106,0.2-0.606,0.272-2.133,0.313c-1.097,0.029-2.18-0.003-2.407-0.071c-0.227-0.067-1.515-0.042-2.862,0.057
		c-1.348,0.099-2.014,0.181-1.48,0.182c0.783,0.002,0.972,0.068,0.981,0.347c0.008,0.25,0.184,0.34,0.642,0.328
		c0.347-0.009,0.705,0.059,0.796,0.152c0.091,0.092,0.42,0.161,0.731,0.153c0.311-0.009,1.384,0.113,2.385,0.271
		c2.502,0.394,7.177,0.943,10.9,1.28c4.65,0.421,5.288,0.533,2.86,0.5c-2.149-0.029-4.677-0.152-7.743-0.375
		c-0.984-0.071-3.021-0.131-4.528-0.133c-2.948-0.003-6.345-0.136-9.153-0.356c-1.805-0.142-2.205-0.072-3.347,0.583
		c-0.328,0.188-0.405,0.394-0.278,0.74c0.171,0.468,0.148,0.481-0.942,0.512c-0.817,0.023-1.012,0.074-0.725,0.189
		c0.216,0.086,0.984,0.142,1.706,0.125c0.722-0.018,1.394,0.019,1.494,0.082c0.34,0.213,2.123,0.511,2.948,0.492
		c0.453-0.011,0.891,0.048,0.972,0.131s1.226,0.176,2.542,0.208c1.317,0.032,2.861,0.073,3.43,0.091
		c1.737,0.057,5.372,0.304,6.607,0.449c1.898,0.224,3.674,0.374,5.055,0.426c0.712,0.027,2.518,0.102,4.013,0.166
		c2.415,0.104,10.097,0.189,16.292,0.182c1.208-0.001,3.479,0.049,5.044,0.113c1.566,0.063,5.174,0.104,8.017,0.09
		c2.843-0.014,5.238,0.042,5.323,0.123c0.168,0.16,1.722,0.188,9.033,0.16c3.33-0.013,4.662-0.07,4.388-0.187
		c-0.293-0.125-0.064-0.172,0.898-0.185c1.125-0.014,1.192,0.003,0.521,0.136c-0.663,0.13-0.59,0.148,0.521,0.126
		c0.941-0.019,1.15-0.062,0.77-0.16c-0.509-0.131-0.508-0.135,0.028-0.161c0.302-0.014,0.697,0.086,0.879,0.224
		c0.182,0.138,0.635,0.234,1.008,0.215l0.678-0.035l-0.65-0.121c-0.496-0.092-0.299-0.134,0.834-0.177
		c0.816-0.031,1.487,0.017,1.49,0.107c0.003,0.092,0.65,0.114,1.488,0.05c1.014-0.077,1.362-0.057,1.101,0.064
		s0.271,0.152,1.684,0.098c1.903-0.073,1.963-0.085,0.77-0.163l-1.295-0.084l1.5-0.066c1.047-0.047,1.448-0.007,1.328,0.13
		c-0.12,0.137,0.153,0.168,0.893,0.102c0.586-0.053,1.066-0.055,1.069-0.005c0.006,0.149,3.978-0.001,4.327-0.164
		c0.363-0.169,5.223-0.249,5.229-0.086c0.002,0.058-1.13,0.12-2.516,0.138l-2.519,0.033l2.156,0.055
		c1.621,0.041,2.241,0.127,2.496,0.348c0.426,0.367,0.709,0.374,0.485,0.012c-0.153-0.248,0.421-0.276,6.396-0.314
		c3.61-0.022,7.414-0.06,8.453-0.083c1.676-0.037,1.877-0.006,1.78,0.266c-0.098,0.275,0.151,0.307,2.385,0.298
		c1.371-0.005-1.807,0.105-7.062,0.246s-8.947,0.21-8.203,0.156c0.745-0.055,1.352-0.168,1.349-0.254
		c-0.003-0.087-0.767-0.086-1.745,0.001c-2.446,0.219-11.205,0.45-16.724,0.441c-2.56-0.004-6.398-0.008-8.531-0.009
		c-2.133,0-4.285-0.013-4.784-0.028c-0.498-0.015-2.81-0.033-5.137-0.041c-2.554-0.009-4.093-0.077-3.883-0.173
		c0.26-0.118,0.208-0.155-0.201-0.146c-0.302,0.006-0.942-0.019-1.423-0.055c-0.68-0.051-0.758-0.033-0.353,0.083
		c0.422,0.122,0.308,0.158-0.592,0.191c-0.613,0.023-1.37-0.042-1.682-0.144c-0.313-0.103-1.584-0.156-2.834-0.119
		c-1.247,0.037-2.334-0.002-2.417-0.085c-0.082-0.083-0.71-0.087-1.396-0.008c-0.686,0.079-1.986,0.079-2.889,0
		c-2.037-0.177-10.3-0.51-17.171-0.692c-2.846-0.075-6.538-0.181-8.204-0.234s-3.439-0.035-3.941,0.041
		c-0.501,0.076-0.914,0.072-0.916-0.01c-0.002-0.082-1.179-0.093-2.615-0.025c-2.246,0.106-2.625,0.167-2.72,0.434
		c-0.094,0.265-0.268,0.294-1.192,0.199c-1.076-0.11-3.644-0.092-3.146,0.022c0.353,0.081,8.333,0.505,10.747,0.57
		c1.067,0.029,2.319,0.082,2.783,0.117c0.465,0.035,0.84-0.012,0.836-0.105c-0.003-0.093-0.326-0.192-0.718-0.222
		c-0.392-0.029-0.073-0.072,0.708-0.096s1.218-0.002,0.971,0.047c-0.478,0.096-0.586,0.334-0.217,0.475
		c0.122,0.046,2.365,0.148,4.983,0.226c2.619,0.078,4.966,0.167,5.216,0.198c0.268,0.033,0.451-0.044,0.446-0.189
		c-0.005-0.164,0.186-0.224,0.576-0.179c0.321,0.036,2.01,0.122,3.754,0.189c1.744,0.067,3.173,0.2,3.176,0.294
		c0.004,0.108,0.7,0.114,1.875,0.018c1.028-0.085,1.719-0.087,1.536-0.006c-0.19,0.084,0.901,0.166,2.542,0.189
		c1.582,0.023,3.001-0.015,3.155-0.083c0.162-0.072,0.208-0.043,0.11,0.069c-0.109,0.125,0.223,0.211,0.938,0.243
		c0.608,0.027-1.336,0.077-4.32,0.109s-5.776,0.043-6.204,0.023s-3.221-0.099-6.209-0.174c-2.988-0.075-6.89-0.212-8.67-0.303
		c-1.781-0.092-5.101-0.236-7.378-0.321c-2.277-0.084-5.365-0.241-6.862-0.347c-1.496-0.106-2.948-0.187-3.225-0.179
		c-0.278,0.008-0.641-0.056-0.807-0.142c-0.166-0.086-0.872-0.178-1.569-0.204c-0.698-0.026-1.063-0.011-0.813,0.034
		c0.25,0.045,0.458,0.163,0.461,0.263c0.004,0.11,0.313,0.132,0.79,0.055c0.486-0.078,0.727-0.06,0.633,0.048
		c-0.083,0.096,0.088,0.177,0.381,0.181c2.472,0.035,5.173,0.243,5.047,0.387c-0.073,0.084,0.136,0.145,0.464,0.137
		c0.559-0.015,5.019,0.134,7.326,0.244c0.569,0.027,1.676,0.075,2.459,0.107c0.783,0.031,2.938,0.129,4.789,0.217
		c7.027,0.333,12.668,0.436,19.28,0.35c7.669-0.1,12.26-0.12,19.634-0.085c2.772,0.013,7.891,0.012,11.374-0.003
		c4.25-0.018,5.739,0.02,4.528,0.115c-1.586,0.124-1.396,0.14,1.555,0.132c1.848-0.005,3.626-0.075,3.952-0.154
		c0.326-0.08,0.54-0.085,0.477-0.013c-0.063,0.073,1.705,0.092,3.929,0.043c2.224-0.048,6.125-0.082,8.67-0.074
		c3.436,0.011,4.578-0.035,4.438-0.177c-0.139-0.141,0.002-0.148,0.539-0.027c0.461,0.104,1.658,0.095,3.282-0.024
		c2.146-0.158,2.522-0.149,2.348,0.057c-0.176,0.208-0.144,0.208,0.218-0.001c0.276-0.159,0.588-0.198,0.887-0.11
		c0.605,0.178,11.438-0.107,11.432-0.302c-0.003-0.083,0.176-0.057,0.397,0.058c0.306,0.158,0.553,0.158,1.024,0
		c0.343-0.114,0.678-0.152,0.744-0.084c0.066,0.068,1.145,0.115,2.396,0.104c1.61-0.014,2.39,0.053,2.669,0.228
		c0.352,0.22,0.324,0.251-0.241,0.28c-2.191,0.111-8.591,0.199-8.795,0.121c-0.393-0.15-1.269,0.127-1.26,0.398
		c0.005,0.136-0.078,0.259-0.185,0.274c-0.106,0.016-4.435,0.166-9.618,0.333c-8.28,0.268-12.1,0.312-24.032,0.274
		c-1.493-0.005-5.041,0.002-7.884,0.015c-2.843,0.013-5.238-0.002-5.321-0.031c-0.149-0.053-5.69-0.102-9.546-0.085
		c-2.767,0.013-9.723-0.125-13.063-0.257c-1.566-0.062-4.07-0.151-5.564-0.196c-5.127-0.157-6.255-0.231-5.911-0.387
		c0.193-0.088-0.241-0.11-1.023-0.055c-0.747,0.054-1.413,0.041-1.481-0.028c-0.067-0.068-1.201-0.097-2.518-0.064
		c-1.317,0.033-2.571,0.018-2.787-0.035c-0.215-0.053-2.193-0.078-4.396-0.056c-2.203,0.022-4.23-0.016-4.504-0.085
		c-0.333-0.083-0.439-0.064-0.321,0.056c0.203,0.207-3,0.221-5.773,0.026c-3.624-0.255-8.951-0.41-9.307-0.27
		c-0.22,0.086-0.694,0.047-1.149-0.096c-0.479-0.151-1.965-0.265-3.896-0.297c-2.742-0.046-3.762-0.15-5.983-0.608
		c-0.521-0.107-0.521-0.107,0.006,0.169c0.707,0.371,2.394,0.803,3.585,0.919c0.73,0.071,0.975,0.178,0.983,0.431
		c0.01,0.283-0.186,0.347-1.214,0.4l-1.226,0.063l1.277,0.032c0.702,0.018,1.404,0.14,1.56,0.271s1.275,0.332,2.487,0.447
		c2.477,0.235,5.244,0.592,6.122,0.789c0.321,0.073,2.194,0.137,4.162,0.143c6.602,0.019,12.61,0.103,14.958,0.209
		c4.542,0.207,8.303,0.347,9.749,0.363c0.806,0.009,2.378,0.074,3.495,0.145c1.116,0.071,3.717,0.163,5.78,0.205
		s4.275,0.097,4.916,0.123c0.641,0.025,2.329,0.062,3.751,0.08c7.035,0.092,11.121,0.311,7.538,0.405
		c-1.03,0.026-1.422,0.096-1.293,0.228c0.131,0.134-0.111,0.169-0.821,0.12c-0.554-0.037-2.751-0.06-4.884-0.049
		c-4.969,0.025-10.457-0.103-16.169-0.375c-2.492-0.12-7.557-0.265-11.256-0.323c-3.698-0.059-7.949-0.184-9.444-0.279
		c-1.496-0.095-2.895-0.177-3.108-0.184c-0.213-0.006-2.661-0.139-5.438-0.295c-2.777-0.155-5.399-0.302-5.827-0.325
		c-0.427-0.023-2.193-0.093-3.923-0.154c-1.731-0.062-3.538-0.178-4.016-0.256c-1.344-0.222-13.788,0.156-15.268,0.464
		c-1.259,0.262-2.737,1.025-2.724,1.408c0.005,0.149,0.141,0.129,0.45-0.068c0.244-0.155,0.942-0.43,1.552-0.609
		c1.085-0.319,1.121-0.319,1.671,0.026c0.44,0.275,0.496,0.399,0.256,0.569c-0.472,0.334-0.365,0.457,0.483,0.559
		c0.43,0.052,0.905,0.239,1.057,0.417c0.225,0.264,0.562,0.316,1.816,0.283c0.847-0.022,2.213,0.092,3.037,0.253
		c1.771,0.348,5.464,0.521,10.811,0.508c2.132-0.006,4.168,0.007,4.524,0.028c0.356,0.021,0.793,0.046,0.971,0.056
		c0.481,0.027,0.402,0.324-0.115,0.429c-0.283,0.057-0.191,0.091,0.246,0.093c1.24,0.003,1.103,0.335-0.151,0.368
		c-0.647,0.018-1.175,0.099-1.172,0.181c0.002,0.082-0.485,0.099-1.098,0.036c-1.541-0.158-3.497-0.098-3.68,0.112
		c-0.084,0.098-0.818,0.193-1.631,0.215c-0.902,0.024-1.691,0.146-2.028,0.315c-0.448,0.225-0.76,0.247-1.669,0.12
		c-1.034-0.145-4.648-0.561-4.831-0.556c-0.044,0.001,0.006,0.089,0.111,0.196c0.141,0.144-0.144,0.17-1.08,0.104
		c-0.699-0.051-1.505-0.106-1.79-0.125c-0.285-0.018-0.753-0.115-1.042-0.217c-0.608-0.214-3.57-0.646-3.716-0.542
		c-0.055,0.039,0.383,0.145,0.973,0.234c0.938,0.143,1.026,0.196,0.705,0.424c-0.364,0.259-1.975,0.401-2.291,0.203
		c-0.091-0.057-1.188-0.112-2.438-0.123c-1.25-0.011-2.625-0.119-3.056-0.241c-0.533-0.15-1.028-0.168-1.553-0.056l-0.77,0.164
		l0.946,0.242c0.521,0.133,1.029,0.326,1.131,0.43c0.307,0.312,1.795,0.609,3.551,0.71c0.913,0.053,1.775,0.071,1.916,0.042
		c0.537-0.111,4.274,0.265,4.28,0.431c0.011,0.319-1.746,1.352-2.531,1.488c-0.427,0.074-0.773,0.191-0.771,0.261
		c0.002,0.069-0.227,0.302-0.51,0.517c-0.372,0.283-0.815,0.399-1.602,0.42c-1.438,0.038-4.484-0.29-7.06-0.76
		c-2.541-0.464-4.04-0.441-6.135,0.093c-2.502,0.637-2.776,0.979-0.334,0.417c1.429-0.329,4.428-0.457,5.428-0.231
		c1.244,0.28,0.731,0.503-1.283,0.556c-1.87,0.049-3.708,0.442-3.697,0.791c0.002,0.076,0.615,0.117,1.36,0.093
		c3.671-0.123,12.001-0.241,12.402-0.177c0.25,0.041,0.459,0.215,0.465,0.386c0.017,0.519-0.616,0.75-1.836,0.671
		c-1.67-0.108-7.515-0.057-7.321,0.065c0.093,0.058,1.015,0.13,2.048,0.159c1.856,0.053,3.358,0.455,3.194,0.855
		c-0.148,0.361-1.113,0.352-5.335-0.054c-0.612-0.059-0.604-0.046,0.141,0.242c0.434,0.167,1.136,0.302,1.561,0.299
		c0.424-0.003,1.124,0.076,1.554,0.177l0.781,0.182l-0.64,0.196c-0.352,0.108-1.686,0.235-2.963,0.283
		c-1.564,0.059-2.742,0.204-3.604,0.444c-0.763,0.214-2.115,0.399-3.345,0.459c-1.136,0.056-2.123,0.11-2.193,0.121
		c-0.07,0.011,0.263,0.122,0.742,0.247c1.234,0.321,0.942,0.667-0.567,0.67c-0.672,0.002-1.175,0.033-1.117,0.069
		c0.058,0.036,1.023,0.182,2.146,0.321c1.168,0.146,2.095,0.356,2.168,0.492c0.079,0.147-0.008,0.205-0.234,0.155
		c-1.042-0.232-1.531-0.277-1.526-0.141c0.008,0.235,2.52,0.641,5.221,0.842c1.341,0.101,2.849,0.285,3.351,0.411
		c0.502,0.125,1.553,0.263,2.337,0.306c0.783,0.043,2.241,0.165,3.24,0.271c0.999,0.105,3.622,0.268,5.828,0.36
		c2.207,0.093,4.887,0.218,5.955,0.278c1.068,0.06,2.874,0.13,4.012,0.156c3.119,0.069,6.304,0.263,7.9,0.479
		c0.786,0.106,2.244,0.217,3.239,0.246c0.997,0.028,2.275,0.112,2.841,0.188c0.662,0.087,1.137,0.072,1.329-0.042
		c0.277-0.163,5.237,0.082,5.772,0.286c0.55,0.209,14.224,0.958,19.318,1.059c1.281,0.025,3.61,0.12,5.177,0.211
		c4.25,0.246,10.743,0.339,21.078,0.299c0.782-0.003,2.818,0.005,4.524,0.017c2.497,0.018,2.698,0.004,1.032-0.069
		c-1.139-0.051-5.445-0.124-9.57-0.163c-7.953-0.075-12.831-0.189-16.428-0.385c-1.211-0.065-4.064-0.178-6.342-0.249
		c-6.048-0.19-11.871-0.464-12.031-0.565c-0.205-0.13,6.398-0.049,7.642,0.094c0.583,0.066,3.133,0.149,5.667,0.185
		c2.534,0.034,4.688,0.093,4.788,0.131s1.391,0.045,2.871,0.016c1.479-0.029,3.913-0.015,5.407,0.033
		c1.495,0.047,3.765,0.098,5.045,0.112c1.28,0.015,2.968,0.047,3.75,0.072c2.93,0.096,6.994,0.117,11.444,0.061
		c2.525-0.032,4.677-0.025,4.783,0.015c0.106,0.04,3.216,0.045,6.912,0.012c6.483-0.059,10.321,0.016,13.321,0.255
		c0.784,0.063,2.668,0.088,4.188,0.055c1.541-0.033,2.834,0.015,2.926,0.108c0.092,0.092,0.282,0.165,0.424,0.161
		c0.143-0.004,0.196-0.07,0.12-0.147c-0.294-0.299,6.268-0.222,14.715,0.173c1.709,0.079,5.606,0.101,8.661,0.047
		c11.359-0.2,12.12-0.196,21.589,0.112c1.708,0.056,3.629,0.107,4.27,0.115l0,0c0.64,0.008,2.441-0.043,4.003-0.113
		s8.824-0.317,16.139-0.55c11.326-0.359,22.07-0.862,19.121-0.896c-1.513-0.017-0.749-0.178,2.568-0.543
		c2.256-0.248,4.146-0.344,6.429-0.325c1.777,0.015,4.453,0.018,5.945,0.007c1.493-0.012,4.575-0.014,6.851-0.005
		c4.071,0.016,4.914-0.042,11.993-0.817c4.125-0.451,6.943-1.09,6.928-1.569c-0.012-0.333-0.797-0.314-2.402,0.055
		c-0.678,0.156-1.604,0.294-2.059,0.306s-1.927,0.16-3.271,0.329c-2.159,0.271-2.294,0.309-1.153,0.311l1.293,0.002l-1.846,0.273
		c-4.052,0.599-13.752,1.043-13.377,0.613c0.091-0.104,1.771-0.228,4.077-0.298c3.961-0.123,9.222-0.476,7.787-0.522
		c-0.691-0.022-0.65-0.048,0.38-0.226c0.637-0.109,1.266-0.272,1.397-0.362c0.132-0.091,0.479-0.171,0.77-0.181
		c0.34-0.011,0.417-0.061,0.217-0.139c-0.375-0.147-3.383-0.055-10.15,0.312l-5.032,0.272l0.456-0.364
		c0.37-0.295,0.841-0.386,2.479-0.478c1.418-0.081,2.161-0.204,2.49-0.414c0.258-0.164,1.154-0.4,1.993-0.525
		c0.908-0.136,1.714-0.372,1.994-0.585c0.258-0.196,0.576-0.36,0.707-0.363c0.246-0.007,1.893-0.747,2.541-1.143
		c0.205-0.125,1.362-0.306,2.572-0.401c3.312-0.261,4.427-0.426,5.408-0.799c0.753-0.286,1.65-0.369,5.67-0.521
		c4.209-0.161,8.347-0.544,8.719-0.808C313.827,226.878,312.865,226.936,311.334,227.157z M296.206,224.264
		c0.472-0.13,3.105-0.293,4.312-0.268c0.476,0.01,0.47,0.025-0.067,0.185c-0.322,0.096-1.524,0.185-2.67,0.199
		C296.543,224.395,295.903,224.348,296.206,224.264z M292.542,217.356c0.428,0.033,1.06,0.062,1.402,0.066
		c1.503,0.014,0.024,0.258-3.377,0.559l0,0c-4.461,0.394-4.117,0.378-4.567,0.202c-0.203-0.079-0.732-0.096-1.176-0.036
		c-0.525,0.071-0.918,0.024-1.126-0.133c-0.272-0.206,0.009-0.271,1.937-0.448C287.982,217.351,291.204,217.252,292.542,217.356z
		 M286.572,214.588c0.248,0.037-0.014,0.078-0.581,0.091c-0.568,0.013-0.771-0.017-0.452-0.066
		C285.859,214.562,286.324,214.552,286.572,214.588z M284.963,212.91c0.176-0.052,0.467-0.06,0.646-0.017
		c0.18,0.043,0.035,0.086-0.32,0.096C284.934,212.998,284.787,212.963,284.963,212.91z M285.869,215.538
		c2.89-0.187,3.676-0.181,3.361,0.028c-0.22,0.145-4.788,0.368-5.656,0.276C282.925,215.773,283.578,215.688,285.869,215.538z
		 M283.278,212.777c0.247-0.05,0.654-0.061,0.903-0.023c0.251,0.037,0.049,0.077-0.449,0.09
		C283.235,212.857,283.031,212.827,283.278,212.777z M281.594,212.654c0.176-0.052,0.467-0.06,0.646-0.017
		c0.18,0.043,0.035,0.086-0.319,0.096C281.564,212.742,281.418,212.707,281.594,212.654z M272.687,209.093
		c0.176-0.052,0.467-0.06,0.646-0.017c0.18,0.043,0.035,0.086-0.319,0.095C272.657,209.181,272.511,209.146,272.687,209.093z
		 M268.822,209.019c0.186-0.054,0.408-0.054,0.496,0.001c0.087,0.055-0.063,0.1-0.337,0.099
		C268.681,209.118,268.618,209.079,268.822,209.019z M266.498,209.08c0.185-0.055,0.407-0.055,0.495,0
		c0.088,0.055-0.063,0.1-0.336,0.099C266.356,209.18,266.294,209.14,266.498,209.08z M225.811,199.39
		c-1.259-0.042-2.366-0.129-2.463-0.194c-0.259-0.176,4.579-0.053,5.09,0.13C228.938,199.505,229.157,199.5,225.811,199.39z
		 M124.415,207.223c-0.301,0-0.364-0.04-0.16-0.1c0.185-0.055,0.408-0.054,0.496,0C124.839,207.179,124.688,207.223,124.415,207.223
		z M129.576,210.179c-0.355,0.009-0.502-0.026-0.326-0.079c0.176-0.053,0.466-0.06,0.646-0.017S129.931,210.169,129.576,210.179z
		 M136.382,210.339c-0.115-0.015-1.257-0.048-2.538-0.073l-2.328-0.046l2.373-0.095c1.359-0.054,2.443-0.023,2.538,0.073l0,0
		C136.518,210.291,136.498,210.354,136.382,210.339z M137.981,210.296c-0.426,0.007-0.571-0.027-0.321-0.078
		s0.599-0.057,0.775-0.014v0C138.611,210.248,138.407,210.289,137.981,210.296z M140.176,210.232
		c-0.498,0.013-0.702-0.017-0.455-0.067c0.247-0.05,0.654-0.061,0.904-0.024C140.875,210.179,140.673,210.219,140.176,210.232z
		 M145.497,206.981c-7.448,0.159-9.181,0.152-13.832-0.059c-0.854-0.039-4.286-0.025-7.625,0.029
		c-5.031,0.083-12.624,0.16-14.213,0.143c-0.213-0.002-1.204-0.067-2.202-0.144c-0.998-0.077-1.96-0.137-2.137-0.135
		c-0.178,0.003-0.325-0.041-0.326-0.097c-0.002-0.057-0.556-0.097-1.231-0.09c-2.102,0.021-5.873-0.111-6.147-0.216
		c-0.306-0.116-0.262-0.113-2.539-0.213c-1.32-0.058-1.838-0.158-2.079-0.4c-0.176-0.177-0.495-0.316-0.71-0.309
		c-0.34,0.011-0.341,0.032-0.004,0.163c0.89,0.347-0.156,0.354-3.909,0.026c-5.262-0.46-7.518-0.749-7.351-0.939
		c0.196-0.225,5.056-0.125,5.687,0.116c0.533,0.204,2.183,0.467,2.52,0.402c0.214-0.042,6.699,0.111,7.836,0.185
		c0.427,0.027,1.912,0.075,3.299,0.104c1.911,0.041,2.524,0.113,2.53,0.297c0.006,0.18-0.212,0.222-0.835,0.165
		c-1.482-0.137-3.087-0.14-2.863-0.005c0.332,0.2,4.842,0.358,5.118,0.18c0.142-0.092-0.019-0.155-0.393-0.154
		c-0.594,0.001-0.588-0.008,0.111-0.167c0.43-0.098,0.93-0.108,1.183-0.026c0.242,0.079,1.303,0.165,2.358,0.19
		s2.503,0.105,3.216,0.176s2.577,0.134,4.141,0.14c1.564,0.006,4.823,0.041,7.241,0.076c4.006,0.059,5.804,0.073,12.929,0.099
		c1.28,0.004,5.346-0.025,9.036-0.065c4.125-0.045,6.774-0.008,6.878,0.098c0.093,0.095,0.467,0.114,0.833,0.043
		c0.365-0.071,0.877-0.052,1.14,0.042l0,0C153.501,206.759,151.372,206.855,145.497,206.981z M155.755,206.917
		c-0.422,0.019-0.661-0.041-0.571-0.144c0.085-0.097-0.092-0.17-0.393-0.162s-0.473,0.09-0.382,0.183
		c0.184,0.187-0.195,0.243-0.471,0.069c-0.421-0.264-0.106-0.399,0.992-0.428c0.647-0.017,1.114,0.042,1.037,0.13
		c-0.077,0.089,0.007,0.197,0.187,0.24C156.333,206.85,156.154,206.9,155.755,206.917z M88.24,210.918
		c-0.355,0.009-0.502-0.026-0.326-0.078c0.176-0.053,0.467-0.06,0.646-0.017S88.595,210.909,88.24,210.918z M89.919,210.902
		c-0.084,0.097-0.205,0.178-0.268,0.179c-0.062,0.002-0.117-0.074-0.12-0.169s0.117-0.176,0.268-0.18
		C89.95,210.729,90.004,210.805,89.919,210.902z M96.91,211.225c-0.424,0.089-1.235,0.176-1.803,0.193
		c-0.911,0.027-0.957,0.01-0.392-0.139c0.481-0.127,0.352-0.14-0.519-0.053c-0.824,0.083-1.049,0.063-0.778-0.066
		c0.446-0.213,2.405-0.304,2.231-0.104c-0.065,0.075,0.365,0.106,0.957,0.07C97.583,211.067,97.611,211.076,96.91,211.225z
		 M98.277,211.542c-0.771,0.023-0.913-0.058-0.372-0.212c0.189-0.054,0.51-0.033,0.712,0.046
		C98.887,211.481,98.794,211.526,98.277,211.542z M101.704,211.58c-0.639,0.017-0.902-0.01-0.583-0.06
		c0.318-0.049,0.841-0.063,1.162-0.03C102.604,211.523,102.343,211.563,101.704,211.58z M111.524,211.495
		c-2.129,0.053-7.763-0.19-6.73-0.29c0.354-0.034,0.709-0.06,0.788-0.057s1.302,0.03,2.716,0.06s3.155,0.096,3.868,0.146
		C113.378,211.442,113.337,211.451,111.524,211.495z M114.63,211.605c-0.355,0.009-0.502-0.026-0.326-0.079
		c0.176-0.052,0.466-0.06,0.646-0.017C115.129,211.553,114.985,211.596,114.63,211.605z M133.26,212.151
		c-0.355,0.009-0.502-0.026-0.326-0.079c0.176-0.052,0.466-0.06,0.646-0.017S133.615,212.142,133.26,212.151z M154.221,212.808
		c-0.355,0.009-0.502-0.026-0.326-0.079c0.176-0.052,0.467-0.06,0.646-0.017C154.72,212.756,154.576,212.799,154.221,212.808z
		 M277.061,214.953c1.195-0.029,2.116-0.014,2.047,0.036c-0.264,0.187-2.517,0.273-5.637,0.216c-4.381-0.081-5.189-0.18-1.557-0.189
		C273.549,215.011,275.864,214.982,277.061,214.953z M270.721,211.754c0.076,0.048-0.664,0.104-1.647,0.122
		c-1.756,0.033-1.771,0.029-0.89-0.209C269.001,211.445,270.299,211.49,270.721,211.754z M264.158,209.626
		c0.595-0.028,1.156,0.025,1.247,0.117c0.182,0.185-0.063,0.191-1.421,0.038l-0.908-0.104L264.158,209.626z M265.65,211.028
		c1.382,0.129,2.449,0.309,2.371,0.398c-0.079,0.09-1.252,0.157-2.642,0.149c-1.533-0.008-2.148,0.03-1.591,0.099
		c1.947,0.24-3.038,0.219-8.79-0.038c-3.938-0.176-6.535-0.209-8.018-0.103c-1.205,0.086-2.478,0.093-2.826,0.016
		c-1.063-0.237,1.855-0.43,4.926-0.326c1.472,0.05,5.236-0.027,8.366-0.17C262.247,210.834,263.53,210.83,265.65,211.028z
		 M264.425,215.261c-0.354,0.01-0.501-0.025-0.325-0.078s0.467-0.06,0.646-0.017C264.925,215.209,264.78,215.252,264.425,215.261z
		 M249.428,211.875c-0.302,0-0.364-0.04-0.16-0.1c0.185-0.055,0.408-0.055,0.496,0C249.851,211.83,249.699,211.875,249.428,211.875z
		 M261.734,205.755c0.185-0.054,0.408-0.054,0.496,0.001c0.087,0.055-0.063,0.1-0.336,0.099
		C261.593,205.855,261.53,205.816,261.734,205.755z M259.652,205.814c0.176-0.053,0.467-0.06,0.646-0.017
		c0.18,0.043,0.035,0.086-0.319,0.096C259.623,205.902,259.477,205.866,259.652,205.814z M257.066,205.702
		c0.32-0.05,0.785-0.061,1.033-0.024l0,0c0.249,0.037-0.013,0.078-0.582,0.09C256.95,205.781,256.746,205.751,257.066,205.702z
		 M256.63,210.166c0.71-0.031,1.929-0.121,2.708-0.2c0.988-0.101,1.341-0.087,1.164,0.044c-0.312,0.234-3.33,0.449-4.384,0.312
		C255.457,210.236,255.534,210.213,256.63,210.166z M254.328,205.056c0.532-0.027,0.97,0.029,0.974,0.124
		c0.003,0.095-0.024,0.163-0.061,0.151c-0.035-0.012-0.474-0.067-0.973-0.125l-0.908-0.103L254.328,205.056z M239.983,199.306
		c8.394-0.144,13.165-0.164,15.121-0.062c0.641,0.033,1.979,0.067,2.975,0.076c2.444,0.021,10.805,0.328,11.13,0.41
		c0.144,0.036-0.554,0.07-1.549,0.075c-4.256,0.025-11.28,0.021-13.313-0.008c-1.209-0.017-4.99-0.044-8.403-0.06
		c-3.412-0.016-7.951-0.088-10.087-0.161l-3.882-0.132L239.983,199.306z M240.682,200.867c-0.497,0.013-0.702-0.017-0.454-0.067
		c0.247-0.05,0.653-0.061,0.903-0.023C241.381,200.813,241.179,200.854,240.682,200.867z M235.787,201.369
		c-1.495-0.077-3.071-0.23-3.501-0.341c-0.688-0.177-0.351-0.212,2.765-0.285c1.951-0.046,3.499-0.028,3.439,0.041
		c-0.061,0.069,0.146,0.105,0.459,0.081s0.744,0.012,0.96,0.08c0.215,0.069,1.486,0.182,2.824,0.251
		c1.338,0.069,2.644,0.194,2.9,0.279c0.258,0.084,0.96,0.14,1.562,0.124c1.993-0.052,0.923,0.104-1.827,0.266
		c-1.598,0.095-2.182,0.095-1.422,0l1.287-0.161l-1.244,0.006h-0.001c-0.684,0.003-1.467,0.092-1.738,0.197
		c-0.34,0.132-0.495,0.136-0.499,0.013c-0.003-0.101-0.604-0.163-1.375-0.142c-0.753,0.02-1.481-0.033-1.619-0.117
		S237.282,201.445,235.787,201.369z M174.4,210.05c-0.301,0-0.364-0.04-0.159-0.1c0.185-0.055,0.407-0.054,0.495,0
		C174.824,210.005,174.673,210.05,174.4,210.05z M170.695,206.817c-7.027,0.162-8.396,0.147-8.404-0.087
		c-0.004-0.124-0.122-0.116-0.359,0.024c-0.208,0.123-0.868,0.19-1.61,0.164c-0.691-0.024-1.78-0.039-2.42-0.031
		c-0.76,0.009-1.042-0.041-0.815-0.145c0.293-0.134,0.292-0.171-0.008-0.242c-0.195-0.046,0.022-0.1,0.484-0.12
		c0.461-0.02,0.841,0.023,0.843,0.094c0.002,0.071,1.456,0.064,3.23-0.016c2.225-0.1,3.229-0.086,3.233,0.045
		c0.008,0.247,0.712,0.227,0.827-0.024c0.065-0.142,0.367-0.149,1.119-0.031c0.566,0.089,2.077,0.146,3.355,0.125
		s3.199-0.004,4.267,0.037v0.001C175.735,206.662,174.497,206.729,170.695,206.817z M177.392,209.945
		c-0.497,0.013-0.702-0.017-0.455-0.067s0.654-0.061,0.904-0.023C178.091,209.891,177.889,209.932,177.392,209.945z
		 M191.665,210.979c-1.054,0.034-1.852,0.016-1.774-0.039c0.271-0.192,2.475-0.312,3.079-0.168
		C193.436,210.883,193.126,210.932,191.665,210.979z M191.553,210.188c0.176-0.052,0.466-0.06,0.646-0.017
		c0.179,0.043,0.035,0.086-0.32,0.095S191.377,210.241,191.553,210.188z M192.912,210.267c-0.336-0.134-0.327-0.159,0.059-0.171
		c0.249-0.008,0.455,0.063,0.458,0.158C193.436,210.464,193.407,210.465,192.912,210.267z M195.646,210.829
		c-0.995,0.027-1.435,0.008-0.977-0.042c0.457-0.05,1.271-0.072,1.808-0.049S196.64,210.803,195.646,210.829z M195.427,210.087
		c0.176-0.052,0.466-0.06,0.646-0.017c0.18,0.043,0.035,0.086-0.32,0.095C195.397,210.175,195.251,210.14,195.427,210.087z
		 M196.483,209.93c-2.229-0.136-9.498,0.052-9.202,0.237c0.081,0.051,0.916,0.073,1.854,0.049c0.938-0.025,1.709,0.028,1.712,0.117
		c0.002,0.088-0.102,0.164-0.232,0.167l0,0c-0.13,0.003-0.391,0.032-0.579,0.062c-0.188,0.031-1.718,0.069-3.397,0.084
		c-2.259,0.02-3.03-0.028-2.958-0.186c0.068-0.146,0.615-0.208,1.758-0.196c0.912,0.009,1.6-0.019,1.527-0.062
		c-0.195-0.117-2.755-0.215-4.509-0.174c-0.841,0.02-1.444-0.023-1.342-0.096c0.396-0.28,16.067-0.371,16.339-0.095
		C197.55,209.936,197.172,209.971,196.483,209.93z M197.224,206.537c-14.918,0.166-20.537,0.194-20.683,0.103
		c-0.119-0.075,23.056-0.792,24.627-0.762c0.427,0.008,5.379-0.04,11.006-0.106c8.798-0.104,10.398-0.083,11.434,0.151
		c1.213,0.275,2.181,0.198,1.842-0.146c-0.13-0.133,0.363-0.166,1.736-0.116c1.594,0.058,1.976,0.021,2.253-0.215
		c0.362-0.309,1.184-0.4,1.421-0.158c0.082,0.083,1.863,0.115,3.959,0.071s4.744,0.006,5.886,0.112s4.797,0.201,8.123,0.211
		c3.325,0.01,6.109,0.058,6.186,0.106c0.157,0.099-4.707,0.251-4.878,0.153c-0.249-0.144-12.338,0.021-20.521,0.28
		c-12.864,0.407-16.24,0.464-19.077,0.324C209.135,206.474,203.144,206.471,197.224,206.537z M240.207,211.625
		c-1.242-0.038-1.688-0.113-1.557-0.261c0.14-0.158,0.666-0.165,2.215-0.026c1.118,0.1,2.099,0.224,2.182,0.275
		C243.203,211.711,243.03,211.712,240.207,211.625z M228.623,211.399c-1.493-0.019-2.541-0.06-2.329-0.092
		c0.9-0.135,6.608-0.153,6.973-0.022C233.702,211.442,233.16,211.456,228.623,211.399z M232.772,211.808
		c0.007,0.195-1.037,0.223-2.194,0.058c-0.642-0.091-0.518-0.122,0.704-0.17C232.121,211.661,232.77,211.71,232.772,211.808z
		 M224.484,211.308c-0.355,0.009-0.502-0.026-0.325-0.078c0.176-0.053,0.466-0.06,0.646-0.017
		C224.983,211.256,224.839,211.299,224.484,211.308z M205.497,212.338c-0.302,0-0.364-0.04-0.16-0.1
		c0.185-0.055,0.408-0.054,0.496,0C205.921,212.293,205.77,212.338,205.497,212.338z M204.227,212.351
		c-0.427,0.008-0.57-0.027-0.321-0.078c0.25-0.05,0.599-0.056,0.775-0.014S204.652,212.343,204.227,212.351z M195.252,219.917
		c0.185-0.055,0.408-0.054,0.495,0.001c0.088,0.055-0.063,0.1-0.335,0.1C195.11,220.017,195.048,219.978,195.252,219.917z
		 M193.687,219.962c0.176-0.052,0.466-0.06,0.646-0.017c0.179,0.043,0.035,0.086-0.32,0.096
		C193.657,220.05,193.51,220.015,193.687,219.962z M190.581,220.034c0.457-0.051,1.271-0.073,1.808-0.05v0.001
		c0.537,0.022,0.163,0.064-0.831,0.091C190.562,220.103,190.124,220.084,190.581,220.034z M191.452,220.799
		c-0.355,0.009-0.502-0.026-0.326-0.079c0.176-0.052,0.467-0.06,0.646-0.017C191.951,220.746,191.808,220.789,191.452,220.799z
		 M188.133,220.104c0.247-0.05,0.654-0.061,0.904-0.023c0.25,0.036,0.048,0.077-0.449,0.09
		C188.091,220.184,187.886,220.153,188.133,220.104z M133.307,220.539c0.769,0.048,1.51,0.153,1.648,0.235
		c0.15,0.089-0.263,0.159-1.028,0.175c-0.829,0.018-1.408-0.064-1.648-0.234C131.946,220.479,132.047,220.461,133.307,220.539z
		 M129.856,220.57c0.928-0.039,1.616,0.006,1.619,0.105c0.006,0.188-0.607,0.205-2.195,0.058
		C128.323,220.645,128.367,220.632,129.856,220.57z M125.21,220.718c0.32-0.049,0.785-0.061,1.034-0.023
		c0.248,0.036-0.014,0.077-0.582,0.091C125.094,220.798,124.891,220.768,125.21,220.718z M92.426,235.803
		c-0.497,0.013-0.702-0.017-0.455-0.066s0.654-0.061,0.904-0.023C93.126,235.749,92.923,235.79,92.426,235.803z M92.823,221.159
		c-0.301,0-0.364-0.039-0.16-0.1c0.185-0.055,0.408-0.055,0.496,0C93.247,221.115,93.096,221.159,92.823,221.159z M95.384,221.261
		c-0.453,0.021-0.898-0.037-0.989-0.129c-0.19-0.193,0.228-0.205,1.162-0.03C96.178,221.217,96.17,221.224,95.384,221.261z
		 M188.964,222.025c-2.314,0.062-4.242,0.092-4.284,0.064c-0.043-0.026-4.775,0.07-10.518,0.216s-12.535,0.249-15.095,0.229
		c-2.56-0.019-6.864-0.02-9.564-0.001c-4.229,0.028-9.3,0.032-13.571,0.011c-6.109-0.031-9.324-0.057-10.084-0.08
		c-6.022-0.182-8.461-0.297-11.651-0.548c-2.067-0.163-4.049-0.293-4.404-0.289c-2.029,0.024-7.819-0.183-8.915-0.318
		c-0.716-0.088-1.887-0.092-2.65-0.008c-0.852,0.093-1.369,0.085-1.373-0.022c-0.009-0.272-0.988-0.388-3.698-0.436
		c-1.596-0.028-2.56,0.02-2.626,0.131c-0.059,0.1-0.214,0.075-0.361-0.058c-0.174-0.156-0.497-0.188-0.992-0.098
		c-0.54,0.099-0.633,0.085-0.353-0.051c0.293-0.143,0.172-0.181-0.523-0.166c-1.203,0.024-2.1-0.121-1.931-0.314
		c0.075-0.086-0.473-0.141-1.217-0.121c-1.503,0.04-5.831-0.164-6.44-0.303c-0.262-0.06-0.137-0.138,0.38-0.234l0.771-0.146
		l-0.808,0.001c-0.445,0-0.933-0.094-1.085-0.208c-0.218-0.166,0.033-0.199,1.191-0.16c1.084,0.036,1.449,0.113,1.396,0.295
		c-0.052,0.181,0.017,0.196,0.261,0.058c0.212-0.12,0.921-0.155,1.967-0.098c1.715,0.094,2.453,0.275,1.249,0.308
		c-0.403,0.01-0.633,0.09-0.539,0.186c0.091,0.093,0.652,0.156,1.248,0.142c1.559-0.038,3.038,0.11,2.882,0.29
		c-0.074,0.085,0.25,0.139,0.72,0.119c0.711-0.028,0.767-0.057,0.333-0.169c-0.41-0.105-0.3-0.143,0.512-0.171
		c0.757-0.027,0.931,0.011,0.651,0.141c-0.262,0.121,0.064,0.141,1.036,0.061c0.779-0.064,2.408-0.068,3.619-0.01
		c1.21,0.059,3.54,0.147,5.176,0.197c1.637,0.051,4.374,0.139,6.082,0.195c1.708,0.058,3.92,0.118,4.916,0.135
		c0.996,0.016,2.352,0.062,3.013,0.101c0.798,0.047,1.264,0,1.385-0.139c0.133-0.152,0.233-0.158,0.368-0.021
		c0.121,0.123,2.423,0.19,6.631,0.194c3.545,0.004,7.029,0.063,7.742,0.133c0.713,0.07,3.215,0.106,5.561,0.08
		c2.345-0.025,3.798-0.063,3.229-0.083s-1.27-0.102-1.557-0.183s-0.813-0.177-1.17-0.212c-0.888-0.09,16.632-0.278,20.415-0.221
		c2.09,0.033,4.948,0.005,22.354-0.215c4.828-0.062,7.617-0.031,7.842,0.084c0.259,0.134,0.407,0.115,0.575-0.073
		c0.125-0.14,0.23-0.168,0.237-0.062c0.005,0.105,0.623,0.258,1.372,0.341c1.113,0.121,0.726,0.146-2.128,0.135
		c-1.92-0.008-6.571,0.052-10.336,0.134c-3.766,0.081-8.184,0.14-9.819,0.131c-1.704-0.01-2.476,0.026-1.807,0.084l1.167,0.102
		l-1.161,0.084c-0.638,0.045,0.992,0.084,3.622,0.086c6.825,0.006,17.275,0.239,22.248,0.498l0,0l2.72,0.141L188.964,222.025z
		 M196.528,221.866c-0.427,0.008-0.57-0.027-0.32-0.077c0.25-0.051,0.599-0.058,0.774-0.015
		C197.159,221.817,196.955,221.858,196.528,221.866z M205.671,221.464c-0.367,0.022-0.72,0.008-0.785-0.033
		c-0.064-0.041-2.847-0.042-6.183-0.004c-5.86,0.067-14.396-0.019-14.735-0.147c-0.091-0.034-1.378-0.051-2.859-0.035
		c-1.482,0.015-3.162-0.016-3.732-0.068c-1.079-0.099,0.554-0.12,16.021-0.202c12.396-0.066,12.114-0.07,11.908,0.166
		c-0.078,0.09,0.122,0.19,0.444,0.224l0,0C206.29,221.418,206.283,221.426,205.671,221.464z M201.044,220.058
		c-1.796-0.232-1.118-0.36,1.747-0.331c1.635,0.018,3.823,0.011,4.861-0.017s1.826,0.021,1.751,0.108
		C209.235,220.011,202.232,220.211,201.044,220.058z M210.188,220.642c-0.568,0.017-1.325-0.024-1.684-0.091l-0.65-0.121
		l0.646-0.024c0.355-0.014,1.113,0.028,1.684,0.091l1.038,0.115L210.188,220.642z M210.222,219.7
		c0.176-0.052,0.467-0.06,0.646-0.017c0.18,0.043,0.035,0.086-0.319,0.096C210.192,219.788,210.046,219.753,210.222,219.7z
		 M213.007,219.881c-0.427,0.008-0.57-0.026-0.32-0.077c0.249-0.05,0.599-0.057,0.774-0.014
		C213.638,219.832,213.434,219.873,213.007,219.881z M215.84,215.661c-0.497,0.014-0.702-0.017-0.455-0.066s0.654-0.061,0.904-0.023
		C216.539,215.607,216.337,215.648,215.84,215.661z M214.438,212.404c-1.633,0.041-3.785,0.046-4.781,0.011
		c-1.611-0.057-1.482-0.074,1.158-0.151c1.633-0.048,3.785-0.053,4.782-0.011C217.24,212.322,217.133,212.336,214.438,212.404z
		 M215.692,211.222c-0.635-0.072-0.169-0.125,1.545-0.173c1.583-0.045,2.227-0.015,1.812,0.085
		C218.264,211.323,216.902,211.359,215.692,211.222z M218.818,219.734c-0.355,0.009-0.502-0.026-0.326-0.079
		c0.177-0.052,0.467-0.06,0.646-0.017C219.317,219.682,219.174,219.725,218.818,219.734z M239.237,215.743
		c-0.427,0.008-0.571-0.026-0.321-0.077s0.599-0.057,0.775-0.014C239.867,215.694,239.663,215.735,239.237,215.743z
		 M247.492,215.241c-0.425,0.104-2.158,0.187-3.871,0.185c-1.844-0.002-2.891,0.051-2.581,0.131
		c0.459,0.119,0.435,0.139-0.203,0.167c-0.422,0.018-0.661-0.043-0.571-0.146c0.097-0.111-0.497-0.159-1.604-0.128
		c-1.231,0.034-1.641,0.096-1.366,0.205c0.318,0.127,0.282,0.161-0.188,0.175c-0.32,0.01-0.583-0.054-0.587-0.142
		c-0.003-0.089-0.322-0.1-0.711-0.024c-0.389,0.074-1.87,0.125-3.292,0.113c-1.878-0.016-2.269-0.053-1.427-0.135
		c0.638-0.062-0.991-0.078-3.62-0.034c-2.629,0.043-6.061,0.043-7.626-0.001c-1.881-0.053,1.446-0.161,9.812-0.32
		c6.962-0.133,13.066-0.232,13.563-0.222c0.499,0.011,1.837,0.013,2.974,0.004C247.943,215.055,248.144,215.082,247.492,215.241z
		 M248.353,215.285c0.496-0.205,9.463-0.381,11.801-0.231c1.011,0.065-0.856,0.154-5.337,0.255
		C250.252,215.411,248.069,215.402,248.353,215.285z M252.391,222.642c-0.426,0.008-0.57-0.027-0.32-0.077
		c0.25-0.051,0.599-0.058,0.775-0.015C253.021,222.593,252.817,222.634,252.391,222.642z M268.083,220.316
		c-0.71,0.018-0.972-0.009-0.58-0.059s0.972-0.064,1.291-0.032S268.793,220.3,268.083,220.316z M260.79,216.722
		c-0.322-0.062-1.869-0.233-3.438-0.382l-2.852-0.269l5.039-0.03c2.771-0.017,5.563-0.023,6.204-0.016
		c0.64,0.009,2.801,0.028,4.803,0.044c3.189,0.025,6.137,0.197,5.031,0.294l0,0C273.995,216.502,261.253,216.811,260.79,216.722z
		 M274.073,223.158c0.596-0.026,0.923,0.026,0.829,0.133c-0.173,0.199-0.249,0.2-1.162,0.03
		C273.164,223.215,273.201,223.195,274.073,223.158z M275.149,234.615c-0.781,0.021-1.102-0.003-0.713-0.053
		c0.39-0.05,1.029-0.066,1.421-0.037C276.25,234.555,275.931,234.595,275.149,234.615z M279.175,223.497
		c-0.355,0.009-0.502-0.026-0.326-0.079c0.176-0.052,0.467-0.06,0.646-0.017C279.674,223.444,279.53,223.487,279.175,223.497z
		 M280.574,223.474c-0.301,0-0.363-0.039-0.159-0.1c0.185-0.055,0.407-0.055,0.495,0
		C280.998,223.43,280.847,223.474,280.574,223.474z M282.13,223.605c-0.302,0-0.364-0.04-0.159-0.101
		c0.185-0.055,0.407-0.054,0.495,0.001S282.402,223.605,282.13,223.605z M281.165,223.091c-1.188,0.062-2.003,0.034-2.006-0.066
		c-0.003-0.093-0.442-0.189-0.977-0.216c-0.534-0.024,0.338-0.066,1.938-0.091c1.6-0.025,2.938,0.025,2.977,0.112
		C283.134,222.917,282.265,223.034,281.165,223.091z M285.361,222.977c-0.497,0.013-0.701-0.017-0.454-0.067
		c0.247-0.049,0.653-0.061,0.903-0.023C286.062,222.923,285.859,222.964,285.361,222.977z M287.02,222.96
		c-0.301-0.001-0.363-0.04-0.159-0.101c0.185-0.055,0.407-0.055,0.495,0.001C287.443,222.915,287.292,222.96,287.02,222.96z
		 M293.449,225.191c-0.355,0.01-0.502-0.025-0.326-0.078s0.467-0.061,0.646-0.017C293.948,225.14,293.804,225.183,293.449,225.191z
		 M292.106,219.806l2.014-0.135c2.169-0.146,4.863-0.095,4.447,0.084c-0.583,0.25-1.156,0.276-3.743,0.166L292.106,219.806z
		 M288.728,223.124c-0.605-0.109-0.615-0.126-0.138-0.245c0.678-0.168,4.559-0.229,5.623-0.09c0.759,0.1,0.713,0.115-0.478,0.163
		c-0.725,0.028-2.002,0.105-2.838,0.171S289.085,223.188,288.728,223.124z"/>
	<path fill="#010101" d="M144.664,213.046c0.497-0.013,0.7-0.054,0.449-0.091c-0.25-0.037-0.657-0.026-0.904,0.024
		S144.167,213.059,144.664,213.046z"/>
	<path fill="#010101" d="M188.878,213.324c-0.007-0.189-1.807-0.298-1.963-0.119c-0.062,0.071,0.151,0.156,0.475,0.189
		C188.44,213.501,188.883,213.48,188.878,213.324z"/>
	<path fill="#010101" d="M179.942,212.816c0.426-0.008,0.631-0.049,0.454-0.092c-0.176-0.042-0.525-0.036-0.775,0.014l0,0
		C179.372,212.789,179.516,212.824,179.942,212.816z"/>
	<path fill="#010101" d="M105.655,211.747c-0.319-0.033-0.9-0.019-1.292,0.031c-0.391,0.05-0.13,0.076,0.58,0.059
		C105.654,211.82,105.974,211.779,105.655,211.747z"/>
	
		<ellipse transform="matrix(0.9997 -0.0264 0.0264 0.9997 -5.5729 5.0854)" fill="#010101" cx="189.522" cy="213.288" rx="0.388" ry="0.172"/>
	<path fill="#010101" d="M78.903,212.122c-0.088-0.055-0.311-0.056-0.496,0c-0.204,0.061-0.142,0.1,0.16,0.1
		C78.84,212.221,78.991,212.177,78.903,212.122z"/>
	<path fill="#010101" d="M140.2,210.961c0.513,0.205,0.855,0.196,0.646-0.017c-0.091-0.093-0.362-0.162-0.602-0.154
		C139.868,210.802,139.862,210.826,140.2,210.961z"/>
	<path fill="#010101" d="M132.708,211.106c0.781-0.02,1.1-0.061,0.708-0.09s-1.031-0.012-1.42,0.037
		C131.606,211.103,131.927,211.126,132.708,211.106z"/>
	<path fill="#010101" d="M128.24,210.999c-0.087-0.055-0.311-0.055-0.496,0c-0.204,0.061-0.142,0.1,0.16,0.1
		C128.177,211.099,128.328,211.054,128.24,210.999z"/>
	<path fill="#010101" d="M83.4,209.863c0.661-0.014,0.452-0.107-0.503-0.224c-0.568-0.069-0.672-0.051-0.385,0.069
		C82.729,209.799,83.128,209.868,83.4,209.863z"/>
	<path fill="#010101" d="M89.005,212.719c-0.088-0.055-0.311-0.055-0.496,0c-0.204,0.06-0.142,0.1,0.16,0.1
		C88.941,212.818,89.092,212.773,89.005,212.719z"/>
	<path fill="#010101" d="M83.564,212.344c-0.088-0.055-0.311-0.056-0.496-0.001c-0.204,0.061-0.142,0.1,0.159,0.1
		C83.5,212.444,83.651,212.399,83.564,212.344z"/>
	<path fill="#010101" d="M140.402,213.142c0.994-0.027,1.369-0.068,0.832-0.091c-0.537-0.023-1.351-0.001-1.808,0.049v0
		C138.968,213.149,139.408,213.167,140.402,213.142z"/>
	<path fill="#010101" d="M80.273,212.335c0.355-0.009,0.499-0.052,0.32-0.096c-0.179-0.043-0.47-0.035-0.646,0.017
		C79.771,212.309,79.918,212.344,80.273,212.335z"/>
	<path fill="#010101" d="M86.933,212.601c-0.087-0.055-0.311-0.055-0.495,0c-0.205,0.061-0.142,0.1,0.159,0.1
		C86.869,212.7,87.021,212.656,86.933,212.601z"/>
	<path fill="#010101" d="M126.439,213.047c-0.287-0.074-1.16-0.11-1.941-0.081l-1.42,0.054l1.554,0.074l0,0
		C126.874,213.201,127.021,213.197,126.439,213.047z"/>
	<path fill="#010101" d="M129.931,213.088c0.498-0.013,0.699-0.054,0.45-0.091c-0.25-0.037-0.657-0.026-0.904,0.023
		C129.229,213.071,129.434,213.102,129.931,213.088z"/>
	<path fill="#010101" d="M110.476,213.19c-0.087-0.055-0.311-0.056-0.495,0c-0.205,0.06-0.142,0.1,0.159,0.1
		C110.413,213.29,110.564,213.245,110.476,213.19z"/>
	<path fill="#010101" d="M120.05,213.456c-0.088-0.055-0.311-0.056-0.496,0l0,0c-0.204,0.06-0.142,0.1,0.16,0.1
		C119.986,213.556,120.138,213.511,120.05,213.456z"/>
	<path fill="#010101" d="M146.495,199.617c0.58,0.139,1.719,0.102,3.149-0.101c0.925-0.132,0.68-0.148-1.216-0.084
		C147.122,199.476,146.252,199.559,146.495,199.617z"/>
	<path fill="#010101" d="M124.273,198.405c1.409-0.037,1.412-0.038,0.383-0.152c-0.571-0.063-1.561-0.097-2.2-0.075
		c-1.052,0.037-1.088,0.052-0.383,0.152C122.502,198.391,123.492,198.425,124.273,198.405z"/>
	<path fill="#010101" d="M321.015,224.301c-0.244,0.137-0.443,0.277-0.442,0.313c0.005,0.142,0.214,0.045,0.542-0.251
		C321.427,224.082,321.417,224.075,321.015,224.301z"/>
	<path fill="#010101" d="M315.232,221.429c-0.177,0.052-0.029,0.087,0.325,0.078c0.355-0.01,0.499-0.053,0.32-0.096
		C315.698,221.368,315.408,221.376,315.232,221.429z"/>
	<path fill="#010101" d="M318.7,220.773c-0.629,0.027-0.65,0.047-0.188,0.165c0.712,0.185,0.911,0.179,0.904-0.023
		C319.413,220.82,319.091,220.757,318.7,220.773z"/>
	<path fill="#010101" d="M314.452,221.459c-0.088-0.055-0.311-0.056-0.495,0c-0.204,0.06-0.142,0.1,0.159,0.1
		C314.389,221.559,314.54,221.515,314.452,221.459z"/>
	
		<ellipse transform="matrix(0.9997 -0.0264 0.0264 0.9997 -5.7053 8.3604)" fill="#010101" cx="313.705" cy="220.203" rx="0.259" ry="0.173"/>
	<path fill="#010101" d="M279.596,197.229c1.496,0.111,4.059,0.227,5.695,0.255c4.522,0.081,4.32,0.085,3.877-0.088
		c-0.215-0.084-1.032-0.182-1.817-0.218c-2.782-0.128-7.908-0.416-8.419-0.472c-0.951-0.105-7.7-0.307-13.585-0.407
		c-2.348-0.04-5.973-0.104-8.057-0.143c-2.083-0.038-5.746-0.005-8.141,0.073l-4.352,0.143l5.557-0.025
		C261.936,196.296,270.529,196.555,279.596,197.229z"/>
	<path fill="#010101" d="M293.067,187.101c0.272,0,0.424-0.044,0.336-0.1c-0.088-0.055-0.311-0.055-0.495,0
		C292.703,187.062,292.766,187.101,293.067,187.101z"/>
	<path fill="#010101" d="M300.688,190.191c0.338-0.009,0.685-0.096,0.769-0.193c0.092-0.105-0.224-0.167-0.78-0.152
		c-0.558,0.015-0.868,0.092-0.77,0.192C299.998,190.132,300.35,190.2,300.688,190.191z"/>
	<path fill="#010101" d="M283.572,198.283c-0.247,0.05-0.042,0.08,0.455,0.067c0.497-0.013,0.699-0.054,0.449-0.09
		C284.227,198.222,283.819,198.233,283.572,198.283z"/>
	<path fill="#010101" d="M298.932,206.981c-0.384,0.262,1.41,0.145,2.696-0.176l1.153-0.288l-1.805,0.15
		C299.984,206.75,299.064,206.892,298.932,206.981z"/>
	<path fill="#010101" d="M294.422,209.73c-0.176,0.053-0.029,0.088,0.326,0.079c0.354-0.009,0.499-0.052,0.319-0.095
		C294.889,209.67,294.598,209.678,294.422,209.73z"/>
	<path fill="#010101" d="M298.475,209.158c-0.212,0.06-0.384,0.14-0.382,0.177c0.001,0.037,0.176,0.063,0.39,0.058
		c0.213-0.006,0.385-0.085,0.382-0.177C298.86,209.124,298.686,209.098,298.475,209.158z"/>
	<path fill="#010101" d="M297.235,204.919c0.106,0.009,0.191-0.06,0.188-0.155c-0.003-0.095-0.5-0.149-1.103-0.121l-1.097,0.052
		l0.908,0.103C296.632,204.855,297.128,204.909,297.235,204.919z"/>
	<path fill="#010101" d="M303.991,204.041c0.427-0.007,0.631-0.049,0.454-0.091c-0.176-0.042-0.524-0.036-0.774,0.014
		C303.421,204.014,303.565,204.048,303.991,204.041z"/>
	<path fill="#010101" d="M294.443,208.437c0.355-0.009,0.499-0.052,0.32-0.095c-0.18-0.043-0.47-0.036-0.646,0.017
		C293.941,208.411,294.089,208.446,294.443,208.437z"/>
	<path fill="#010101" d="M297.356,187.783c0.77-0.065,1.521-0.208,1.67-0.316c0.29-0.21-1.166-0.047-2.427,0.272
		C296.16,187.85,296.397,187.864,297.356,187.783z"/>
	<path fill="#010101" d="M236.292,189.971c0.272,0,0.424-0.044,0.336-0.1c-0.088-0.055-0.312-0.055-0.496,0
		C235.928,189.932,235.99,189.971,236.292,189.971z"/>
	<path fill="#010101" d="M271.006,187.667c0.354-0.009,0.499-0.052,0.319-0.095c-0.179-0.043-0.47-0.036-0.646,0.017
		C270.504,187.641,270.65,187.676,271.006,187.667z"/>
	<path fill="#010101" d="M272.284,191.786c0.272,0,0.424-0.044,0.336-0.1c-0.088-0.055-0.311-0.055-0.496,0
		C271.92,191.746,271.982,191.785,272.284,191.786z"/>
	<path fill="#010101" d="M266.99,187.421c0.427-0.008,0.631-0.049,0.454-0.091c-0.176-0.043-0.524-0.037-0.774,0.014
		S266.564,187.429,266.99,187.421z"/>
	<path fill="#010101" d="M269.45,187.535c0.355-0.009,0.499-0.052,0.32-0.096c-0.18-0.043-0.47-0.035-0.646,0.017
		C268.948,187.509,269.095,187.544,269.45,187.535z"/>
	<path fill="#010101" d="M275.021,191.842c1.065-0.028,1.5-0.07,0.967-0.093c-0.534-0.023-1.406,0-1.938,0.051
		S273.956,191.87,275.021,191.842z"/>
	<path fill="#010101" d="M268.965,192.375c0.415-0.015,0.389-0.042-0.135-0.14c-0.889-0.166-1.568-0.147-0.903,0.024
		C268.213,192.333,268.681,192.385,268.965,192.375z"/>
	<path fill="#010101" d="M250.917,189.937c0.783,0.038,2.646,0.05,4.138,0.028l2.713-0.041l-1.171-0.228
		c-0.825-0.16-1.78-0.185-3.234-0.084c-1.135,0.079-2.47,0.168-2.966,0.199C249.722,189.853,249.854,189.884,250.917,189.937z"/>
	<path fill="#010101" d="M288.123,193.237c0.567-0.013,0.829-0.053,0.581-0.09s-0.713-0.026-1.033,0.023l0,0
		C287.351,193.22,287.555,193.25,288.123,193.237z"/>
	<path fill="#010101" d="M280.58,185.373c1.03-0.027,1.72-0.118,1.716-0.226c-0.005-0.165-3.04,0.022-3.332,0.205
		C278.906,185.388,279.633,185.398,280.58,185.373z"/>
	<path fill="#010101" d="M282.195,193.781c0.7-0.122,0.122-0.125-1.81-0.008c-1.562,0.094-2.886,0.202-2.944,0.24
		C277.232,194.149,281.192,193.957,282.195,193.781z"/>
	<path fill="#010101" d="M238.227,196.978c0.354-0.009,0.499-0.052,0.319-0.095c-0.179-0.043-0.47-0.036-0.646,0.017
		C237.725,196.952,237.871,196.987,238.227,196.978z"/>
	<path fill="#010101" d="M238.422,189.929c0.169,0.112,1.221,0.238,2.336,0.279s2.116,0.084,2.223,0.095
		c0.107,0.01,0.192-0.052,0.189-0.139c-0.003-0.087-0.733-0.177-1.622-0.201c-0.89-0.024-2.026-0.087-2.525-0.141
		C238.309,189.745,238.181,189.768,238.422,189.929z"/>
	<path fill="#010101" d="M261.942,194.976c0.354-0.009,0.499-0.052,0.319-0.095c-0.179-0.043-0.47-0.036-0.646,0.017
		C261.44,194.95,261.587,194.985,261.942,194.976z"/>
	<path fill="#010101" d="M264.083,186.138c0.272,0,0.424-0.044,0.336-0.1s-0.311-0.055-0.495,0
		C263.719,186.098,263.781,186.137,264.083,186.138z"/>
	<path fill="#010101" d="M281.558,191.954c-0.25,0.05-0.105,0.085,0.321,0.078c0.426-0.008,0.63-0.049,0.453-0.092
		C282.156,191.897,281.808,191.903,281.558,191.954z"/>
	<path fill="#010101" d="M141.339,199.64c0.069,0.043,0.542,0.061,1.05,0.04l0.925-0.039l-0.747-0.129
		c-0.411-0.071-2.019-0.141-3.574-0.157c-4.974-0.049-10.33-0.144-13.921-0.245c-1.921-0.055-4.074-0.06-4.783-0.011
		c-1.594,0.109,10.963,0.42,18.224,0.451C139.999,199.556,141.27,199.597,141.339,199.64z"/>
	<path fill="#010101" d="M102.039,198.312c0.355-0.009,0.499-0.052,0.32-0.096c-0.179-0.043-0.47-0.035-0.646,0.017
		S101.684,198.321,102.039,198.312z"/>
	<path fill="#010101" d="M100.339,198.37c0.272,0,0.423-0.044,0.336-0.099c-0.088-0.055-0.311-0.056-0.496,0
		C99.975,198.33,100.038,198.37,100.339,198.37z"/>
	<path fill="#010101" d="M116.061,199.123c1.189,0.022,2.212,0.069,2.272,0.103c0.152,0.086,0.39-0.1,0.244-0.191
		c-0.197-0.124-5.03-0.191-4.848-0.068C113.822,199.03,114.872,199.1,116.061,199.123z"/>
	<path fill="#010101" d="M104.999,198.592c0.272,0,0.424-0.044,0.336-0.099c-0.087-0.055-0.311-0.056-0.495-0.001
		C104.635,198.553,104.698,198.592,104.999,198.592z"/>
</g>
</svg>
