<svg xmlns="http://www.w3.org/2000/svg" width="211" height="38" viewBox="0 0 211 38">
  <g fill="none" fill-rule="evenodd" transform="translate(0 1)">
    <text fill="#000" font-family="Linearicons-Free" font-size="34">
      <tspan x="90" y="32"></tspan>
    </text>
    <g fill="#000" transform="translate(164 13)">
      <path d="M46.7736247,4.77339425 C46.2998284,4.08599769 45.6965205,3.55594307 45.0300758,3.09459922 C43.8836291,2.30038338 42.6918533,1.59335517 41.2807174,1.65946765 C40.3471552,1.70306147 39.4111646,1.86040339 38.4927121,2.05498772 C34.4371129,2.91300643 30.3896081,3.81404156 26.3353579,4.67841169 C23.2297796,5.34097998 20.1163767,5.96313016 17.0099889,6.62079053 C14.1186443,7.23254748 11.2326959,7.87404061 8.34216071,8.48868457 C7.23915427,8.7231096 6.13857618,8.70463275 5.21472734,7.92975986 C4.76656352,7.55358275 4.40555017,7.02987953 4.08177137,6.51772435 C3.08102507,4.93506668 1.76675297,3.84262294 0,3.35587343 C0.00998317958,3.44046275 0.00728502293,3.46760063 0.0164587555,3.48867578 C0.99939722,5.66865536 1.7173767,7.94621581 2.2340737,10.3005707 C2.43238821,11.2047815 2.63151217,12.1110132 2.88136148,12.9993455 C3.14793935,13.9457067 3.33465179,14.0689819 4.24096261,14.046752 C7.1811439,13.9731333 10.0940738,13.5666426 12.9967507,13.1133823 C15.7502196,12.6829295 18.4877693,12.137285 21.2317946,11.6395649 C22.2681566,11.451332 22.9855964,12.2876981 22.6858312,13.3717695 C22.5460667,13.8746863 22.3520693,14.3623019 22.1645474,14.848474 C21.1144248,17.5648596 20.0537794,20.2760487 18.6294225,22.8021805 C18.4200456,23.173161 18.2255085,23.5539573 18.0244958,23.9301344 C18.0433829,23.9535192 18.0617304,23.9769039 18.0803477,24 C18.8460845,23.5201793 19.6266612,23.0654756 20.3743204,22.5553413 C23.2724105,20.5768749 25.6964344,18.0316888 27.8840998,15.2220528 C29.0637339,13.7075285 30.1929125,12.1473895 31.3223608,10.5889827 C31.8962587,9.7979426 32.5786226,9.20985911 33.5005827,8.96908266 C34.4581585,8.71906779 35.4184324,8.47569303 36.371961,8.20777871 C39.6758538,7.27960571 42.9778579,6.34277168 46.2785129,5.40420545 C46.5116336,5.33780427 46.7342316,5.22925278 47,5.1250318 C46.9039456,4.97548479 46.8416182,4.87212991 46.7736247,4.77339425"/>
      <path d="M17.4283097,3.30422038 C18.1484913,3.18366675 18.8656516,3.04676352 19.5832434,2.91340598 C19.7533073,2.88188869 19.9225079,2.84328001 20.1428571,2.79738296 C20.0489767,2.74124278 20.0058133,2.71268024 19.9600601,2.68864831 C18.7406935,2.04589256 17.5239167,1.39998509 16.3002337,0.764517725 C15.9264385,0.57009544 15.5446581,0.380794715 15.1473388,0.231875517 C14.619666,0.0343015031 14.0630737,-0.0435068077 13.4285714,0.0236644175 C14.6729728,1.12204199 15.8694628,2.18259881 17.0765278,3.23350346 C17.1524954,3.29929581 17.3173797,3.32273679 17.4283097,3.30422038"/>
    </g>
    <g fill="#000" transform="translate(0 13)">
      <path d="M46.7736247,4.77339425 C46.2998284,4.08599769 45.6965205,3.55594307 45.0300758,3.09459922 C43.8836291,2.30038338 42.6918533,1.59335517 41.2807174,1.65946765 C40.3471552,1.70306147 39.4111646,1.86040339 38.4927121,2.05498772 C34.4371129,2.91300643 30.3896081,3.81404156 26.3353579,4.67841169 C23.2297796,5.34097998 20.1163767,5.96313016 17.0099889,6.62079053 C14.1186443,7.23254748 11.2326959,7.87404061 8.34216071,8.48868457 C7.23915427,8.7231096 6.13857618,8.70463275 5.21472734,7.92975986 C4.76656352,7.55358275 4.40555017,7.02987953 4.08177137,6.51772435 C3.08102507,4.93506668 1.76675297,3.84262294 0,3.35587343 C0.00998317958,3.44046275 0.00728502293,3.46760063 0.0164587555,3.48867578 C0.99939722,5.66865536 1.7173767,7.94621581 2.2340737,10.3005707 C2.43238821,11.2047815 2.63151217,12.1110132 2.88136148,12.9993455 C3.14793935,13.9457067 3.33465179,14.0689819 4.24096261,14.046752 C7.1811439,13.9731333 10.0940738,13.5666426 12.9967507,13.1133823 C15.7502196,12.6829295 18.4877693,12.137285 21.2317946,11.6395649 C22.2681566,11.451332 22.9855964,12.2876981 22.6858312,13.3717695 C22.5460667,13.8746863 22.3520693,14.3623019 22.1645474,14.848474 C21.1144248,17.5648596 20.0537794,20.2760487 18.6294225,22.8021805 C18.4200456,23.173161 18.2255085,23.5539573 18.0244958,23.9301344 C18.0433829,23.9535192 18.0617304,23.9769039 18.0803477,24 C18.8460845,23.5201793 19.6266612,23.0654756 20.3743204,22.5553413 C23.2724105,20.5768749 25.6964344,18.0316888 27.8840998,15.2220528 C29.0637339,13.7075285 30.1929125,12.1473895 31.3223608,10.5889827 C31.8962587,9.7979426 32.5786226,9.20985911 33.5005827,8.96908266 C34.4581585,8.71906779 35.4184324,8.47569303 36.371961,8.20777871 C39.6758538,7.27960571 42.9778579,6.34277168 46.2785129,5.40420545 C46.5116336,5.33780427 46.7342316,5.22925278 47,5.1250318 C46.9039456,4.97548479 46.8416182,4.87212991 46.7736247,4.77339425"/>
      <path d="M17.4283097,3.30422038 C18.1484913,3.18366675 18.8656516,3.04676352 19.5832434,2.91340598 C19.7533073,2.88188869 19.9225079,2.84328001 20.1428571,2.79738296 C20.0489767,2.74124278 20.0058133,2.71268024 19.9600601,2.68864831 C18.7406935,2.04589256 17.5239167,1.39998509 16.3002337,0.764517725 C15.9264385,0.57009544 15.5446581,0.380794715 15.1473388,0.231875517 C14.619666,0.0343015031 14.0630737,-0.0435068077 13.4285714,0.0236644175 C14.6729728,1.12204199 15.8694628,2.18259881 17.0765278,3.23350346 C17.1524954,3.29929581 17.3173797,3.32273679 17.4283097,3.30422038"/>
    </g>
    <path stroke="#979797" stroke-linecap="square" d="M61.3653846 18L79.5746695 18M134.365385 18L152.574669 18"/>
  </g>
</svg>
