<svg xmlns="http://www.w3.org/2000/svg" width="68" height="52" viewBox="0 0 68 52">
  <path fill-rule="evenodd" d="M35.2,13.4979394 C35.2,14.5387527 34.8800032,15.6836301 34.24,16.9326061 C33.5999968,18.181582 32.9600032,19.2223797 32.32,20.0550303 C29.3333184,26.0917474 27.2000064,32.076334 25.92,38.0089697 C24.6399936,43.9416054 22.933344,50.1343516 20.8,56.5873939 C20.1599968,58.8771832 19.3600048,60.4383797 18.4,61.2710303 C17.4399952,62.1036809 15.6800128,62.52 13.12,62.52 C8.4266432,62.52 5.0666768,61.0108434 3.04,57.9924848 C1.0133232,54.9741263 0,51.3833744 0,47.2201212 C0,44.0976814 1.0133232,40.4548895 3.04,36.2916364 C5.0666768,32.1283832 7.679984,28.1733521 10.88,24.4264242 C14.080016,20.6794964 17.546648,17.5050635 21.28,14.9030303 C25.013352,12.3009971 28.479984,11 31.68,11 C32.5333376,11 33.3333296,11.2081595 34.08,11.6244848 C34.8266704,12.0408102 35.2,12.6652888 35.2,13.4979394 Z M21.08,30.84 C20.6533312,31.0533344 20.0666704,32.1199904 19.32,34.04 C18.5733296,35.9600096 17.8800032,38.1466544 17.24,40.6 C16.5999968,43.0533456 16.013336,45.346656 15.48,47.48 C14.946664,49.613344 14.68,50.9999968 14.68,51.64 L14.68,54.36 C14.68,55.1066704 14.7866656,55.48 15,55.48 L15,55.16 C15.4266688,52.8133216 15.9599968,50.4666784 16.6,48.12 L18.52,41.08 C18.9466688,40.013328 19.4799968,38.2000128 20.12,35.64 C20.7600032,33.0799872 21.08,31.4800032 21.08,30.84 Z M15.96,31.8 C15.7466656,31.8 15.64,31.9066656 15.64,32.12 C15.64,32.3333344 15.5333344,32.5999984 15.32,32.92 C15.1066656,33.2400016 14.8933344,33.6133312 14.68,34.04 C14.2533312,35.5333408 13.6666704,36.9733264 12.92,38.36 C12.1733296,39.7466736 11.5866688,41.1866592 11.16,42.68 C10.7333312,43.5333376 10.4666672,44.3866624 10.36,45.24 C10.2533328,46.0933376 10.2,47.053328 10.2,48.12 L10.2,50.04 C11.266672,47.0533184 12.333328,43.960016 13.4,40.76 C14.466672,37.559984 15.4266624,34.4666816 16.28,31.48 L15.96,31.8 Z M5.4,36.28 C5.1866656,36.4933344 4.7066704,37.6133232 3.96,39.64 C3.2133296,41.6666768 2.84,42.8933312 2.84,43.32 C2.84,43.7466688 2.9466656,43.96 3.16,43.96 L3.48,43.32 C3.6933344,42.8933312 4.1199968,41.7733424 4.76,39.96 C5.4000032,38.1466576 5.72,37.0266688 5.72,36.6 L5.4,36.28 Z M67.16,13.24 L66.2,15.16 C65.5599968,16.4400064 64.8666704,17.9333248 64.12,19.64 C63.3733296,21.3466752 62.6800032,23.1599904 62.04,25.08 C61.3999968,27.0000096 61.08,28.5999936 61.08,29.88 C60.6533312,33.7200192 60.0666704,37.5599808 59.32,41.4 C58.5733296,45.2400192 57.9866688,49.1866464 57.56,53.24 C57.1333312,57.2933536 56.0666752,59.9066608 54.36,61.08 C52.6533248,62.2533392 49.9866848,62.84 46.36,62.84 C40.8133056,62.84 37.240008,61.50668 35.64,58.84 C34.039992,56.17332 33.24,52.17336 33.24,46.84 C33.24,42.9999808 34.0933248,39.0000208 35.8,34.84 C37.5066752,30.6799792 39.8533184,26.8400176 42.84,23.32 C45.8266816,19.7999824 49.186648,16.9200112 52.92,14.68 C56.653352,12.4399888 60.653312,11.32 64.92,11.32 C66.4133408,11.32 67.16,11.9599936 67.16,13.24 Z M59.4205266,22.8430521 C59.3022472,22.9989458 59.1087384,23.2112616 58.84,23.48 C58.6266656,23.9066688 58.52,24.2266656 58.52,24.44 C57.453328,26.573344 56.4400048,29.1866512 55.48,32.28 C54.5199952,35.3733488 53.7200032,38.6266496 53.08,42.04 C52.4399968,45.4533504 51.9066688,48.8133168 51.48,52.12 C51.0533312,55.4266832 50.84,58.3599872 50.84,60.92 L51.16,60.92 C51.5866688,60.92 51.9066656,60.0666752 52.12,58.36 C52.3333344,56.6533248 52.5466656,55.5866688 52.76,55.16 C53.1866688,51.959984 53.666664,48.8133488 54.2,45.72 C54.733336,42.6266512 55.4266624,39.480016 56.28,36.28 C56.7066688,33.9333216 57.2399968,31.6400112 57.88,29.4 C58.4906041,27.2628856 59.0041084,25.0772562 59.4205266,22.8430521 Z M59.4205266,22.8430521 C59.4405762,22.7354807 59.4604006,22.6277966 59.48,22.52 C59.6037549,22.52 59.5839309,22.6276834 59.4205266,22.8430521 Z M53.4,25.72 C52.9733312,25.72 52.3866704,26.6266576 51.64,28.44 C50.8933296,30.2533424 50.1466704,32.3333216 49.4,34.68 C48.6533296,37.0266784 48.013336,39.266656 47.48,41.4 C46.946664,43.533344 46.68,45.0266624 46.68,45.88 L46.68,48.12 C47.1066688,48.12 47.32,47.6933376 47.32,46.84 C47.7466688,45.773328 48.1199984,44.6533392 48.44,43.48 C48.7600016,42.3066608 49.1333312,41.0800064 49.56,39.8 C50.2000032,37.4533216 50.8933296,35.1600112 51.64,32.92 C52.3866704,30.6799888 52.9733312,28.2800128 53.4,25.72 Z M41.88,31.48 C41.6666656,31.48 41.3466688,31.9066624 40.92,32.76 C40.4933312,33.6133376 40.0666688,34.6266608 39.64,35.8 C39.2133312,36.9733392 38.8400016,38.093328 38.52,39.16 C38.1999984,40.226672 38.04,41.0799968 38.04,41.72 C38.04,42.3600032 38.1466656,42.68 38.36,42.68 C38.5733344,42.68 38.7866656,42.3066704 39,41.56 C39.2133344,40.8133296 39.4266656,40.3333344 39.64,40.12 C39.8533344,38.6266592 40.1733312,37.1333408 40.6,35.64 C41.0266688,34.1466592 41.4533312,32.7600064 41.88,31.48 Z" transform="translate(0 -11)"/>
</svg>
