<svg xmlns="http://www.w3.org/2000/svg" width="793" height="398" viewBox="0 0 793 398">
  <g fill="none" fill-rule="evenodd" stroke="#C1C1C1" opacity=".5" transform="translate(1 1)">
    <path d="M787.190151,79.3544189 C779.21626,68.0335917 769.062718,59.30405 757.846595,51.7061156 C738.55214,38.626067 718.494807,26.9819235 694.74569,28.0707388 C679.034037,28.7886913 663.281515,31.3799769 647.824155,34.5846125 C579.569282,48.7154392 511.450638,63.5547092 443.21847,77.7901382 C390.952248,88.7020653 338.554339,98.9483411 286.274494,109.779439 C237.613779,119.854547 189.043882,130.419385 140.39679,140.54204 C121.833426,144.402817 103.310931,144.09852 87.7627517,131.337033 C80.22025,125.141721 74.1444719,116.516781 68.6953437,108.082028 C51.8529964,82.0170242 29.7340766,64.0254197 0,56.0090759 C0.168014788,57.4021891 0.122605386,57.8491264 0.276997354,58.196216 C16.8196426,94.0985957 28.9030845,131.608048 37.598985,170.382238 C40.9365761,185.273809 44.28779,200.198662 48.4927006,214.828728 C52.9791496,230.414478 56.1214802,232.444715 71.3744984,232.078606 C120.857124,230.86617 169.881115,224.171619 218.73255,216.706815 C265.072844,209.617629 311.145224,200.631336 357.326586,192.434315 C374.768337,189.334282 386.842697,203.10851 381.797713,220.962229 C379.445506,229.244834 376.18057,237.275441 373.024616,245.282276 C355.351277,290.0188 337.500841,334.66974 313.529218,376.272947 C310.005448,382.382676 306.73143,388.654062 303.34843,394.849374 C303.666295,395.234501 303.975079,395.619628 304.288404,396 C317.175593,388.097768 330.312533,380.60919 342.895478,372.20772 C391.669717,339.624087 432.465524,297.707072 469.283467,251.434796 C489.136458,226.49189 508.140293,200.797749 527.148668,175.132135 C536.807248,162.104388 548.291286,152.419161 563.807679,148.453781 C579.923476,144.336252 596.084682,140.32808 612.132365,135.915763 C667.736178,120.629556 723.308204,105.200709 778.857526,89.7433342 C782.780898,88.6497642 786.527174,86.8620149 791,85.1455854 C789.383425,82.6826755 788.334468,80.98051 787.190151,79.3544189"/>
    <path d="M293.719038,56.8945447 C305.732281,54.8187618 317.695124,52.4614593 329.665167,50.1652093 C332.501977,49.6225209 335.324387,48.9577277 339,48.1674378 C337.433994,47.2007742 336.713992,46.7089629 335.950789,46.295163 C315.610716,35.2277126 295.313844,24.1059933 274.901771,13.1640396 C268.666549,9.81633086 262.298126,6.55680899 255.670502,3.99260656 C246.868471,0.590629006 237.584038,-0.749132844 227,0.407471689 C247.757674,19.3201605 267.716145,37.5816233 287.851017,55.6768878 C289.118222,56.8097497 291.868632,57.2133741 293.719038,56.8945447"/>
  </g>
</svg>
