<svg xmlns="http://www.w3.org/2000/svg" xmlns:xlink="http://www.w3.org/1999/xlink" width="121" height="35" viewBox="0 0 121 35">
  <defs>
    <polygon id="lalostyles-logo-a" points=".1 .063 14.232 .063 14.232 27.802 .1 27.802"/>
    <polygon id="lalostyles-logo-c" points=".087 .032 40.786 .032 40.786 34 .087 34"/>
    <polygon id="lalostyles-logo-e" points=".088 .078 9.443 .078 9.443 16.889 .088 16.889"/>
  </defs>
  <g fill="none" fill-rule="evenodd" transform="translate(.68 .32)">
    <path fill="#EF9C00" d="M3.82246885,26.3315711 C2.92135627,26.24505 2.25523972,25.8273102 1.82301489,25.0770741 C1.68354122,24.846661 1.59884105,24.6086992 1.56979784,24.3633046 C1.54009204,24.1186068 1.53004287,23.8949296 1.53976075,23.6928537 C1.57068128,23.4623245 1.63627698,23.2602485 1.73798343,23.0872064 C2.16943525,23.2319114 2.64130462,23.4264386 3.15359154,23.6712524 C3.66543673,23.9165309 4.14746571,24.1544928 4.59978888,24.3849058 C4.95957133,24.5870979 5.30179533,24.7743086 5.62679219,24.9472345 C5.95112646,25.1202766 6.27612331,25.2934348 6.60112016,25.4663607 C5.64965129,26.1301919 4.72280842,26.417976 3.82246885,26.3315711 M27.1722172,29.0566934 C27.1729902,28.9411384 27.1213088,28.8404489 27.0157373,28.7539278 C26.9101657,28.6674068 26.7927782,28.6525414 26.6646788,28.7106092 C25.8300454,29.0276595 24.8149686,29.1500664 23.6197797,29.0782946 C22.4238178,29.0060583 21.1350943,28.811415 19.7543822,28.4943647 C18.3728971,28.1767338 16.9431539,27.7731625 15.46449,27.2831863 C13.9856052,26.7925133 12.5708806,26.2740839 11.2209786,25.7259238 C11.6914124,25.5528817 12.2210369,24.9689519 12.8109564,23.974018 C13.4002133,22.9790841 13.9777647,21.7537372 14.5442729,20.2971643 C15.1102291,18.8412882 15.6388597,17.2549917 16.1296127,15.5388557 C16.6204761,13.8234165 17.0182466,12.1364304 17.324139,10.4777815 C17.6294792,8.81982943 17.8163275,7.29160081 17.8850153,5.89251501 C17.9532613,4.49412601 17.8387449,3.40523845 17.5422391,2.62654912 C17.3009486,1.96353087 16.9120125,1.48772323 16.3754309,1.19912622 C15.8390701,0.911226018 15.165886,0.738183945 14.3573142,0.68 C14.2721723,0.68 14.1904537,0.694865359 14.1119377,0.723318586 C13.9266354,0.781386396 13.8499966,0.939563109 13.8831257,1.19912622 C13.8816902,1.31468116 13.916034,1.4012022 13.98682,1.45868933 C14.0570537,1.51675714 14.1254102,1.56681159 14.1928832,1.61001404 C14.2595832,1.65333263 14.3248476,1.68979921 14.3887868,1.7181363 C14.4521739,1.74717021 14.4943584,1.80477347 14.5146776,1.89117837 C14.5661382,2.35281746 14.5817089,3.08075552 14.5601749,4.07568938 C14.5388618,5.07062323 14.4531678,6.21688179 14.3046388,7.51469734 C14.1554473,8.81239675 13.9269666,10.2256511 13.6196387,11.7538797 C13.311869,13.282689 12.9086873,14.7967491 12.4094312,16.2958277 C11.910396,17.7957192 11.2928688,19.2448594 10.5569602,20.6432484 C9.82127246,22.0422181 8.93981651,23.27523 7.9128132,24.3417034 C7.18441387,24.0247693 6.52735261,23.7360561 5.94096685,23.4766091 C5.35402894,23.217046 4.85245378,22.9865168 4.4360205,22.7844408 C3.92715693,22.5540278 3.49272349,22.3376671 3.13294104,22.1355911 C2.58862929,21.876028 2.13928774,21.7463045 1.78447466,21.7463045 C1.428999,21.7463045 1.15170811,21.8044885 0.951828968,21.9193466 C0.69474685,22.0349016 0.511874004,22.2221122 0.402547845,22.4816753 C0.191515231,22.9141643 0.0647410593,23.3400337 0.0212314569,23.7577735 C-0.0227198674,24.176094 0.00168526496,24.5795491 0.0933425492,24.9689519 C0.184999833,25.3582384 0.329884601,25.7333565 0.528438573,26.0936092 C0.726661254,26.4545587 0.933939233,26.7925133 1.15126638,27.1101443 C1.66852267,27.8596836 2.34270065,28.5518518 3.17368988,29.186533 C3.97607763,29.8205174 4.99667597,29.9934433 6.23570576,29.7056592 C7.47385211,29.4169461 8.74026866,28.5808857 10.0334094,27.1966653 C13.3384827,28.811415 16.0228264,29.9577897 18.0856674,30.6356733 C20.1476251,31.3128601 21.7641062,31.723864 22.9345586,31.8684529 C24.3099701,32.0414949 25.3015252,31.9691424 25.9085614,31.6520922 C26.5517085,31.2479402 26.9346813,30.7937338 27.0577008,30.2895891 C27.1798369,29.7846314 27.2181563,29.3737436 27.1722172,29.0566934"/>
    <path fill="#000" d="M46.6448757,18.4827399 C46.1413927,18.3963377 45.6708056,18.1445535 45.2316793,17.7266915 C44.7926634,17.3096413 44.4544323,16.8993177 44.2176485,16.4956048 C44.0157475,16.1218137 43.8656189,15.6965292 43.768256,15.221259 C43.6702308,14.7461048 43.620004,14.2925221 43.618017,13.860627 C43.6153676,13.4286159 43.670562,13.0614354 43.7842624,12.7589697 C43.8974108,12.4566199 44.0640978,12.2912379 44.2847649,12.2622439 C44.4763997,12.2339457 44.7288587,12.3702177 45.0415899,12.6725675 C45.3537692,12.9750332 45.6389033,13.4002017 45.8955571,13.9470292 C46.1523212,14.4943206 46.3648195,15.1565443 46.5341558,15.9340483 C46.7027194,16.7116683 46.7399204,17.5614255 46.6448757,18.4827399 M45.5820531,21.7441048 C45.2953736,22.3347713 45.003837,22.8456462 44.7083264,23.2777732 C44.4121534,23.7096684 44.1316557,24.0552773 43.8666124,24.3143679 C43.6010171,24.5736906 43.3901747,24.73223 43.2333123,24.7896382 C43.083294,24.8760404 42.8849255,24.8476262 42.6379859,24.7032359 C42.3911567,24.5594255 42.1630936,24.3143679 41.953907,23.968875 C41.7447204,23.6232662 41.5987865,23.1845284 41.5156638,22.6512702 C41.4327619,22.1188237 41.4734953,21.4781715 41.6376433,20.7289657 C41.8088562,20.0094498 41.9997183,19.4047502 42.2110023,18.914751 C42.4217344,18.4253317 42.6322457,18.0224306 42.8416531,17.7052359 C43.163657,18.1087169 43.4847778,18.4179092 43.8057882,18.6339728 C44.1262466,18.8499204 44.4169001,19.0301473 44.6783006,19.1739577 C44.995889,19.318348 45.2930554,19.4330484 45.5689168,19.5194506 C45.6957535,19.5774387 45.8179538,19.6132753 45.9350762,19.6274244 C46.0516467,19.6422693 46.1706458,19.6639569 46.2910799,19.692255 C46.1049645,20.469875 45.8689534,21.1542502 45.5820531,21.7441048 M24.8766615,16.1068528 C24.5595147,17.1726735 24.307718,18.151976 24.1208299,19.0442964 C24.0318566,19.3899052 23.9000525,19.886631 23.7266318,20.5345897 C23.5525488,21.1825484 23.3612451,21.816358 23.1523897,22.4353226 C22.9430926,23.0549831 22.7211009,23.5875455 22.4856418,24.0335897 C22.2501826,24.4804458 22.0257624,24.6749378 21.813816,24.6168337 C21.5312209,24.5020173 21.2963137,24.2280817 21.1093152,23.7959546 C20.9639333,23.4221635 20.854538,22.8673337 20.7813503,22.1329728 C20.7075003,21.3986119 20.7703114,20.3693237 20.9692319,19.0442964 C21.1448604,17.8637753 21.3989752,16.8917793 21.7301414,16.1284244 C22.0615283,15.3657653 22.4132268,14.8109354 22.7863407,14.4653266 C23.1586818,14.1197177 23.5227438,13.9760232 23.8769812,14.0333155 C24.231329,14.0914195 24.5333526,14.3506262 24.7841557,14.8109354 C24.8393501,14.9263317 24.8811874,15.0418439 24.9082327,15.1565443 C24.9692776,15.415751 24.9589011,15.7329457 24.8766615,16.1068528 M51.6434978,18.0074697 C51.6082838,17.9791715 51.5453622,17.8927693 51.4547331,17.748379 C51.3989868,17.6336786 51.316416,17.554003 51.2071312,17.5107439 C51.0970736,17.4676008 51.0069964,17.4750233 50.9353541,17.5324315 C50.6204151,17.763224 50.2884762,17.9501775 49.9390959,18.0938719 C49.589826,18.2384942 49.2262056,18.3531946 48.8493385,18.4395968 C48.8033064,17.4027701 48.6489829,16.4457351 48.3853747,15.5668679 C48.1212145,14.6888126 47.7856327,13.9253417 47.3774153,13.277383 C46.9691978,12.6294243 46.5008184,12.1185495 45.9727188,11.7439465 C45.4440672,11.3699235 44.8926755,11.168125 44.3182126,11.139131 C43.3391751,11.0817228 42.5906291,11.3983377 42.0720229,12.0894394 C41.5535271,12.7806572 41.362665,13.6594084 41.5004301,14.7245332 C41.4297814,14.667125 41.3803272,14.638131 41.3523989,14.638131 C40.8723183,14.4079184 40.4812111,14.4370284 40.180181,14.7245332 C39.6074844,15.1855384 39.1659295,15.7829314 38.8565099,16.5172923 C38.5477526,17.2484059 38.3432023,18.001091 38.2425278,18.7751157 C37.8884008,19.692371 37.5401244,20.5102347 37.197809,21.2258075 C36.7219232,22.219375 36.2630373,22.98273 35.8208201,23.5152924 C35.3782717,24.0484347 34.9743593,24.3509004 34.6078688,24.4224577 C34.241599,24.4947108 33.9435495,24.2860698 33.7150448,23.7959546 C33.5899744,23.5085658 33.5406306,23.1772219 33.5661304,22.802503 C33.5887601,22.6588086 33.613708,22.4934266 33.6406428,22.3057773 C33.6671361,22.1188237 33.6885515,21.9385968 33.7051098,21.7657924 C33.7495965,21.5929879 33.7906611,21.4060344 33.8283036,21.2042359 C34.2540729,18.554993 34.7998348,16.1716835 35.4656995,14.055003 C36.1306812,11.9382066 36.7914681,10.1024203 37.4471771,8.54729631 C38.1028861,6.9921723 38.7126734,5.72524899 39.2770909,4.74583053 C39.8409565,3.76710792 40.2497259,3.09015521 40.5021849,2.71555229 C40.6395085,2.45634563 40.5964569,2.21209989 40.3718159,1.9811914 C39.9437284,1.49188808 39.4823035,1.16042829 38.9877621,0.987623845 C38.4925583,0.814819403 38.0855551,0.714268093 37.766642,0.685274059 C37.5044688,0.656859906 37.3118405,0.743262127 37.1888675,0.944364746 C35.9942407,3.1043043 35.0097941,5.19268658 34.2355276,7.20811987 C33.46093,9.22424901 32.8407661,11.1108328 32.3748154,12.8670594 C31.908423,14.6239819 31.5651141,16.2081 31.3437847,17.6188337 C31.2854995,17.9905372 31.2332856,18.3451922 31.18626,18.6850023 C30.7970294,19.706984 30.4137597,20.6057991 30.0365615,21.3769244 C29.557364,22.3563428 29.0983677,23.1196978 28.6595726,23.6664093 C28.2202254,24.2138166 27.8164235,24.5161664 27.4466213,24.5736906 C27.0769295,24.6316787 26.7772241,24.4156151 26.548609,23.9257319 C26.3956103,23.6381111 26.349799,23.2345141 26.4127205,22.7161008 C26.4748694,22.1976875 26.600271,21.6145595 26.7883733,20.9666008 C26.9763653,20.3186421 27.1984674,19.6349628 27.4546797,18.914751 C27.7110023,18.1952351 27.9774807,17.5182824 28.2540044,16.8844728 C28.5306385,16.2513591 28.7865196,15.6823801 29.0230826,15.1781159 C29.2590937,14.6745475 29.4459818,14.2925221 29.5838573,14.0333155 C29.6931422,13.7741088 29.6069286,13.5298631 29.3255477,13.2989546 C28.9035316,12.9534617 28.4461912,12.7016775 27.9549614,12.5430221 C27.46329,12.3850626 27.0831112,12.2770888 26.8139835,12.2191008 C26.5449662,12.1616926 26.3734221,12.2191008 26.3010071,12.3917892 C26.1699757,12.6801059 26.0389443,12.9683066 25.9083545,13.2558114 C25.7773231,13.5440121 25.6496033,13.8463619 25.5258575,14.1629768 C25.4851241,13.9901723 25.4107221,13.7957963 25.3033139,13.5798488 C25.1951329,13.3637852 25.0625561,13.1626826 24.9052522,12.9750332 C24.7473963,12.7880797 24.5576381,12.6152752 24.3359775,12.4566199 C24.113765,12.2986604 23.857332,12.2049517 23.5670097,12.1758417 C23.2196164,12.1475435 22.7809316,12.1832641 22.2509554,12.2838154 C21.7211999,12.3850626 21.1825029,12.6294243 20.635306,13.0181763 C20.0881091,13.4069283 19.5653082,13.9618742 19.0681174,14.6813901 C18.5703746,15.4014859 18.1767284,16.3519104 17.8872892,17.5324315 C17.5979604,18.7135324 17.6033694,19.8799044 17.9025229,21.0314315 C18.2026698,22.1835384 18.6457701,23.191371 19.2325966,24.0552773 C19.8195334,24.9191835 20.4603399,25.5604156 21.1549057,25.9775817 C21.8493612,26.3947479 22.4290124,26.4453135 22.89408,26.1288146 C23.2370578,25.898486 23.5187698,25.5887137 23.7398784,25.1999617 C23.9604351,24.8112097 24.1584725,24.3866211 24.3339905,23.9257319 C24.3823408,24.0121341 24.4487948,24.1132653 24.5330214,24.2280817 C24.5746379,24.2860698 24.5994754,24.3293289 24.6062091,24.357627 C25.0540562,24.9340284 25.5352406,25.3803046 26.0503144,25.6968035 C26.5649466,26.0139982 27.0661114,26.243515 27.5546918,26.3879053 C27.8652153,26.5026057 28.134895,26.5317157 28.3629581,26.4743075 C28.5901381,26.4162035 28.7760327,26.3299172 28.9194276,26.2151008 C29.0906405,26.1004004 29.2416523,25.9560101 29.3712486,25.7830897 C29.925952,25.0055857 30.3834028,24.2355042 30.7431597,23.4721492 C30.8578535,23.2287153 30.9633852,22.992356 31.0646116,22.759012 C31.1207995,22.9662613 31.1853769,23.1549545 31.260662,23.3209164 C31.3926869,23.6381111 31.5595946,23.9257319 31.7623787,24.1848226 C32.0917787,24.6168337 32.4495485,24.9914366 32.8362402,25.3080515 C33.1461013,25.538844 33.4597157,25.7257975 33.7776352,25.869492 C34.0952236,26.0139982 34.4099418,26.1436595 34.7210172,26.2583599 C35.0315407,26.3730603 35.3013307,26.4020544 35.5293938,26.3447622 C35.7565738,26.2866581 35.9425788,26.2009517 36.085753,26.0855555 C36.2570763,25.9707391 36.4079777,25.8263488 36.5376844,25.6535444 C37.0923877,24.8760404 37.5480724,24.0984204 37.9045176,23.3209164 C38.0967043,22.9007348 38.2693523,22.5009651 38.4253315,22.1187077 C38.4938829,22.3584304 38.573694,22.5731022 38.6664205,22.7593599 C38.9996841,23.4504617 39.3982977,24.0269791 39.8614888,24.4871724 C40.3247903,24.9481775 40.7610465,25.3228964 41.1694848,25.6104013 C41.6415069,25.927596 42.1284316,26.1868027 42.6303691,26.3879053 C43.2740457,26.5890079 43.9274366,26.5607097 44.5904312,26.3015031 C45.2533155,26.0424124 45.8755767,25.6104013 46.4569941,25.0055857 C47.0385219,24.4007702 47.5344984,23.6449537 47.945586,22.7376724 C48.3560113,21.830507 48.6174118,20.8302129 48.728794,19.7355141 C49.5249174,19.6208137 50.15325,19.4263218 50.6143437,19.1522701 C51.0749959,18.8789144 51.3625585,18.6845384 51.4776939,18.5691421 C51.5275896,18.540728 51.5560699,18.5117339 51.5639075,18.4827399 C51.5710828,18.4544417 51.5856541,18.4253317 51.6074007,18.3963377 C51.6662378,18.166241 51.6783806,18.0365797 51.6434978,18.0074697"/>
    <g transform="translate(49.624)">
      <mask id="lalostyles-logo-b" fill="#fff">
        <use xlink:href="#lalostyles-logo-a"/>
      </mask>
      <path fill="#EF9C00" d="M13.9780414,22.6372227 C13.6294867,23.9880427 13.1015176,25.050656 12.3943504,25.8242693 C11.6866426,26.597996 10.8756552,27.139616 9.96192907,27.4495827 C9.04733778,27.7588693 8.07088694,27.8643827 7.03268469,27.7661227 C5.99361728,27.6671827 4.97974789,27.4073093 3.99021138,26.9851427 C3.38827037,26.675176 2.83629284,26.2813427 2.3340625,25.8033027 C1.90731812,25.4094693 1.4938757,24.895616 1.09395154,24.2624227 C0.694027388,23.6292293 0.41511868,22.862756 0.258415028,21.961756 C0.238408006,21.877436 0.199475421,21.624136 0.141509129,21.2019693 C0.0835428371,20.7798027 0.0867872191,20.294396 0.152107444,19.7455227 C0.216670646,19.196876 0.363857444,18.6414293 0.592694522,18.0781627 C0.820882725,17.515576 1.2229698,17.0373093 1.79733357,16.6429093 C2.40738553,16.164756 3.0737816,15.9252827 3.79749508,15.9252827 C4.52045154,15.9252827 5.14932093,15.995776 5.68312992,16.1364227 C6.02227598,16.2775227 6.32941081,16.460216 6.60550772,16.6850693 C6.8810639,16.910716 7.10611587,17.1567627 7.28066362,17.4238893 C7.45477879,17.6915827 7.58769031,17.9588227 7.6787493,18.2259493 C7.76948385,18.4936427 7.81057935,18.7258627 7.80160323,18.922496 C7.75520857,19.316896 7.62521699,19.6189293 7.41097963,19.829956 C7.19620154,20.041096 6.98088272,20.2171027 6.76383357,20.3577493 C6.63762711,20.414416 6.50601334,20.414416 6.36737008,20.3577493 C6.22905126,20.3016493 6.1220948,20.1749427 6.04823104,19.9777427 C5.96701334,19.7528893 5.84242907,19.5206693 5.67501896,19.2813093 C5.50717626,19.0424027 5.26363132,18.8947293 4.94449228,18.8380627 C4.79838694,18.810296 4.6165934,18.7747093 4.3980302,18.732436 C4.17946699,18.690276 3.95820014,18.6975293 3.73541924,18.753516 C3.51220576,18.810296 3.29894171,18.9370027 3.09497823,19.1335227 C2.89123104,19.3307227 2.71397963,19.6401227 2.56333216,20.062176 C2.34779705,20.6815427 2.22169874,21.237556 2.18536166,21.7296493 C2.14859199,22.2223093 2.16092065,22.658416 2.22332093,23.038196 C2.28507233,23.4182027 2.39938272,23.7558227 2.56690098,24.051396 C2.73387851,24.346856 2.9101566,24.5935827 3.09605969,24.7901027 C3.54951615,25.2967027 4.1503757,25.662656 4.89917907,25.887736 C5.93229846,26.1409227 6.82482795,26.0915093 7.57622683,25.7399493 C8.3276257,25.388276 8.9628757,24.958856 9.48338272,24.4524827 C10.0668308,23.8614493 10.561599,23.129996 10.9675794,22.257216 C11.4734867,21.1037093 11.5929881,20.0199027 11.3262999,19.0069293 C11.0589628,17.9937293 10.6998097,17.1217427 10.249165,16.3896093 C9.91986025,15.9397893 9.54567486,15.5315627 9.12541924,15.1653827 C8.70537992,14.799996 8.36039396,14.5183627 8.09154284,14.3211627 L7.88476756,14.152296 C7.85664958,14.152296 7.83977879,14.1384693 7.83307374,14.110136 C6.7697816,13.3786827 6.02962992,12.5693693 5.61164537,11.682876 C5.19355267,10.7962693 4.95368469,9.98774933 4.89214958,9.255616 C4.79698104,8.383516 4.87257514,7.52478933 5.11839115,6.68056933 C5.32289537,5.78024933 5.61737711,4.879816 6.00302598,3.97892933 C6.38813413,3.078496 6.82407093,2.30488267 7.31126896,1.65718267 C7.79792626,1.01004933 8.33497963,0.545722667 8.92232093,0.264089333 C9.50922963,-0.016864 10.1038167,-0.00303733333 10.7055414,0.306249333 C11.1546721,0.559549333 11.5286412,0.876202667 11.826908,1.256096 C12.1253912,1.63598933 12.3775878,2.058156 12.5851201,2.52248267 C12.7918954,2.98680933 12.9483827,3.47232933 13.0542577,3.97892933 C13.1597001,4.485416 13.2278322,4.97818933 13.2572479,5.45634267 C13.3630147,6.61064267 13.332085,7.83486933 13.1652156,9.12890933 C13.0027802,9.97312933 12.7323069,10.5641627 12.3532549,10.901896 C11.9739867,11.2396293 11.5842282,11.4440827 11.1834389,11.5140093 C10.782974,11.584616 10.4178729,11.570676 10.0886763,11.471736 C9.75904705,11.373476 9.57054846,11.2817893 9.52328862,11.197356 C9.37188413,11.0284893 9.38713272,10.9164027 9.56860183,10.859736 C9.59596278,10.859736 9.62970435,10.8530493 9.66798806,10.8385427 C9.70637992,10.824716 9.73925632,10.8174627 9.76726615,10.8174627 L9.85064677,10.8174627 C9.94451756,10.508176 10.0600176,10.0860093 10.1982282,9.551076 C10.3361145,9.01682267 10.4692423,8.43236267 10.5980442,7.79916933 C10.7261973,7.165976 10.8236369,6.518956 10.8903631,5.857316 C10.9565485,5.19646933 10.9820709,4.598296 10.9671468,4.06324933 C10.9518982,3.528996 10.8806299,3.078496 10.7524768,2.71242933 C10.6243237,2.34704267 10.4037058,2.14984267 10.0912718,2.12150933 C9.83442486,2.09374267 9.59466503,2.22702267 9.37242486,2.52248267 C9.15007654,2.818056 8.93692065,3.212456 8.73371419,3.70454933 C8.52996699,4.19720933 8.33476334,4.75322267 8.14712992,5.37190933 C7.95960463,5.991276 7.7858139,6.61064267 7.62629846,7.22932933 C7.48603301,7.93312933 7.44028722,8.62230933 7.4890611,9.297776 C7.51058216,9.86104267 7.60629143,10.473156 7.77672963,11.1340027 C7.94673525,11.7956427 8.27236306,12.3793093 8.75382935,12.8859093 C8.8227184,12.942576 8.89128301,12.998676 8.96060463,13.054776 C9.02949368,13.1114427 9.12942065,13.1813693 9.26081812,13.265916 C9.26752317,13.2942493 9.27736447,13.308076 9.29163975,13.308076 C9.3053743,13.308076 9.31921699,13.3364093 9.33241081,13.3925093 C10.0297367,13.8713427 10.7170049,14.426676 11.3952971,15.0598693 C12.0729403,15.693176 12.6498996,16.3968627 13.1246608,17.1705893 C13.5997465,17.944996 13.9307816,18.789216 14.1194965,19.7033627 C14.3074544,20.6183027 14.2601945,21.5963693 13.9780414,22.6372227" mask="url(#lalostyles-logo-b)"/>
    </g>
    <g transform="translate(63.899 .68)">
      <mask id="lalostyles-logo-d" fill="#fff">
        <use xlink:href="#lalostyles-logo-c"/>
      </mask>
      <path fill="#000" d="M31.5841081,18.4855571 C31.6133348,18.3710673 31.6423434,18.2559993 31.6720063,18.1409313 C32.1046269,16.3897 32.5973367,15.0759585 33.1500268,14.1994755 C33.703044,13.3239177 34.1500598,12.9577816 34.4924921,13.1010673 C34.6460413,13.1590061 34.7724359,13.2808973 34.8724392,13.4672034 C34.9720063,13.6544347 34.9987247,13.9485231 34.9524855,14.3502782 C34.9085364,15.1256864 34.7582588,15.771802 34.500344,16.2887408 C34.2423202,16.8056796 33.9358761,17.2363463 33.581884,17.5809721 C33.2270195,17.9254823 32.8545972,18.1913531 32.4635264,18.3777748 C32.0721286,18.5650061 31.7220625,18.7156932 31.4122376,18.8300673 C31.4971913,18.7156932 31.5545542,18.6006252 31.5841081,18.4855571 M40.6499475,17.1286796 C40.6265007,17.0282986 40.5798252,16.9496592 40.5104663,16.8917204 C40.4336917,16.8056796 40.3395773,16.7625435 40.2277961,16.7625435 C40.1153605,16.7625435 40.044802,16.8204823 40.0155753,16.9348565 C39.2472839,18.571598 38.5121451,19.9285912 37.8103771,21.0053735 C37.1077366,22.0822714 36.5126243,22.8360537 36.0241675,23.2668361 L35.9820724,23.2668361 C35.9391048,23.3247748 35.8313586,23.4323259 35.6577432,23.5899517 C35.4844551,23.7480401 35.2721252,23.9203531 35.02119,24.1067748 C34.7703638,24.2938905 34.4981629,24.4514007 34.206114,24.5805776 C33.9135198,24.7097544 33.6413189,24.7744007 33.3888569,24.7744007 C33.2765304,24.7744007 33.1890684,24.7602918 33.1264709,24.7313803 C32.7361636,24.5018224 32.3920955,24.1714211 32.0956844,23.7406388 C31.840387,23.3677952 31.61388,22.8790741 31.4172541,22.2760946 C31.2198648,21.6729993 31.1685,20.9125095 31.2629415,19.9931218 C32.8319137,19.5050946 33.9882224,18.9022306 34.7324128,18.1840673 C35.4760578,17.4664823 36.0094451,16.7773463 36.3323566,16.1164279 C36.6839494,15.3411354 36.8294286,14.5225912 36.7690122,13.6611422 C36.7242997,13.2303599 36.623424,12.8575163 36.4655126,12.5412238 C36.3420625,12.2544211 36.16812,11.9885503 35.9429217,11.7443054 C35.7176143,11.5006388 35.4017915,11.3498361 34.9957802,11.2920129 C34.6802845,11.2636796 34.2539891,11.2994143 33.7166758,11.3996796 C33.1788173,11.5006388 32.6190387,11.7443054 32.0362495,12.1319517 C31.4536785,12.519598 30.8676176,13.0728497 30.2777399,13.790319 C29.6879712,14.5084823 29.1795575,15.4562034 28.7535892,16.633251 C28.6711438,16.9559041 28.6075648,17.2822578 28.5608893,17.611734 C28.1490981,18.7221694 27.7453771,19.6966048 27.349617,20.5315707 C26.8793724,21.5223122 26.4260314,22.2834959 25.9892667,22.8145435 C25.5519567,23.3461694 25.152925,23.6477748 24.7909719,23.7191286 C24.4291279,23.7911762 24.1346798,23.5831286 23.9088272,23.0945231 C23.7853771,22.8078361 23.7365205,22.4774347 23.7617122,22.1037816 C23.7841775,21.9604959 23.8087148,21.7955844 23.8354332,21.6084687 C23.8616064,21.4220469 23.8827631,21.2423327 23.8990122,21.0700197 C23.9430704,20.8977068 23.9836388,20.711285 24.0207174,20.5100605 C24.4414511,17.8683531 24.9805093,15.4918224 25.6383282,13.3811626 C26.2953837,11.2703871 26.948077,9.43982245 27.5959719,7.88912177 C28.2436487,6.33842109 28.8461768,5.07510136 29.4037743,4.09846871 C29.9608265,3.12252993 30.3646566,2.44750272 30.6140651,2.07396531 C30.7496203,1.81549592 30.707198,1.5719449 30.4851623,1.3416932 C30.0623566,0.853781633 29.6065073,0.523264626 29.1179415,0.350951701 C28.6286124,0.178638776 28.2266362,0.0783734694 27.9114676,0.0494619048 C27.6524623,0.0211285714 27.4621616,0.10740068 27.3407835,0.307815646 C26.1605919,2.46161156 25.1879316,4.54405374 24.4231299,6.55375442 C23.6577829,8.56414898 23.0451127,10.4453667 22.5849012,12.196598 C22.1241444,13.9485231 21.7849838,15.5281354 21.5663288,16.9348565 C21.508966,17.3038837 21.4576011,17.6560265 21.4112528,17.9934823 C21.0644584,18.9469857 20.715919,19.793285 20.3660711,20.5315707 C19.8958265,21.5223122 19.4424855,22.2834959 19.0057208,22.8145435 C18.5684108,23.3461694 18.169379,23.6477748 17.807426,23.7191286 C17.445582,23.7911762 17.1511338,23.5831286 16.9252812,23.0945231 C16.7607174,22.7498973 16.7276738,22.2477612 16.8258232,21.5868429 C16.8332389,21.5006864 16.841418,21.4145299 16.8495972,21.3284891 C16.8571219,21.2423327 16.8686818,21.1709789 16.8834042,21.1131558 C17.0093625,20.4528156 17.2104597,19.7205435 17.4856051,18.9163395 C17.7607505,18.112598 18.0492006,17.3373054 18.3520459,16.590115 C18.654346,15.843734 18.9443229,15.1619993 19.2207769,14.5441014 C19.4974491,13.9270129 19.713923,13.4747204 19.8717254,13.1873395 C19.9291973,13.0728497 19.9354134,12.9503803 19.8913553,12.8212034 C19.8467518,12.6919109 19.7729217,12.5842442 19.6686652,12.4980878 C19.2233942,12.1534619 18.7562032,11.8949925 18.2676375,11.7226796 C17.7783083,11.5504823 17.4011966,11.4359925 17.1353209,11.3781694 C16.9104498,11.3781694 16.7590816,11.450217 16.6806712,11.5935027 C16.272697,12.3687952 15.9144518,13.2088497 15.6070261,14.1134347 C15.2988371,15.0180197 15.046157,15.8868701 14.8480043,16.7195231 C14.6521418,17.3223871 14.4106943,18.0621762 14.1246434,18.937734 C13.8381563,19.8141014 13.5259323,20.6392374 13.1881894,21.4145299 C12.8499012,22.1899381 12.513576,22.8219449 12.1792138,23.3099721 C11.8441973,23.7984619 11.5581464,23.9560878 11.3220426,23.7836592 C11.1448285,23.2668361 11.0661999,22.7498973 11.086266,22.2329585 C11.1056778,21.7161354 11.1462462,21.2282238 11.2072079,20.7684143 C11.3754795,19.4479653 11.7220558,18.1699585 12.2475912,16.9348565 C12.7726904,15.7004483 13.3879779,14.5515027 14.0937809,13.4888293 C14.2644518,13.2592714 14.2246467,13.0298293 13.9750202,12.7995776 C13.2035661,12.1393531 12.3606811,11.6514415 11.4452746,11.3350333 C11.2285826,11.2488769 11.0670724,11.2779041 10.9605258,11.4211898 C10.0915767,12.6272646 9.43757469,13.9989449 8.9966659,15.5348429 C8.78673529,16.2668837 8.63362227,17.0106048 8.53405519,17.7653122 C8.16032419,18.8117952 7.78473926,19.7354619 7.40740945,20.5315707 C6.93727396,21.5223122 6.48382386,22.2834959 6.04705915,22.8145435 C5.60974917,23.3461694 5.21071745,23.6477748 4.84876438,23.7191286 C4.4868113,23.7911762 4.19247224,23.5831286 3.96661963,23.0945231 C3.82888334,22.8649653 3.77937244,22.5345639 3.81950463,22.1037816 C3.84186087,21.9604959 3.86650727,21.7955844 3.89322571,21.6084687 C3.91928982,21.4220469 3.94055552,21.2423327 3.95680469,21.0700197 C4.0007538,20.8977068 4.04132221,20.711285 4.07850991,20.5100605 C4.49411798,17.7249517 5.04615367,15.2548633 5.73592564,13.1010673 C6.42504329,10.9473871 7.11808691,9.08108776 7.81560178,7.50147551 C10.5239792,7.32904694 12.6284108,7.30082925 14.127697,7.4152034 C15.6270922,7.53038707 16.3968014,7.97527823 16.437806,8.75057075 C16.4579812,8.83672721 16.4886256,8.90865918 16.5302845,8.96601973 C16.6129481,9.08108776 16.7242931,9.13821701 16.8649739,9.13821701 C16.92081,9.13821701 17.0270294,9.05206054 17.183305,8.87974762 C17.3389263,8.70755034 17.4892039,8.47799252 17.6323929,8.19061156 C17.7759091,7.90392449 17.8898714,7.58080884 17.9741709,7.22138027 C18.0587974,6.86264558 18.0712297,6.49650952 18.0123401,6.12297211 C17.9192072,5.60614898 17.5039263,5.26892449 16.7661702,5.11072041 C16.0279779,4.9532102 15.1642634,4.88867959 14.175463,4.91689728 C13.1863354,4.94580884 12.1877201,5.02456395 11.1803804,5.15385646 C10.1726044,5.28303333 9.36668903,5.37659116 8.76339755,5.43383605 C9.20735988,4.57227143 9.5882885,3.86150952 9.90661963,3.30166599 C10.2241874,2.74159116 10.4653077,2.33243469 10.6297624,2.07396531 C10.821808,1.81549592 10.7926904,1.5719449 10.5429547,1.3416932 C10.120149,0.853781633 9.65764739,0.523264626 9.15468638,0.350951701 C8.65161633,0.178638776 8.24233344,0.0783734694 7.9271649,0.0494619048 C7.68909815,-0.0077829932 7.51319266,0.0783734694 7.39857601,0.307815646 C6.88340086,1.22731905 6.42144448,2.13178844 6.01248876,3.02157075 C5.60309683,3.91204694 5.21835129,4.78772041 4.85879742,5.64916939 C3.75014574,5.70699252 2.8244881,5.70699252 2.08193358,5.64916939 C1.33883377,5.59192449 0.941219762,5.44863878 0.887455717,5.21838707 C0.87404197,5.16125782 0.846342036,5.10401293 0.805228354,5.0461898 C0.763569399,4.9889449 0.665965301,4.9317 0.512416061,4.87387687 C0.400089557,4.87387687 0.301176801,4.9317 0.216114012,5.0461898 C0.193103437,5.19016939 0.161477528,5.38399252 0.120472902,5.62765918 C0.0788139458,5.87201973 0.0760875744,6.13048912 0.112075677,6.4029517 C0.147627561,6.67622381 0.241087574,6.92729184 0.393219101,7.15684966 C0.545023463,7.38698571 0.802720093,7.55929864 1.16609088,7.67367279 C1.34788533,7.73161156 1.69119002,7.75982925 2.19600496,7.75982925 C2.70081989,7.75982925 3.32864871,7.74572041 4.0792733,7.71680884 C3.06746233,10.4735844 2.35762426,12.9577816 1.94812327,15.1687068 C1.53873133,17.3803259 1.29226735,19.1464755 1.20742267,20.4669245 C1.17470621,20.9266184 1.19335459,21.3357748 1.26271348,21.6946252 C1.3327267,22.0539381 1.4257505,22.362251 1.54189392,22.6207204 C1.67232353,22.9370129 1.83721447,23.2238156 2.03754825,23.4821694 C2.20374785,23.7123054 2.37845373,23.9203531 2.56210212,24.1067748 C2.74640482,24.2938905 2.92492763,24.4586864 3.09843391,24.6022034 C3.40465995,24.8323395 3.71437574,25.0187612 4.02856279,25.1620469 C4.34220456,25.3062578 4.65311996,25.4354347 4.9605456,25.5498088 C5.26731692,25.664183 5.53373794,25.6930946 5.75893622,25.6359653 C5.98348017,25.5780265 6.16734666,25.4925639 6.30868176,25.3774959 C6.4779349,25.2630061 6.62712194,25.1190265 6.75515235,24.9467136 C7.30326206,24.1714211 7.75333146,23.3960129 8.1054696,22.6207204 C8.24865863,22.3050061 8.37897918,22.0028224 8.5016659,21.7085027 C8.55935592,22.1081762 8.64605453,22.5125912 8.76481527,22.9222102 C8.77833807,22.9800333 8.80614706,23.0372782 8.84715169,23.0945231 C9.05119332,23.7265299 9.336808,24.2292442 9.70388665,24.6022034 C9.93257469,24.8605571 10.2126276,25.0692986 10.5439362,25.2266932 C10.8753539,25.3848973 11.269042,25.420632 11.7260909,25.3344755 C12.0770294,25.2772306 12.4165172,25.0476728 12.7432455,24.6452238 C13.070192,24.2433531 13.3909223,23.7554415 13.7057637,23.1806796 C13.3580968,24.8175367 12.964736,26.2241422 12.5243724,27.402115 C12.0838999,28.5791626 11.6352482,29.5409925 11.1786355,30.2880673 C10.7216956,31.0344483 10.2877664,31.608632 9.8767386,32.0109653 C9.46571084,32.4128361 9.14399901,32.6571966 8.91182122,32.7432374 C8.81334468,32.8004823 8.77201289,32.8940401 8.78782584,33.0233327 C8.80407502,33.1525095 8.86067449,33.2453735 8.95827859,33.3033122 C9.13243919,33.446598 9.32044977,33.561666 9.52263748,33.6478224 C9.72547951,33.7339789 9.90312987,33.8054483 10.0567882,33.8632714 C10.2384736,33.9205163 10.4166692,33.9635367 10.5918113,33.9924483 C11.3066659,34.0496932 11.9597954,33.7838224 12.5515271,33.1955299 C13.1430406,32.6066592 13.6668311,31.8453599 14.1222442,30.9126728 C14.5775482,29.9791762 14.9772343,28.9594075 15.3227201,27.8542918 C15.6674425,26.7484823 15.960691,25.6930946 16.2034471,24.6883599 C16.4813189,24.9184959 16.7668245,25.0906932 17.0604002,25.205183 C17.3535397,25.3203667 17.6400268,25.4354347 17.9192072,25.5498088 C18.2259785,25.664183 18.4923995,25.6930946 18.7177069,25.6359653 C18.9421418,25.5780265 19.1260083,25.4925639 19.2674524,25.3774959 C19.4365965,25.2630061 19.5857835,25.1190265 19.7138139,24.9467136 C20.2619237,24.1714211 20.7119931,23.3960129 21.0641312,22.6207204 C21.1459223,22.4403122 21.2236785,22.264183 21.2988173,22.0908293 C21.3524722,22.2852306 21.4134339,22.4633259 21.4842105,22.6207204 C21.6145311,22.9370129 21.7795311,23.2238156 21.9798648,23.4821694 C22.3051755,23.9129517 22.6586223,24.2864891 23.0406414,24.6022034 C23.3468675,24.8323395 23.6566923,25.0187612 23.9707703,25.1620469 C24.2844121,25.3062578 24.5953275,25.4354347 24.9027531,25.5498088 C25.2095245,25.664183 25.4759455,25.6930946 25.7012528,25.6359653 C25.9256877,25.5780265 26.1095542,25.4925639 26.2509983,25.3774959 C26.4201424,25.2630061 26.5693295,25.1190265 26.6973599,24.9467136 C27.2454696,24.1714211 27.695539,23.3960129 28.0476771,22.6207204 C28.3019931,22.0597204 28.5232654,21.5336456 28.7129118,21.0404143 C28.7479184,21.1815027 28.7854332,21.321319 28.8279646,21.457666 C29.099075,22.3770537 29.4585198,23.1954823 29.9059719,23.9129517 C30.2777399,24.5449585 30.7750301,25.112319 31.397079,25.6144551 C32.0192369,26.1164755 32.7933083,26.3682374 33.7188569,26.3682374 C34.279617,26.3682374 34.8120228,26.2746796 35.31542,26.0882578 C35.8187082,25.9011422 36.3288668,25.5350061 36.8472046,24.9898497 L36.9432819,24.8605571 L36.975235,24.8175367 C37.607426,24.0422442 38.1506282,23.2742374 38.6040783,22.5129381 C39.0575284,21.7524483 39.4330043,21.0483939 39.7311603,20.4022782 C40.028771,19.7561626 40.2572409,19.2036048 40.4168972,18.7439109 C40.5760083,18.2850265 40.6776474,17.9686184 40.7215965,17.7963054 C40.7358827,17.7390605 40.75235,17.6885231 40.7705621,17.6455027 C40.7880109,17.6024823 40.7909554,17.5527544 40.7774326,17.4948156 C40.7157075,17.3514143 40.6735033,17.2296388 40.6499475,17.1286796" mask="url(#lalostyles-logo-d)"/>
    </g>
    <g transform="translate(110.124 10.2)">
      <mask id="lalostyles-logo-f" fill="#fff">
        <use xlink:href="#lalostyles-logo-e"/>
      </mask>
      <path fill="#000" d="M4.54582725,13.9018584 C4.50209504,14.1993013 4.41417743,14.4329658 4.28105478,14.6030799 C4.12572612,14.8016034 3.90174017,14.9575698 3.60921021,15.0705228 C3.29447425,15.2125698 3.01723923,15.2404087 2.77784504,15.1554087 C2.53833755,15.0705228 2.34664092,14.9716034 2.20207537,14.8579658 C1.85538998,14.6316034 1.66324017,14.3553819 1.6266456,14.0293013 C1.59050421,13.7040195 1.60715871,13.3852409 1.67581601,13.0730799 C1.76713249,12.733194 1.93141152,12.393194 2.16819991,12.053194 C2.32375515,11.855355 2.4818029,11.670751 2.64426919,11.500751 C2.80605571,11.330751 2.98279728,11.1608651 3.17449391,10.990751 C3.41762687,11.3879121 3.634022,11.7345295 3.8239059,12.0319725 C4.01311002,12.3295295 4.16503979,12.5918315 4.27935534,12.818194 C4.50005571,13.243194 4.58876639,13.6044154 4.54582725,13.9018584 M9.31547051,7.16609329 L9.15289092,7.03865034 C9.04458006,6.95365034 8.9030735,6.91120738 8.72814466,6.91120738 C7.10608755,7.30825436 5.69804635,7.80353624 4.50424766,8.39853624 L4.49382444,8.35609329 C4.08539279,7.76109329 3.78561189,7.19461678 3.59504822,6.65609329 C3.40414466,6.11825436 3.28971582,5.62228792 3.25130852,5.16876443 C3.21233474,4.7159255 3.22411751,4.31876443 3.28665684,3.97887852 C3.34862968,3.63887852 3.43133567,3.38387852 3.53579448,3.21387852 C3.70596489,2.95887852 3.93992088,2.90251611 4.23698268,3.04387852 C4.20933848,3.5260396 4.20118118,3.96484497 4.21115122,4.36132148 C4.22134785,4.75836846 4.30530009,5.04120738 4.46380103,5.21120738 C4.64416807,5.35336846 4.78476826,5.48081141 4.88571489,5.59376443 C4.98598174,5.70728792 5.09100702,5.80620738 5.19920459,5.89120738 C5.37266058,6.00473087 5.53263436,6.03325436 5.67912594,5.97620738 C5.82493773,5.91973087 5.92146582,5.80620738 5.96701077,5.63620738 C5.98570459,5.23984497 6.06455852,4.72984497 6.20289279,4.10632148 C6.34077388,3.48348255 6.62797893,2.87387852 7.06496114,2.27899262 C7.27943024,1.96751611 7.24294897,1.64154966 6.95574391,1.30154966 C6.76110159,1.10371074 6.54312032,0.897771141 6.3016868,0.685328188 C6.0595735,0.472885235 5.79072238,0.296267785 5.49354728,0.154106711 C5.2978853,0.0691067114 5.11955758,0.0551872483 4.95867743,0.111663758 C4.79791058,0.168710738 4.71237219,0.296267785 4.70296863,0.494106711 C4.59635721,0.891153691 4.48419429,1.44371074 4.36738624,2.15143557 C4.02002107,1.92507315 3.65271582,1.73385168 3.26467743,1.57777114 C2.87686564,1.42237517 2.48157631,1.41507315 2.07926264,1.55654966 C1.66856507,1.78359664 1.35178979,2.09507315 1.1289368,2.49143557 C0.891468633,2.83143557 0.726396536,3.28495906 0.632700843,3.85132148 C0.539231742,4.41836846 0.611401217,5.12620738 0.849095974,5.97620738 C0.981425562,6.51473087 1.19158942,7.10231477 1.47936096,7.73975772 C1.76724579,8.37720067 2.07869616,9.02194564 2.41371208,9.67330805 C1.61225702,10.3254691 1.02957631,11.005355 0.663970506,11.713194 C0.299384363,12.4217174 0.107461142,13.0944154 0.0893338015,13.7318584 C0.0712064607,14.3693013 0.223816011,14.9290463 0.545576311,15.4105228 C0.868242978,15.8918852 1.33422893,16.2458047 1.94330758,16.4728517 C2.97373361,16.8693282 3.81699485,16.9828517 4.47467743,16.8128517 C5.13224672,16.6428517 5.66281133,16.3732477 6.06829728,16.0054087 C6.51694897,15.5804087 6.88062875,15.0425698 7.15752388,14.3905228 C7.27059316,14.0226839 7.28804073,13.6190195 7.20941339,13.1794154 C7.13021957,12.740496 6.99358474,12.3015765 6.79814934,11.8619725 C6.60271395,11.423053 6.37227013,10.990751 6.10795084,10.5658651 C5.84295178,10.1408651 5.59959223,9.77302617 5.37741901,9.4608651 C6.18431227,8.9508651 6.93920272,8.55461678 7.64186376,8.27097919 C8.34407163,7.98814027 8.88188717,7.77569732 9.25542369,7.63365034 C9.35772987,7.57705973 9.41924953,7.49947584 9.43850983,7.39987181 C9.45777013,7.30095235 9.41687032,7.22325436 9.31547051,7.16609329" mask="url(#lalostyles-logo-f)"/>
    </g>
    <path fill="#EF9C00" d="M117.509448,6.67362245 C117.317573,6.4016765 117.07325,6.19197772 116.803358,6.00946212 C116.339079,5.69525661 115.856443,5.41554403 115.284971,5.44169927 C114.906904,5.45894574 114.527854,5.52119292 114.155906,5.59817384 C112.5135,5.93762088 110.874372,6.29408595 109.232512,6.63604571 C107.974838,6.89816918 106.713995,7.14430254 105.455994,7.40448435 C104.285079,7.64650598 103.116349,7.90029175 101.945761,8.14345552 C101.499074,8.23619811 101.05337,8.22888835 100.679237,7.92233524 C100.497743,7.77351308 100.351542,7.56632703 100.220421,7.36370959 C99.8151462,6.73758286 99.2829021,6.30539324 98.5674157,6.11282672 C98.5714586,6.14629172 98.570366,6.15702793 98.5740811,6.16536562 C98.9721441,7.02780322 99.2629061,7.9288455 99.4721542,8.86026897 C99.5524661,9.21799041 99.6331058,9.57651135 99.7342879,9.92795096 C99.8422446,10.3023478 99.917858,10.3511176 100.284889,10.342323 C101.475582,10.3131982 102.655238,10.1523835 103.830742,9.97306589 C104.945822,9.8027713 106.054454,9.58690491 107.165709,9.38999822 C107.585407,9.31553003 107.87595,9.64641094 107.754554,10.0752883 C107.697953,10.2742509 107.619389,10.4671601 107.543448,10.6594981 C107.118177,11.7341473 106.688645,12.8067405 106.11182,13.8061219 C106.027028,13.9528882 105.948246,14.1035378 105.866841,14.25236 C105.87449,14.2616114 105.88192,14.2708628 105.889459,14.28 C106.199562,14.0901746 106.515674,13.910286 106.818455,13.7084681 C107.992102,12.9257525 108.973765,11.9188329 109.85971,10.8072924 C110.337429,10.2081204 110.794715,9.59090244 111.252111,8.97436977 C111.484524,8.66142062 111.760862,8.42876463 112.134231,8.33350931 C112.522023,8.2345991 112.910907,8.13831584 113.29706,8.03232431 C114.635046,7.66512302 115.972267,7.29449529 117.308941,6.92318227 C117.403349,6.89691281 117.493495,6.85396797 117.601124,6.81273634 C117.562224,6.75357297 117.536983,6.71268399 117.509448,6.67362245"/>
    <path fill="#EF9C00" d="M105.625402,6.11748387 C105.917056,6.06795642 106.207486,6.01171201 106.498091,5.95692429 C106.566962,5.94397594 106.635484,5.9281142 106.724719,5.90925816 C106.6867,5.88619391 106.66922,5.87445946 106.650691,5.86458635 C106.156881,5.60052086 105.66412,5.33516054 105.168562,5.07408937 C105.017185,4.99421421 104.862575,4.91644316 104.701672,4.85526219 C104.487979,4.7740922 104.262574,4.74212595 104.005618,4.76972213 C104.509566,5.22097225 104.994112,5.65668434 105.48294,6.08843101 C105.513705,6.11546069 105.580478,6.12509103 105.625402,6.11748387"/>
  </g>
</svg>
