<?xml version="1.0" encoding="utf-8"?>
<!-- Generator: Adobe Illustrator 16.0.0, SVG Export Plug-In . SVG Version: 6.00 Build 0)  -->
<!DOCTYPE svg PUBLIC "-//W3C//DTD SVG 1.1//EN" "http://www.w3.org/Graphics/SVG/1.1/DTD/svg11.dtd">
<svg version="1.1" id="Layer_1" xmlns="http://www.w3.org/2000/svg" xmlns:xlink="http://www.w3.org/1999/xlink" x="0px" y="0px"
	 width="121px" height="35px" viewBox="0 0 121 35" enable-background="new 0 0 121 35" xml:space="preserve">
<g transform="translate(.68 .32)">
	<path fill="#EF9C00" d="M3.822,26.331c-0.901-0.087-1.567-0.504-2-1.255c-0.139-0.23-0.224-0.468-0.253-0.713
		c-0.03-0.245-0.04-0.469-0.03-0.671c0.031-0.23,0.097-0.433,0.198-0.605c0.432,0.145,0.903,0.339,1.416,0.584
		c0.512,0.245,0.994,0.483,1.446,0.714c0.36,0.202,0.702,0.389,1.027,0.562c0.325,0.173,0.649,0.346,0.975,0.52
		C5.65,26.13,4.723,26.418,3.822,26.331 M27.172,29.057c0.001-0.115-0.051-0.217-0.156-0.303c-0.105-0.087-0.223-0.102-0.351-0.043
		c-0.834,0.316-1.85,0.439-3.045,0.367c-1.196-0.072-2.485-0.268-3.865-0.584c-1.382-0.318-2.812-0.721-4.29-1.211
		c-1.479-0.491-2.894-1.01-4.244-1.558c0.471-0.173,1-0.757,1.59-1.752c0.589-0.995,1.167-2.22,1.733-3.677
		c0.566-1.456,1.095-3.042,1.585-4.758c0.491-1.715,0.889-3.402,1.194-5.061c0.306-1.658,0.492-3.186,0.561-4.585
		c0.068-1.398-0.046-2.487-0.343-3.266c-0.241-0.663-0.63-1.139-1.167-1.428c-0.537-0.288-1.21-0.461-2.019-0.519
		c-0.085,0-0.167,0.015-0.245,0.043c-0.186,0.058-0.262,0.216-0.229,0.476c-0.001,0.116,0.033,0.202,0.104,0.26
		c0.07,0.058,0.138,0.108,0.206,0.151c0.066,0.043,0.132,0.08,0.196,0.108c0.063,0.029,0.105,0.086,0.126,0.173
		c0.051,0.461,0.067,1.189,0.045,2.184c-0.021,0.995-0.107,2.141-0.255,3.439c-0.149,1.298-0.378,2.711-0.685,4.239
		c-0.308,1.529-0.711,3.043-1.21,4.542c-0.499,1.5-1.117,2.949-1.853,4.347c-0.735,1.399-1.617,2.633-2.644,3.699
		c-0.729-0.317-1.385-0.605-1.972-0.865c-0.587-0.26-1.089-0.49-1.505-0.692c-0.509-0.23-0.943-0.446-1.303-0.649
		c-0.544-0.26-0.994-0.389-1.349-0.389c-0.355,0-0.633,0.059-0.833,0.173c-0.257,0.116-0.44,0.303-0.549,0.562
		c-0.211,0.433-0.338,0.858-0.381,1.276c-0.044,0.418-0.02,0.821,0.072,1.211c0.092,0.389,0.236,0.764,0.435,1.125
		c0.198,0.36,0.405,0.698,0.623,1.016c0.518,0.75,1.191,1.442,2.022,2.076c0.803,0.635,1.823,0.808,3.062,0.52
		c1.238-0.289,2.505-1.125,3.798-2.509c3.305,1.614,5.989,2.761,8.052,3.438c2.062,0.678,3.679,1.089,4.849,1.233
		c1.375,0.173,2.367,0.101,2.974-0.216c0.644-0.404,1.026-0.859,1.149-1.363C27.18,29.784,27.218,29.373,27.172,29.057"/>
	<path fill="#FFFFFF" d="M46.645,18.483c-0.503-0.086-0.974-0.338-1.413-0.756c-0.439-0.417-0.777-0.828-1.014-1.231
		c-0.202-0.374-0.352-0.799-0.449-1.274c-0.098-0.476-0.148-0.929-0.15-1.361c-0.002-0.432,0.053-0.799,0.167-1.102
		c0.113-0.302,0.28-0.468,0.5-0.497c0.191-0.028,0.444,0.108,0.757,0.411c0.312,0.302,0.597,0.728,0.854,1.274
		c0.257,0.547,0.469,1.209,0.639,1.987C46.703,16.712,46.74,17.561,46.645,18.483 M45.582,21.744
		c-0.287,0.59-0.578,1.102-0.874,1.533s-0.577,0.777-0.842,1.037c-0.265,0.259-0.476,0.418-0.633,0.475
		c-0.15,0.086-0.348,0.059-0.595-0.086c-0.247-0.145-0.475-0.389-0.684-0.734c-0.209-0.346-0.355-0.785-0.438-1.318
		c-0.083-0.531-0.042-1.172,0.122-1.922c0.171-0.719,0.362-1.324,0.573-1.814c0.21-0.489,0.421-0.893,0.63-1.209
		c0.322,0.403,0.643,0.713,0.964,0.929c0.32,0.216,0.611,0.396,0.873,0.54c0.317,0.145,0.615,0.259,0.891,0.346
		c0.127,0.058,0.249,0.094,0.366,0.107c0.116,0.016,0.235,0.037,0.356,0.064C46.105,20.47,45.869,21.155,45.582,21.744
		 M24.877,16.107c-0.317,1.066-0.569,2.046-0.756,2.938c-0.089,0.346-0.221,0.843-0.394,1.49c-0.174,0.647-0.366,1.282-0.574,1.901
		c-0.209,0.619-0.432,1.152-0.667,1.598c-0.235,0.447-0.46,0.642-0.672,0.584c-0.282-0.115-0.518-0.389-0.704-0.822
		c-0.146-0.373-0.255-0.928-0.328-1.662c-0.074-0.734-0.011-1.764,0.188-3.089c0.175-1.181,0.43-2.152,0.761-2.916
		c0.332-0.763,0.683-1.317,1.056-1.663c0.373-0.345,0.736-0.489,1.091-0.432c0.354,0.058,0.656,0.317,0.907,0.777
		c0.055,0.116,0.097,0.231,0.124,0.346C24.969,15.416,24.959,15.733,24.877,16.107 M51.644,18.008
		c-0.036-0.029-0.098-0.115-0.189-0.26c-0.056-0.115-0.138-0.194-0.248-0.238c-0.11-0.043-0.2-0.036-0.272,0.022
		c-0.315,0.23-0.647,0.417-0.996,0.562s-0.713,0.26-1.09,0.346c-0.046-1.037-0.2-1.994-0.464-2.873
		c-0.264-0.878-0.6-1.641-1.008-2.29c-0.408-0.648-0.877-1.159-1.405-1.533c-0.529-0.374-1.08-0.576-1.655-0.605
		c-0.979-0.057-1.728,0.259-2.246,0.951c-0.519,0.691-0.709,1.57-0.571,2.635c-0.071-0.057-0.12-0.086-0.148-0.086
		c-0.48-0.23-0.871-0.201-1.172,0.086c-0.573,0.461-1.015,1.059-1.324,1.793c-0.309,0.731-0.513,1.484-0.614,2.258
		c-0.354,0.916-0.702,1.734-1.044,2.45c-0.476,0.993-0.935,1.757-1.377,2.29c-0.443,0.533-0.847,0.835-1.213,0.906
		c-0.367,0.072-0.665-0.137-0.893-0.627c-0.125-0.287-0.174-0.618-0.149-0.992c0.022-0.145,0.048-0.31,0.075-0.497
		c0.026-0.187,0.048-0.367,0.064-0.54c0.044-0.173,0.085-0.359,0.123-0.562c0.426-2.649,0.972-5.033,1.637-7.149
		c0.665-2.117,1.326-3.953,1.981-5.508c0.656-1.555,1.266-2.822,1.83-3.801c0.564-0.979,0.973-1.656,1.225-2.03
		c0.137-0.259,0.094-0.503-0.13-0.734c-0.428-0.489-0.89-0.821-1.384-0.994c-0.496-0.173-0.902-0.273-1.221-0.302
		c-0.262-0.028-0.455,0.058-0.578,0.259c-1.194,2.16-2.179,4.249-2.953,6.264c-0.774,2.016-1.395,3.902-1.861,5.659
		c-0.466,1.757-0.81,3.341-1.031,4.752c-0.059,0.372-0.111,0.726-0.158,1.066c-0.389,1.022-0.772,1.921-1.149,2.692
		c-0.479,0.979-0.938,1.742-1.377,2.289s-0.843,0.85-1.213,0.907c-0.37,0.058-0.669-0.157-0.898-0.647
		c-0.153-0.288-0.199-0.691-0.136-1.21c0.062-0.519,0.188-1.102,0.375-1.749c0.188-0.648,0.41-1.332,0.667-2.053
		c0.256-0.719,0.523-1.396,0.799-2.03c0.276-0.633,0.532-1.202,0.769-1.707c0.236-0.503,0.423-0.886,0.561-1.145
		c0.109-0.259,0.023-0.503-0.258-0.734c-0.422-0.346-0.879-0.598-1.371-0.756c-0.492-0.158-0.872-0.266-1.141-0.324
		c-0.269-0.057-0.441,0-0.513,0.173c-0.131,0.288-0.262,0.576-0.393,0.864c-0.131,0.288-0.259,0.591-0.382,0.907
		c-0.041-0.173-0.115-0.367-0.223-0.583c-0.108-0.216-0.241-0.417-0.398-0.605c-0.158-0.187-0.348-0.36-0.569-0.518
		c-0.222-0.158-0.479-0.252-0.769-0.281c-0.348-0.028-0.786,0.008-1.316,0.108c-0.53,0.101-1.069,0.345-1.616,0.734
		c-0.547,0.389-1.07,0.943-1.567,1.663c-0.498,0.72-0.891,1.67-1.181,2.851s-0.284,2.347,0.015,3.499
		c0.3,1.152,0.743,2.16,1.33,3.023c0.587,0.864,1.228,1.506,1.922,1.922c0.694,0.418,1.274,0.469,1.739,0.152
		c0.343-0.23,0.625-0.541,0.846-0.93c0.221-0.389,0.418-0.812,0.594-1.273c0.048,0.086,0.115,0.188,0.199,0.303
		c0.042,0.057,0.066,0.101,0.073,0.129c0.448,0.576,0.929,1.022,1.444,1.339c0.515,0.317,1.016,0.547,1.504,0.691
		c0.311,0.114,0.58,0.144,0.808,0.087c0.227-0.059,0.413-0.145,0.557-0.26c0.171-0.115,0.322-0.26,0.452-0.432
		c0.555-0.777,1.012-1.548,1.372-2.312c0.115-0.243,0.22-0.479,0.321-0.713c0.056,0.207,0.121,0.396,0.196,0.562
		c0.132,0.317,0.299,0.605,0.502,0.864c0.33,0.433,0.687,0.807,1.074,1.123c0.31,0.231,0.624,0.418,0.941,0.562
		c0.318,0.145,0.632,0.274,0.943,0.389c0.311,0.115,0.581,0.145,0.809,0.086c0.227-0.058,0.413-0.143,0.556-0.258
		c0.171-0.115,0.322-0.26,0.452-0.433c0.555-0.778,1.01-1.556,1.367-2.333c0.192-0.42,0.365-0.82,0.521-1.201
		c0.068,0.238,0.148,0.453,0.241,0.641c0.333,0.69,0.732,1.268,1.195,1.727c0.463,0.461,0.899,0.836,1.308,1.123
		c0.472,0.318,0.959,0.577,1.461,0.778c0.644,0.201,1.297,0.173,1.96-0.087c0.663-0.259,1.285-0.691,1.867-1.295
		c0.582-0.605,1.077-1.361,1.488-2.269c0.411-0.907,0.672-1.907,0.783-3.002c0.796-0.114,1.425-0.31,1.886-0.583
		c0.46-0.273,0.748-0.469,0.863-0.584c0.05-0.027,0.078-0.057,0.086-0.086c0.007-0.028,0.021-0.058,0.043-0.086
		C51.666,18.166,51.678,18.036,51.644,18.008"/>
	<g transform="translate(49.624)">
		<defs>
			<filter id="Adobe_OpacityMaskFilter" filterUnits="userSpaceOnUse" x="0.1" y="0.063" width="14.132" height="27.739">
				<feColorMatrix  type="matrix" values="1 0 0 0 0  0 1 0 0 0  0 0 1 0 0  0 0 0 1 0"/>
			</filter>
		</defs>
		<mask maskUnits="userSpaceOnUse" x="0.1" y="0.063" width="14.132" height="27.739" id="lalostyles-logo-b">
			<g filter="url(#Adobe_OpacityMaskFilter)">
				<polygon id="lalostyles-logo-a" fill="#FFFFFF" points="0.1,0.063 14.232,0.063 14.232,27.802 0.1,27.802 				"/>
			</g>
		</mask>
		<path mask="url(#lalostyles-logo-b)" fill="#EF9C00" d="M13.978,22.637c-0.349,1.352-0.876,2.414-1.584,3.188
			s-1.519,1.314-2.432,1.625c-0.915,0.31-1.891,0.415-2.929,0.316c-1.039-0.099-2.053-0.358-3.042-0.781
			c-0.602-0.31-1.154-0.703-1.656-1.182c-0.427-0.394-0.84-0.907-1.24-1.541c-0.4-0.633-0.679-1.399-0.835-2.301
			c-0.02-0.084-0.059-0.337-0.117-0.76c-0.058-0.422-0.055-0.907,0.011-1.456c0.064-0.548,0.212-1.104,0.44-1.667
			c0.229-0.563,0.63-1.041,1.205-1.436c0.61-0.478,1.276-0.718,2-0.718c0.723,0,1.352,0.071,1.886,0.211
			c0.339,0.141,0.646,0.324,0.922,0.548c0.275,0.226,0.5,0.472,0.675,0.739c0.174,0.268,0.307,0.536,0.398,0.802
			c0.091,0.268,0.132,0.5,0.123,0.696c-0.046,0.395-0.176,0.697-0.391,0.908c-0.215,0.211-0.43,0.387-0.647,0.527
			c-0.126,0.057-0.258,0.057-0.396,0c-0.138-0.057-0.245-0.183-0.319-0.38c-0.081-0.226-0.206-0.457-0.373-0.696
			c-0.168-0.239-0.411-0.387-0.73-0.443c-0.146-0.027-0.328-0.063-0.546-0.105c-0.219-0.043-0.44-0.035-0.663,0.021
			c-0.223,0.057-0.437,0.183-0.641,0.379c-0.204,0.197-0.381,0.507-0.532,0.93c-0.215,0.619-0.341,1.175-0.378,1.667
			c-0.037,0.493-0.024,0.929,0.038,1.309c0.062,0.38,0.176,0.718,0.344,1.013c0.167,0.296,0.343,0.543,0.529,0.738
			c0.454,0.508,1.055,0.873,1.803,1.098c1.033,0.254,1.926,0.205,2.677-0.146s1.387-0.781,1.907-1.288
			c0.583-0.591,1.078-1.322,1.484-2.195c0.506-1.153,0.625-2.237,0.359-3.25c-0.268-1.013-0.627-1.885-1.078-2.618
			c-0.33-0.45-0.704-0.858-1.124-1.224c-0.42-0.365-0.765-0.647-1.034-0.844l-0.207-0.169c-0.028,0-0.045-0.014-0.052-0.042
			c-1.063-0.731-1.804-1.541-2.222-2.427c-0.418-0.887-0.658-1.695-0.719-2.427C4.797,8.384,4.873,7.525,5.118,6.68
			c0.205-0.9,0.499-1.801,0.885-2.702c0.385-0.9,0.821-1.674,1.308-2.322C7.798,1.01,8.335,0.546,8.922,0.264
			c0.587-0.281,1.182-0.267,1.784,0.042c0.449,0.253,0.822,0.57,1.121,0.95s0.551,0.802,0.758,1.266
			c0.207,0.464,0.363,0.95,0.47,1.457c0.105,0.506,0.173,1,0.202,1.478c0.106,1.154,0.076,2.378-0.092,3.672
			c-0.162,0.844-0.433,1.436-0.812,1.773c-0.38,0.338-0.769,0.542-1.17,0.612c-0.4,0.071-0.766,0.057-1.095-0.042
			c-0.33-0.098-0.518-0.189-0.565-0.274c-0.151-0.169-0.136-0.281,0.045-0.338c0.027,0,0.061-0.007,0.1-0.021
			c0.038-0.014,0.071-0.021,0.099-0.021h0.083c0.094-0.31,0.209-0.732,0.348-1.267c0.138-0.534,0.271-1.119,0.399-1.752
			s0.225-1.28,0.292-1.942c0.066-0.661,0.092-1.259,0.077-1.794c-0.016-0.534-0.087-0.985-0.215-1.351
			c-0.128-0.365-0.349-0.562-0.661-0.591C9.834,2.094,9.594,2.227,9.372,2.522C9.15,2.818,8.937,3.213,8.734,3.704
			C8.53,4.197,8.335,4.753,8.147,5.372C7.96,5.991,7.786,6.611,7.626,7.229C7.486,7.933,7.44,8.622,7.489,9.298
			c0.021,0.563,0.117,1.175,0.288,1.836c0.17,0.662,0.496,1.245,0.977,1.752c0.069,0.057,0.138,0.113,0.207,0.169
			c0.069,0.057,0.169,0.126,0.3,0.211c0.006,0.028,0.017,0.042,0.031,0.042c0.014,0,0.027,0.028,0.041,0.084
			c0.697,0.479,1.385,1.034,2.063,1.667s1.255,1.337,1.729,2.111c0.476,0.775,0.806,1.619,0.995,2.533
			C14.307,20.618,14.26,21.596,13.978,22.637"/>
	</g>
	<g transform="translate(63.899 .68)">
		<defs>
			<filter id="Adobe_OpacityMaskFilter_1_" filterUnits="userSpaceOnUse" x="0.087" y="0.032" width="40.699" height="33.968">
				<feColorMatrix  type="matrix" values="1 0 0 0 0  0 1 0 0 0  0 0 1 0 0  0 0 0 1 0"/>
			</filter>
		</defs>
		<mask maskUnits="userSpaceOnUse" x="0.087" y="0.032" width="40.699" height="33.968" id="lalostyles-logo-d">
			<g filter="url(#Adobe_OpacityMaskFilter_1_)">
				<polygon id="lalostyles-logo-c" fill="#FFFFFF" points="0.087,0.032 40.786,0.032 40.786,34 0.087,34 				"/>
			</g>
		</mask>
		<path mask="url(#lalostyles-logo-d)" fill="#FFFFFF" d="M31.584,18.485c0.029-0.114,0.058-0.229,0.088-0.345
			c0.433-1.751,0.925-3.064,1.478-3.941c0.554-0.876,1-1.242,1.343-1.099c0.153,0.058,0.28,0.18,0.38,0.366
			c0.1,0.187,0.127,0.481,0.08,0.883c-0.044,0.775-0.193,1.422-0.451,1.938c-0.259,0.517-0.565,0.948-0.92,1.292
			c-0.354,0.345-0.727,0.61-1.117,0.797c-0.393,0.187-0.742,0.338-1.052,0.452C31.497,18.716,31.554,18.601,31.584,18.485
			 M40.65,17.129c-0.023-0.101-0.07-0.179-0.139-0.237c-0.077-0.086-0.172-0.129-0.283-0.129c-0.112,0-0.183,0.058-0.212,0.172
			c-0.769,1.637-1.503,2.994-2.206,4.071c-0.702,1.076-1.297,1.83-1.785,2.262h-0.043c-0.043,0.057-0.15,0.164-0.324,0.322
			c-0.173,0.158-0.385,0.33-0.637,0.518c-0.25,0.187-0.522,0.344-0.814,0.473c-0.293,0.13-0.564,0.194-0.817,0.194
			c-0.112,0-0.2-0.015-0.263-0.043c-0.391-0.229-0.734-0.56-1.03-0.991c-0.255-0.373-0.481-0.861-0.679-1.465
			c-0.197-0.603-0.248-1.363-0.154-2.282c1.569-0.488,2.726-1.091,3.47-1.81c0.743-0.717,1.276-1.406,1.6-2.067
			c0.353-0.775,0.497-1.594,0.437-2.455c-0.045-0.431-0.145-0.804-0.303-1.12c-0.124-0.287-0.298-0.552-0.523-0.797
			c-0.225-0.244-0.541-0.395-0.947-0.452c-0.314-0.028-0.741,0.007-1.278,0.108c-0.538,0.101-1.098,0.344-1.681,0.732
			c-0.582,0.388-1.168,0.941-1.758,1.659s-1.099,1.666-1.525,2.843c-0.082,0.323-0.146,0.649-0.192,0.978
			c-0.411,1.111-0.815,2.086-1.211,2.92c-0.47,0.991-0.924,1.752-1.36,2.283c-0.438,0.531-0.836,0.834-1.198,0.904
			c-0.362,0.072-0.656-0.136-0.882-0.624c-0.124-0.287-0.173-0.617-0.147-0.991c0.022-0.143,0.047-0.309,0.073-0.495
			s0.048-0.366,0.064-0.538c0.043-0.172,0.084-0.359,0.121-0.561c0.421-2.642,0.96-5.018,1.617-7.128
			c0.658-2.111,1.311-3.941,1.958-5.492s1.251-2.814,1.808-3.791c0.558-0.976,0.961-1.651,1.211-2.025
			c0.135-0.258,0.093-0.502-0.129-0.732c-0.424-0.488-0.879-0.818-1.367-0.991c-0.49-0.172-0.892-0.272-1.207-0.302
			c-0.259-0.028-0.449,0.058-0.57,0.258c-1.18,2.154-2.152,4.236-2.918,6.246c-0.766,2.01-1.378,3.892-1.838,5.643
			c-0.461,1.752-0.801,3.332-1.019,4.738c-0.058,0.369-0.108,0.721-0.155,1.059c-0.347,0.953-0.695,1.799-1.045,2.537
			c-0.471,0.991-0.924,1.752-1.361,2.283c-0.437,0.531-0.836,0.834-1.197,0.904c-0.362,0.072-0.656-0.136-0.883-0.624
			c-0.164-0.345-0.197-0.847-0.1-1.508c0.008-0.087,0.016-0.173,0.024-0.259c0.007-0.086,0.019-0.157,0.034-0.215
			c0.125-0.66,0.326-1.393,0.602-2.197c0.275-0.803,0.564-1.578,0.867-2.326c0.302-0.747,0.592-1.428,0.868-2.046
			c0.276-0.617,0.493-1.069,0.651-1.356c0.057-0.115,0.062-0.237,0.02-0.366c-0.045-0.129-0.119-0.237-0.223-0.323
			c-0.445-0.345-0.913-0.603-1.401-0.775c-0.489-0.172-0.866-0.287-1.132-0.344c-0.226,0-0.377,0.072-0.455,0.215
			c-0.408,0.775-0.766,1.616-1.074,2.52c-0.308,0.905-0.561,1.773-0.758,2.606c-0.197,0.603-0.438,1.343-0.725,2.218
			c-0.286,0.877-0.598,1.701-0.936,2.477c-0.339,0.775-0.675,1.408-1.01,1.896c-0.334,0.488-0.621,0.646-0.857,0.473
			c-0.177-0.516-0.256-1.033-0.235-1.551c0.02-0.516,0.06-1.004,0.121-1.464c0.169-1.321,0.515-2.599,1.04-3.833
			c0.525-1.234,1.141-2.384,1.847-3.446c0.171-0.229,0.131-0.459-0.118-0.689c-0.771-0.661-1.615-1.148-2.53-1.465
			c-0.217-0.086-0.378-0.057-0.485,0.086c-0.869,1.206-1.522,2.578-1.963,4.113c-0.211,0.732-0.363,1.476-0.463,2.231
			c-0.374,1.047-0.75,1.97-1.127,2.766c-0.471,0.991-0.924,1.752-1.36,2.283s-0.837,0.834-1.198,0.904
			c-0.361,0.072-0.656-0.136-0.883-0.624c-0.137-0.229-0.187-0.56-0.146-0.991c0.022-0.143,0.047-0.309,0.074-0.495
			c0.025-0.187,0.047-0.366,0.062-0.538c0.045-0.172,0.085-0.359,0.123-0.561c0.415-2.785,0.967-5.255,1.656-7.409
			s1.383-4.02,2.08-5.6c2.709-0.172,4.812-0.201,6.312-0.086c1.499,0.115,2.269,0.56,2.31,1.335
			c0.021,0.086,0.051,0.158,0.093,0.215c0.082,0.115,0.193,0.172,0.334,0.172c0.057,0,0.162-0.086,0.318-0.258
			s0.307-0.402,0.449-0.689c0.145-0.287,0.258-0.61,0.342-0.969c0.085-0.358,0.098-0.725,0.039-1.098
			c-0.094-0.517-0.509-0.854-1.246-1.012c-0.738-0.158-1.603-0.222-2.592-0.194c-0.988,0.029-1.987,0.107-2.994,0.237
			c-1.008,0.129-1.814,0.223-2.418,0.28c0.444-0.862,0.826-1.573,1.145-2.132c0.316-0.56,0.559-0.969,0.723-1.228
			c0.191-0.258,0.162-0.502-0.087-0.732C10.12,0.854,9.657,0.523,9.155,0.351C8.651,0.179,8.242,0.079,7.927,0.049
			C7.689-0.008,7.513,0.079,7.399,0.308C6.884,1.227,6.421,2.132,6.013,3.021c-0.41,0.891-0.795,1.766-1.154,2.627
			c-1.108,0.058-2.034,0.058-2.776,0c-0.743-0.057-1.142-0.2-1.194-0.431C0.874,5.161,0.847,5.104,0.806,5.046
			c-0.042-0.058-0.14-0.115-0.293-0.172c-0.113,0-0.211,0.058-0.297,0.172C0.193,5.19,0.161,5.384,0.12,5.627
			C0.079,5.872,0.076,6.13,0.112,6.403c0.035,0.273,0.129,0.524,0.281,0.754c0.151,0.23,0.409,0.402,0.772,0.517
			C1.348,7.731,1.691,7.76,2.196,7.76c0.504,0,1.133-0.014,1.883-0.043c-1.012,2.757-1.722,5.241-2.131,7.452
			c-0.41,2.212-0.656,3.978-0.74,5.298c-0.033,0.46-0.015,0.869,0.055,1.229c0.07,0.358,0.163,0.667,0.279,0.926
			c0.131,0.316,0.295,0.603,0.496,0.861c0.166,0.23,0.34,0.438,0.523,0.625c0.185,0.187,0.363,0.352,0.537,0.494
			c0.307,0.23,0.615,0.417,0.93,0.561c0.314,0.145,0.625,0.273,0.932,0.388s0.574,0.144,0.799,0.086s0.408-0.144,0.55-0.259
			c0.169-0.113,0.318-0.258,0.446-0.43c0.549-0.775,0.998-1.551,1.351-2.326c0.144-0.316,0.273-0.618,0.396-0.912
			c0.059,0.399,0.145,0.804,0.264,1.213c0.014,0.059,0.041,0.115,0.082,0.173c0.205,0.632,0.49,1.134,0.857,1.507
			c0.229,0.259,0.508,0.468,0.84,0.625c0.332,0.158,0.725,0.193,1.182,0.107c0.352-0.057,0.691-0.286,1.018-0.689
			c0.327-0.401,0.647-0.889,0.963-1.464c-0.348,1.637-0.741,3.044-1.182,4.222c-0.44,1.177-0.889,2.139-1.346,2.886
			s-0.891,1.321-1.303,1.723c-0.41,0.401-0.732,0.646-0.965,0.732c-0.098,0.058-0.139,0.151-0.123,0.28s0.072,0.223,0.17,0.279
			c0.174,0.145,0.362,0.259,0.564,0.346c0.203,0.086,0.381,0.157,0.534,0.215c0.182,0.057,0.36,0.1,0.535,0.129
			c0.715,0.058,1.368-0.209,1.96-0.797c0.592-0.589,1.115-1.35,1.57-2.283s0.855-1.953,1.201-3.058
			c0.344-1.106,0.637-2.161,0.88-3.166c0.278,0.229,0.563,0.402,0.856,0.517c0.294,0.115,0.58,0.23,0.859,0.345
			c0.307,0.114,0.573,0.144,0.799,0.086c0.225-0.058,0.408-0.144,0.55-0.259c0.169-0.113,0.317-0.258,0.446-0.43
			c0.548-0.775,0.998-1.551,1.35-2.326c0.082-0.181,0.16-0.357,0.235-0.53c0.054,0.194,0.114,0.372,0.185,0.53
			c0.131,0.316,0.296,0.603,0.496,0.861c0.326,0.431,0.68,0.805,1.061,1.119c0.307,0.23,0.617,0.417,0.931,0.561
			c0.313,0.145,0.624,0.273,0.933,0.388c0.307,0.114,0.572,0.144,0.798,0.086c0.225-0.058,0.408-0.144,0.55-0.259
			c0.169-0.113,0.318-0.258,0.446-0.43c0.548-0.775,0.998-1.551,1.351-2.326c0.254-0.562,0.475-1.088,0.665-1.58
			c0.035,0.141,0.072,0.28,0.114,0.416c0.271,0.92,0.631,1.738,1.078,2.456c0.373,0.632,0.869,1.199,1.492,1.701
			c0.621,0.503,1.396,0.754,2.321,0.754c0.561,0,1.093-0.093,1.597-0.28c0.504-0.187,1.014-0.553,1.531-1.098l0.097-0.13
			l0.032-0.043c0.632-0.774,1.175-1.543,1.629-2.304c0.453-0.762,0.828-1.465,1.127-2.111c0.297-0.646,0.525-1.199,0.686-1.658
			c0.158-0.459,0.261-0.775,0.305-0.947c0.014-0.058,0.031-0.108,0.049-0.151s0.021-0.093,0.007-0.151
			C40.716,17.352,40.673,17.229,40.65,17.129"/>
	</g>
	<g transform="translate(110.124 10.2)">
		<defs>
			<filter id="Adobe_OpacityMaskFilter_2_" filterUnits="userSpaceOnUse" x="0.088" y="0.078" width="9.355" height="16.811">
				<feColorMatrix  type="matrix" values="1 0 0 0 0  0 1 0 0 0  0 0 1 0 0  0 0 0 1 0"/>
			</filter>
		</defs>
		<mask maskUnits="userSpaceOnUse" x="0.088" y="0.078" width="9.355" height="16.811" id="lalostyles-logo-f">
			<g filter="url(#Adobe_OpacityMaskFilter_2_)">
				<polygon id="lalostyles-logo-e" fill="#FFFFFF" points="0.089,0.078 9.443,0.078 9.443,16.889 0.089,16.889 				"/>
			</g>
		</mask>
		<path mask="url(#lalostyles-logo-f)" fill="#FFFFFF" d="M4.546,13.902c-0.043,0.297-0.131,0.531-0.265,0.701
			c-0.155,0.199-0.38,0.354-0.672,0.467c-0.314,0.143-0.592,0.17-0.831,0.086c-0.24-0.086-0.432-0.184-0.576-0.298
			c-0.347-0.226-0.539-0.503-0.575-0.829c-0.036-0.324-0.02-0.644,0.05-0.955c0.091-0.34,0.255-0.681,0.492-1.021
			c0.155-0.198,0.312-0.382,0.476-0.552c0.161-0.171,0.339-0.341,0.53-0.511c0.243,0.397,0.459,0.743,0.649,1.042
			c0.188,0.297,0.341,0.559,0.456,0.785C4.501,13.244,4.589,13.605,4.546,13.902 M9.315,7.166L9.153,7.039
			c-0.108-0.085-0.25-0.127-0.425-0.127c-1.622,0.397-3.03,0.893-4.224,1.487L4.494,8.356c-0.409-0.595-0.708-1.161-0.899-1.7
			C3.404,6.118,3.29,5.622,3.251,5.169s-0.026-0.85,0.036-1.19c0.062-0.34,0.145-0.595,0.249-0.765
			c0.17-0.255,0.404-0.312,0.701-0.17C4.21,3.526,4.202,3.965,4.212,4.361c0.01,0.397,0.094,0.68,0.252,0.85
			c0.181,0.142,0.321,0.27,0.422,0.382C4.986,5.707,5.091,5.806,5.2,5.891c0.173,0.114,0.332,0.142,0.479,0.085
			c0.146-0.056,0.243-0.17,0.289-0.34C5.985,5.24,6.065,4.73,6.203,4.106c0.138-0.623,0.425-1.232,0.862-1.828
			C7.28,1.968,7.243,1.642,6.956,1.302C6.76,1.104,6.544,0.898,6.301,0.686C6.059,0.473,5.791,0.296,5.493,0.154
			C5.298,0.069,5.12,0.055,4.959,0.112C4.798,0.169,4.713,0.296,4.703,0.494c-0.106,0.397-0.219,0.95-0.335,1.657
			C4.02,1.925,3.653,1.734,3.264,1.578C2.877,1.422,2.481,1.415,2.079,1.557C1.669,1.784,1.352,2.095,1.13,2.491
			c-0.238,0.34-0.403,0.794-0.497,1.36C0.54,4.418,0.612,5.126,0.849,5.976c0.132,0.539,0.343,1.126,0.63,1.764
			c0.288,0.637,0.6,1.282,0.935,1.934c-0.802,0.652-1.384,1.332-1.75,2.04C0.3,12.421,0.108,13.094,0.09,13.732
			c-0.019,0.637,0.134,1.197,0.456,1.679s0.789,0.835,1.398,1.062c1.029,0.396,1.873,0.511,2.531,0.341
			c0.656-0.17,1.188-0.44,1.593-0.808c0.448-0.425,0.812-0.963,1.089-1.615c0.113-0.367,0.131-0.771,0.053-1.211
			c-0.08-0.438-0.217-0.877-0.412-1.317c-0.195-0.438-0.426-0.871-0.689-1.296C5.842,10.14,5.6,9.773,5.378,9.46
			c0.807-0.51,1.562-0.906,2.264-1.189c0.703-0.283,1.24-0.495,1.614-0.637C9.358,7.578,9.419,7.5,9.438,7.4
			C9.458,7.301,9.417,7.223,9.315,7.166"/>
	</g>
	<path fill="#EF9C00" d="M117.509,6.674c-0.191-0.272-0.436-0.481-0.706-0.664c-0.464-0.314-0.946-0.594-1.519-0.568
		c-0.378,0.017-0.757,0.08-1.129,0.156c-1.643,0.34-3.281,0.696-4.924,1.038c-1.258,0.262-2.518,0.508-3.775,0.769
		c-1.172,0.242-2.34,0.496-3.511,0.739c-0.446,0.093-0.893,0.085-1.267-0.221c-0.182-0.149-0.328-0.356-0.459-0.559
		c-0.405-0.626-0.938-1.058-1.652-1.25c0.004,0.033,0.002,0.044,0.006,0.052c0.398,0.862,0.689,1.764,0.898,2.695
		c0.08,0.358,0.16,0.716,0.262,1.068c0.108,0.375,0.184,0.423,0.551,0.414c1.191-0.029,2.371-0.19,3.546-0.369
		c1.115-0.17,2.224-0.386,3.335-0.583c0.42-0.074,0.711,0.256,0.589,0.686c-0.057,0.199-0.136,0.392-0.211,0.584
		c-0.425,1.075-0.854,2.147-1.432,3.146c-0.085,0.147-0.163,0.297-0.245,0.446c0.008,0.009,0.016,0.019,0.022,0.028
		c0.31-0.19,0.626-0.37,0.929-0.572c1.174-0.783,2.156-1.79,3.041-2.901c0.479-0.599,0.936-1.216,1.393-1.833
		c0.232-0.313,0.51-0.546,0.883-0.641c0.388-0.099,0.776-0.195,1.162-0.301c1.338-0.367,2.676-0.738,4.012-1.109
		c0.096-0.026,0.186-0.069,0.293-0.11C117.562,6.754,117.537,6.713,117.509,6.674"/>
	<path fill="#EF9C00" d="M105.625,6.117c0.293-0.049,0.583-0.106,0.873-0.161c0.069-0.013,0.138-0.029,0.227-0.048
		c-0.037-0.023-0.055-0.035-0.074-0.044c-0.493-0.264-0.986-0.529-1.481-0.791c-0.151-0.08-0.306-0.158-0.467-0.219
		c-0.214-0.081-0.439-0.113-0.696-0.085c0.504,0.451,0.988,0.887,1.478,1.319C105.513,6.116,105.58,6.125,105.625,6.117"/>
</g>
</svg>
