<svg xmlns="http://www.w3.org/2000/svg" xmlns:xlink="http://www.w3.org/1999/xlink" width="142" height="57" viewBox="0 0 142 57">
  <defs>
    <polygon id="lalostyles-logo-slogan-a" points=".118 .075 16.702 .075 16.702 32.708 .118 32.708"/>
    <polygon id="lalostyles-logo-slogan-c" points=".102 .038 47.864 .038 47.864 40 .102 40"/>
    <polygon id="lalostyles-logo-slogan-e" points=".103 .091 11.082 .091 11.082 19.87 .103 19.87"/>
  </defs>
  <g fill="none" fill-rule="evenodd" transform="translate(-5 1)">
    <g transform="translate(5.798 -.8)">
      <path fill="#EF9C00" d="M4.48587254,30.9783189 C3.42836852,30.8765295 2.64664496,30.3850708 2.1394059,29.5024401 C1.97572605,29.2313659 1.87632586,28.9514108 1.84224209,28.6627113 C1.80738075,28.3748316 1.7955875,28.1116819 1.80699196,27.8739455 C1.84327886,27.6027347 1.92025893,27.3649982 2.03961692,27.1614193 C2.54594881,27.3316605 3.09971286,27.5605159 3.70090908,27.8485323 C4.30158691,28.1370951 4.8672738,28.4170503 5.39809935,28.6881245 C5.82032338,28.9259976 6.22194163,29.1462454 6.6033429,29.3496876 C6.98396659,29.5532665 7.36536785,29.7569821 7.74676912,29.9604244 C6.63016929,30.7414022 5.54246938,31.0799717 4.48587254,30.9783189 M31.8880566,34.1843452 C31.8889638,34.0483982 31.8283128,33.9299398 31.7044189,33.8281504 C31.5805251,33.7263609 31.4427645,33.7088723 31.292433,33.7771873 C30.3129458,34.1501876 29.1216987,34.2941958 27.7190803,34.2097584 C26.3155547,34.1247744 24.8031685,33.8957823 23.1828287,33.522782 C21.5615817,33.1490986 19.8837012,32.6743088 18.1484097,32.0978663 C16.412859,31.5206039 14.7526036,30.910687 13.1684211,30.2657927 C13.7205004,30.0622138 14.3420432,29.3752375 15.0343455,28.2047271 C15.7258702,27.0342166 16.4036577,25.592632 17.0684856,23.8790168 C17.7326655,22.1662214 18.3530419,20.2999903 18.9289669,18.2810067 C19.5050215,16.2628429 19.9718266,14.2781535 20.3308077,12.3268018 C20.6891409,10.3762699 20.9084175,8.5783539 20.9890262,6.9323706 C21.0691166,5.28720707 20.9347255,4.00616288 20.58676,3.09005778 C20.3035925,2.31003631 19.8471552,1.75026263 19.2174478,1.41073673 C18.5879996,1.07203061 17.7979819,0.8684517 16.8490794,0.8 C16.7491608,0.8 16.6532597,0.817488658 16.5611169,0.850963042 C16.3436547,0.919278113 16.253715,1.10536836 16.2925939,1.41073673 C16.2909091,1.54668372 16.3312135,1.64847317 16.4142846,1.71610509 C16.4967077,1.78442016 16.5769277,1.84330775 16.6561109,1.89413416 C16.7343869,1.94509721 16.8109782,1.98799907 16.8860143,2.02133683 C16.9604025,2.05549436 17.0099082,2.12326291 17.0337538,2.22491574 C17.0941456,2.76802054 17.1124187,3.62441826 17.0871474,4.79492868 C17.0621354,5.96543909 16.9615688,7.31397858 16.7872621,8.8408204 C16.6121778,10.3675256 16.3440435,12.0301778 15.9833776,13.8280938 C15.6221933,15.626693 15.149038,17.4079401 14.5631342,19.1715619 C13.9774895,20.9361402 13.2527882,22.6410111 12.3891599,24.2861746 C11.5257908,25.9320213 10.4913549,27.3826235 9.28611136,28.6372981 C8.43129561,28.2644344 7.66019893,27.9247719 6.97204375,27.6195402 C6.28324058,27.3141718 5.69461518,27.042961 5.20590836,26.8052245 C4.60872962,26.5341503 4.09889864,26.2796084 3.67667461,26.0418719 C3.03789553,25.7365036 2.51056908,25.5838877 2.09417687,25.5838877 C1.67700709,25.5838877 1.35159133,25.6523394 1.11702243,25.7874666 C0.81532275,25.9234136 0.600711641,26.1436614 0.472411521,26.4490298 C0.224753411,26.9578404 0.0759771109,27.4588631 0.0249162552,27.9503217 C-0.0266629848,28.4424635 0.00197774896,28.9171166 0.109542496,29.3752375 C0.217107243,29.8332217 0.3871373,30.2745371 0.620151053,30.6983638 C0.852776017,31.1230102 1.09602786,31.5206039 1.35107295,31.8942874 C1.95810099,32.7760983 2.74928506,33.5904139 3.72449556,34.3370977 C4.66614069,35.0829616 5.86386766,35.2864039 7.31793568,34.9478344 C8.77096694,34.6081719 10.2571748,33.6245715 11.7747449,31.9960768 C15.653426,33.8957823 18.8036475,35.2444584 21.2245023,36.0419685 C23.6443203,36.8386589 25.5413477,37.322193 26.9149366,37.4922975 C28.5290558,37.6958764 29.692699,37.6107558 30.4050886,37.2377555 C31.1598562,36.7622826 31.6092954,36.2279222 31.7536654,35.6348107 C31.8969987,35.0407429 31.9419686,34.5573454 31.8880566,34.1843452"/>
      <path fill="#000" d="M54.7402674,21.7443999 C54.1494031,21.6427502 53.5971438,21.3465335 53.0818055,20.8549312 C52.5665967,20.3642839 52.1696644,19.8815503 51.8917859,19.4065939 C51.6548442,18.9668397 51.4786602,18.466505 51.3643996,17.9073636 C51.2493618,17.3483586 51.1904179,16.8147319 51.188086,16.30662 C51.1849769,15.7983716 51.2497505,15.3663946 51.383184,15.0105526 C51.5159697,14.6548469 51.7115858,14.4602799 51.9705505,14.4261693 C52.1954442,14.3928773 52.4917184,14.5531973 52.8587254,14.9089029 C53.2250845,15.264745 53.5597047,15.7649432 53.8609017,16.4082697 C54.1622282,17.0521419 54.4116064,17.8312286 54.6103316,18.7459392 C54.80815,19.6607863 54.8518074,20.6605006 54.7402674,21.7443999 M53.4929879,25.5812998 C53.1565541,26.2762015 52.8144203,26.8772308 52.4676227,27.3856156 C52.1200478,27.8937275 51.7908687,28.3003262 51.4798261,28.6051388 C51.1681358,28.9102242 50.9207008,29.0967411 50.7366144,29.1642802 C50.5605599,29.2659299 50.3277638,29.2325014 50.0379669,29.0626305 C49.7482996,28.8934418 49.4806553,28.6051388 49.2351636,28.1986765 C48.9896719,27.7920778 48.8184106,27.2759158 48.7208616,26.6485531 C48.6235718,26.0221456 48.6713746,25.2684371 48.8640112,24.3870185 C49.0649387,23.5405291 49.2889256,22.8291179 49.5368788,22.2526483 C49.7841842,21.6768608 50.0312305,21.2028596 50.2769813,20.8296893 C50.6548702,21.3043728 51.0317227,21.6681285 51.4084456,21.9223209 C51.7845209,22.1763769 52.1256184,22.3884086 52.4323859,22.5575973 C52.8050929,22.7274682 53.1538336,22.8624098 53.4775718,22.9640595 C53.6264214,23.0322808 53.7698301,23.0744415 53.9072795,23.0910875 C54.0440813,23.1085521 54.183733,23.1340669 54.3250689,23.1673589 C54.1066525,24.0822059 53.8296808,24.8873532 53.4929879,25.5812998 M29.1940986,18.9492386 C28.8219098,20.2031453 28.5264129,21.3552658 28.3070896,22.4050545 C28.2026747,22.8116532 28.0479955,23.3960365 27.844477,24.1583408 C27.6401812,24.9206451 27.4156761,25.6663035 27.170573,26.3944972 C26.9249517,27.1235095 26.6644325,27.7500535 26.3881085,28.2748114 C26.1117846,28.8005244 25.8484153,29.0293385 25.5996849,28.9609808 C25.2680444,28.8259027 24.9923681,28.5036255 24.7729154,27.9952407 C24.6023018,27.5554865 24.4739207,26.9027455 24.3880309,26.0387915 C24.3013639,25.1748375 24.3750762,23.9639102 24.6085201,22.4050545 C24.8146295,21.0162062 25.1128469,19.8726815 25.5014882,18.9746169 C25.8903886,18.0773709 26.3031256,17.4246299 26.7409948,17.0180313 C27.1779572,16.6114326 27.6052035,16.4423803 28.0209201,16.5097829 C28.4367663,16.5781406 28.7912071,16.8830896 29.0855381,17.4246299 C29.1503117,17.5603902 29.19941,17.696287 29.2311491,17.8312286 C29.3027886,18.1361776 29.2906112,18.5093479 29.1940986,18.9492386 M60.6064189,21.1852585 C60.5650933,21.1519665 60.4912515,21.0503168 60.3848933,20.8804459 C60.3194721,20.7455043 60.2225708,20.6517683 60.0943192,20.6008752 C59.9651608,20.5501186 59.8594503,20.5588509 59.7753743,20.6263899 C59.4057764,20.8979105 59.0162283,21.1178559 58.6062117,21.2869081 C58.1963247,21.457052 57.7695966,21.5919936 57.3273228,21.6936433 C57.2733017,20.4738472 57.0921949,19.3479236 56.7828364,18.3139622 C56.4728302,17.280956 56.079007,16.3827549 55.5999419,15.6204506 C55.1208767,14.8581463 54.5712084,14.257117 53.9514551,13.8164077 C53.3310541,13.3763806 52.6839663,13.1389706 52.0098033,13.10486 C50.8608501,13.0373209 49.9823912,13.409809 49.373779,14.2228699 C48.7652963,15.0360673 48.5413094,16.0698922 48.7029841,17.3229803 C48.620074,17.2554412 48.5620369,17.2213306 48.5292615,17.2213306 C47.9658612,16.9504922 47.5068758,16.9847393 47.1536009,17.3229803 C46.4815106,17.8653393 45.9633222,18.5681546 45.6002017,19.4321086 C45.2378585,20.2922422 44.9978077,21.1777541 44.8796607,22.0883715 C44.4640737,23.1674953 44.0553526,24.1296879 43.653627,24.9715382 C43.0951495,26.1404412 42.5566223,27.0385058 42.0376566,27.6650498 C41.5183023,28.2922761 41.0442895,28.6481182 40.6141931,28.7323032 C40.1843559,28.8173069 39.8345787,28.5718468 39.5664162,27.9952407 C39.4196394,27.6571362 39.3617318,27.2673199 39.3916572,26.8264742 C39.4182144,26.6574219 39.447492,26.4628549 39.4791015,26.2420909 C39.5101928,26.0221456 39.5353249,25.8101139 39.554757,25.6068145 C39.6069645,25.4035152 39.655156,25.1835699 39.6993315,24.9461599 C40.1989947,21.8294036 40.8394755,19.0255099 41.6209036,16.5352976 C42.4012953,14.0449489 43.1767642,11.8852004 43.9462739,10.0556427 C44.7157837,8.22608506 45.4314018,6.73558705 46.0937761,5.58333003 C46.7555027,4.43189167 47.2352156,3.63547672 47.5314898,3.1947674 C47.6926463,2.88981839 47.642123,2.60247046 47.3784946,2.33081341 C46.876111,1.75516245 46.3346042,1.36520975 45.7542332,1.16191041 C45.1730849,0.958611062 44.6954448,0.840315403 44.3211832,0.806204775 C44.0135089,0.772776359 43.7874492,0.874426031 43.6431337,1.11101735 C42.2411751,3.65212271 41.0858741,6.10904303 40.1772308,8.48014102 C39.2681988,10.8520577 38.5404032,13.071568 37.993585,15.137717 C37.4462485,17.2046846 37.043357,19.0683529 36.7836151,20.7280396 C36.7152142,21.1653379 36.6539385,21.5825791 36.5987514,21.9823556 C36.1419683,23.1846871 35.6921808,24.2421165 35.2495184,25.1493228 C34.6871545,26.3015798 34.1484977,27.1996444 33.633548,27.8428344 C33.1179505,28.4868431 32.6440673,28.8425487 32.2100845,28.9102242 C31.7762313,28.9784455 31.4245109,28.7242531 31.1562189,28.1479199 C30.9766666,27.8095425 30.9229046,27.3347225 30.9967464,26.7248245 C31.0696814,26.1149265 31.2168469,25.4288935 31.4375952,24.6665892 C31.6582139,23.9042849 31.9188626,23.0999563 32.2195414,22.2526483 C32.5203498,21.4061589 32.8330765,20.609744 33.1575919,19.8640856 C33.482237,19.1192459 33.7825271,18.449859 34.0601465,17.8566069 C34.3371182,17.2641735 34.5564415,16.8147319 34.7182458,16.5097829 C34.8464974,16.2048339 34.7453211,15.9174859 34.4151056,15.6458289 C33.919847,15.2393667 33.3831334,14.94315 32.8066489,14.7564966 C32.2296461,14.5706619 31.7834859,14.4436339 31.4676501,14.3754127 C31.1519438,14.3078736 30.9506276,14.3754127 30.8656447,14.5785756 C30.7118723,14.9177717 30.5580999,15.2568313 30.4048457,15.5950723 C30.2510733,15.9341319 30.1011873,16.2898376 29.9559651,16.6623256 C29.9081622,16.4590263 29.8208474,16.2303486 29.6947981,15.9762927 C29.567842,15.7221003 29.4122559,15.4855089 29.2276513,15.264745 C29.0423989,15.0447996 28.8197075,14.8415003 28.5595769,14.6548469 C28.2987986,14.4690122 27.9978607,14.3587667 27.6571519,14.3245196 C27.2494672,14.2912276 26.734647,14.3332519 26.1126914,14.4515476 C25.4909949,14.5706619 24.8588051,14.8581463 24.2166401,15.3155016 C23.5744752,15.7728569 22.9609402,16.4257343 22.37746,17.2722237 C21.7933322,18.1193952 21.3313673,19.2375416 20.9916948,20.6263899 C20.6521519,22.0159205 20.6584997,23.3881228 21.0095723,24.7428606 C21.3618108,26.0982805 21.8818129,27.2839659 22.5704852,28.3003262 C23.2592871,29.3166865 24.011308,30.0710771 24.8264183,30.5618608 C25.6413991,31.0526446 26.3216509,31.1121335 26.8674328,30.7397819 C27.2699356,30.468807 27.6005398,30.1043691 27.8600226,29.6470138 C28.1188577,29.1896585 28.3512652,28.6901424 28.5572451,28.1479199 C28.6139867,28.2495696 28.6919741,28.3685474 28.7908185,28.5036255 C28.8396577,28.5718468 28.8688058,28.6227398 28.8767082,28.6560318 C29.4022808,29.3341511 29.9669766,29.8591819 30.5714433,30.2315335 C31.1753918,30.6047038 31.7635357,30.8747235 32.3369111,31.0445944 C32.7013271,31.1795361 33.0178106,31.2137832 33.2854549,31.1462441 C33.5520628,31.0778864 33.7702201,30.9763732 33.9385018,30.8412951 C34.1394294,30.7063535 34.3166498,30.5364825 34.4687381,30.3330467 C35.1197122,29.4183361 35.6565554,28.5123579 36.0787494,27.6142932 C36.2133488,27.3279004 36.3371958,27.0498306 36.4559905,26.7753082 C36.52193,27.019131 36.597715,27.241123 36.6860661,27.4363722 C36.8410045,27.8095425 37.0368797,28.1479199 37.2748577,28.4527325 C37.6614262,28.9609808 38.0812883,29.4016902 38.5350918,29.7741782 C38.8987305,30.0456988 39.2667738,30.2656441 39.6398694,30.4346964 C40.0125764,30.6047038 40.3819152,30.7572465 40.7469789,30.8921882 C41.1113949,31.0271298 41.428008,31.0612404 41.6956523,30.9938378 C41.9622602,30.9254801 42.180547,30.8246491 42.3485696,30.6888888 C42.5496267,30.5538107 42.7267176,30.3839398 42.8789354,30.1806405 C43.5299096,29.2659299 44.06468,28.3510828 44.4829875,27.4363722 C44.708529,26.942041 44.9111407,26.4717236 45.0941907,26.0220091 C45.1746395,26.3040358 45.268302,26.5565909 45.3771216,26.7757176 C45.7682243,27.5887785 46.2360188,28.2670342 46.7795984,28.8084381 C47.3233076,29.3507971 47.8352777,29.7916429 48.3146019,30.1298838 C48.8685453,30.5030541 49.4399776,30.8080031 50.0290282,31.0445944 C50.7844173,31.2811858 51.5512065,31.2478938 52.3292664,30.9429448 C53.1071967,30.6381322 53.8374537,30.1298838 54.5197782,29.4183361 C55.2022323,28.7067884 55.7842874,27.8175926 56.2667208,26.7502028 C56.7483769,25.6829495 57.0551444,24.5061328 57.1858574,23.2182519 C58.120151,23.0833103 58.8575331,22.8544962 59.3986513,22.5320825 C59.9392513,22.2104875 60.2767215,21.9818099 60.4118391,21.8460496 C60.4703944,21.8126212 60.5038176,21.7785105 60.5130154,21.7443999 C60.521436,21.7111079 60.5385362,21.6768608 60.564057,21.6427502 C60.6331056,21.3720483 60.6473558,21.2195055 60.6064189,21.1852585"/>
      <g transform="translate(58.236)">
        <mask id="lalostyles-logo-slogan-b" fill="#fff">
          <use xlink:href="#lalostyles-logo-slogan-a"/>
        </mask>
        <path fill="#EF9C00" d="M16.4039825,26.6320267 C15.9949348,28.2212267 15.3753347,29.47136 14.545436,30.3814933 C13.7149028,31.29176 12.7631656,31.92896 11.6908589,32.2936267 C10.6175369,32.6574933 9.47161938,32.7816267 8.25323327,32.6660267 C7.03383184,32.5496267 5.84400166,32.2438933 4.6827274,31.7472267 C3.97631729,31.38256 3.32854201,30.9192267 2.73914773,30.3568267 C2.23834027,29.8934933 1.75314339,29.28896 1.2838109,28.5440267 C0.814478422,27.7990933 0.48716407,26.89736 0.303263917,25.83736 C0.279784602,25.73816 0.234095123,25.44016 0.166068565,24.9434933 C0.0980420072,24.4468267 0.101849464,23.87576 0.178506256,23.2300267 C0.254274642,22.58456 0.427006256,21.9310933 0.695558861,21.2684267 C0.963349974,20.60656 1.43522076,20.0438933 2.10926749,19.5798933 C2.82519625,19.01736 3.60724783,18.7356267 4.45656448,18.7356267 C5.30499272,18.7356267 6.04300472,18.81856 6.66945825,18.9840267 C7.06746438,19.1500267 7.4279036,19.36496 7.75191816,19.6294933 C8.07529814,19.89496 8.33940871,20.1844267 8.54424987,20.4986933 C8.74858338,20.8136267 8.90456218,21.1280267 9.0114248,21.4422933 C9.11790666,21.7572267 9.16613445,22.0304267 9.15560049,22.26176 C9.10115386,22.72576 8.94860176,23.0810933 8.69718271,23.32936 C8.44512909,23.57776 8.19244088,23.7848267 7.93772204,23.9502933 C7.78961198,24.01696 7.63515615,24.01696 7.47245084,23.9502933 C7.31012628,23.8842933 7.18460712,23.7352267 7.09792403,23.5032267 C7.0026107,23.2386933 6.85640437,22.9654933 6.65993961,22.6838933 C6.46296719,22.4028267 6.17715411,22.2290933 5.8026273,22.1624267 C5.63116484,22.12976 5.41782035,22.0878933 5.16132469,22.03816 C4.90482903,21.98856 4.6451605,21.9970933 4.38371514,22.06296 C4.12176213,22.12976 3.87148532,22.2788267 3.63212321,22.5100267 C3.39301494,22.7420267 3.18500089,23.1060267 3.00820799,23.60256 C2.75526596,24.3312267 2.60728281,24.98536 2.5646393,25.5642933 C2.52148813,26.1438933 2.53595646,26.65696 2.60918654,27.10376 C2.68165513,27.5508267 2.81580452,27.9480267 3.0123962,28.29576 C3.20835329,28.64336 3.4152251,28.9336267 3.63339236,29.1648267 C4.16554788,29.7608267 4.87068884,30.19136 5.74944982,30.45616 C6.96187091,30.7540267 8.00930222,30.6958933 8.89110917,30.2822933 C9.77291611,29.86856 10.5184161,29.36336 11.1292591,28.7676267 C11.8139667,28.0722933 12.3946038,27.21176 12.8710435,26.18496 C13.4647529,24.8278933 13.6049943,23.5528267 13.2920213,22.3610933 C12.9782869,21.1690933 12.5568015,20.1432267 12.0279457,19.2818933 C11.6414889,18.7526933 11.2023622,18.2724267 10.7091697,17.8416267 C10.216231,17.41176 9.81137142,17.0804267 9.49586019,16.8484267 L9.25319829,16.64976 C9.22020033,16.64976 9.20040156,16.6334933 9.19253281,16.60016 C7.94470237,15.7396267 7.07609461,14.7874933 6.58556729,13.74456 C6.09491305,12.7014933 5.81341509,11.7502933 5.74120033,10.88896 C5.62951494,9.86296 5.71822868,8.85269333 6.00670697,7.85949333 C6.24670365,6.80029333 6.59229379,5.74096 7.04487347,4.68109333 C7.49681856,3.62176 8.00841382,2.71162667 8.58016688,1.94962667 C9.15128537,1.18829333 9.78154635,0.642026667 10.4708229,0.310693333 C11.1595918,-0.01984 11.8573717,-0.00357333333 12.563528,0.360293333 C13.0906069,0.658293333 13.5294797,1.03082667 13.8795119,1.47776 C14.2297979,1.92469333 14.5257642,2.42136 14.7693145,2.96762667 C15.0119764,3.51389333 15.1956227,4.08509333 15.3198727,4.68109333 C15.443615,5.27696 15.5235716,5.85669333 15.5580926,6.41922667 C15.6822157,7.77722667 15.6459179,9.21749333 15.4500877,10.7398933 C15.2594611,11.7330933 14.9420461,12.4284267 14.4972082,12.82576 C14.0521166,13.2230933 13.5947141,13.4636267 13.1243663,13.5458933 C12.6543993,13.62896 12.2259335,13.61256 11.8396035,13.49616 C11.452766,13.38056 11.2315527,13.2726933 11.1760908,13.17336 C10.9984095,12.9746933 11.0163045,12.8428267 11.2292683,12.77616 C11.2613778,12.77616 11.3009754,12.7682933 11.3459033,12.7512267 C11.3909582,12.73496 11.4295405,12.7264267 11.4624115,12.7264267 L11.5602632,12.7264267 C11.6704256,12.36256 11.805971,11.8658933 11.9681687,11.23656 C12.1299856,10.6080267 12.2862182,9.92042667 12.4373742,9.17549333 C12.5877688,8.43056 12.7021194,7.66936 12.7804261,6.89096 C12.8580982,6.11349333 12.8880502,5.40976 12.8705359,4.78029333 C12.8526408,4.15176 12.7690037,3.62176 12.6186092,3.19109333 C12.4682146,2.76122667 12.2093076,2.52922667 11.8426495,2.49589333 C11.5412259,2.46322667 11.2598548,2.62002667 10.9990441,2.96762667 C10.7381064,3.31536 10.4879565,3.77936 10.2494828,4.35829333 C10.0103745,4.93789333 9.78129252,5.59202667 9.56109461,6.31989333 C9.34102362,7.04856 9.13707086,7.77722667 8.94987091,8.50509333 C8.78526187,9.33309333 8.73157674,10.1438933 8.7888155,10.93856 C8.81407163,11.6012267 8.9263916,12.32136 9.12640998,13.0988267 C9.32592071,13.8772267 9.70806244,14.5638933 10.273089,15.1598933 C10.353934,15.22656 10.4343982,15.29256 10.5157509,15.35856 C10.5965959,15.4252267 10.7138656,15.5074933 10.8680675,15.60696 C10.8759363,15.6402933 10.8874856,15.65656 10.9042384,15.65656 C10.9203566,15.65656 10.9366018,15.6898933 10.9520854,15.7558933 C11.7704348,16.3192267 12.576981,16.97256 13.3729932,17.7174933 C14.168244,18.46256 14.8453367,19.2904267 15.4024945,20.2006933 C15.9600331,21.11176 16.3485206,22.10496 16.5699876,23.1804267 C16.7905663,24.2568267 16.7351043,25.4074933 16.4039825,26.6320267" mask="url(#lalostyles-logo-slogan-b)"/>
      </g>
      <g transform="translate(74.989 .8)">
        <mask id="lalostyles-logo-slogan-d" fill="#fff">
          <use xlink:href="#lalostyles-logo-slogan-c"/>
        </mask>
        <path fill="#000" d="M37.0656475,21.7477143 C37.0999466,21.6130204 37.1339897,21.4776463 37.1688008,21.3422721 C37.6765043,19.282 38.2547258,17.7364218 38.9033372,16.7052653 C39.5523326,15.6751973 40.0769297,15.244449 40.4787923,15.4130204 C40.6589906,15.4811837 40.8073215,15.624585 40.9246807,15.8437687 C41.041528,16.0640408 41.0728836,16.4100272 41.0186193,16.8826803 C40.9670427,17.7949252 40.7906838,18.5550612 40.488007,19.1632245 C40.1852022,19.7713878 39.8255736,20.2780544 39.4101449,20.6834966 C38.9936923,21.0888027 38.5566347,21.4015918 38.0976922,21.6209116 C37.6383657,21.8411837 37.2275444,22.0184626 36.8639483,22.1530204 C36.963646,22.0184626 37.0309644,21.8830884 37.0656475,21.7477143 M47.704897,20.1513878 C47.6773809,20.0332925 47.6226048,19.9407755 47.5412084,19.8726122 C47.4511092,19.7713878 47.340661,19.7206395 47.2094797,19.7206395 C47.0775306,19.7206395 46.9947264,19.7888027 46.9604273,19.9233605 C46.058796,21.8489388 45.1960711,23.4454014 44.3725086,24.7122041 C43.5479223,25.9791429 42.849526,26.8659456 42.2762958,27.3727483 L42.2268949,27.3727483 C42.17647,27.4409116 42.0500241,27.5674422 41.8462772,27.7528844 C41.6429142,27.9388707 41.3937338,28.1415918 41.0992478,28.3609116 C40.8048898,28.5810476 40.4854474,28.7663537 40.1427123,28.9183265 C39.7993373,29.0702993 39.4798949,29.1463537 39.1836172,29.1463537 C39.051796,29.1463537 38.9491547,29.1297551 38.8756931,29.0957415 C38.4176465,28.8256735 38.0138641,28.436966 37.6660098,27.9301633 C37.3664046,27.4915238 37.1005865,26.9165578 36.8698354,26.2071701 C36.6381885,25.4976463 36.5779091,24.6029524 36.6887413,23.5213197 C38.5300145,22.9471701 39.8870048,22.2379184 40.7603522,21.3930204 C41.6330596,20.5488027 42.2590183,19.7380544 42.6379722,18.9605034 C43.0505853,18.0483946 43.2213129,17.0854014 43.150411,16.071932 C43.0979385,15.5651293 42.9795554,15.1264898 42.7942379,14.754381 C42.6493626,14.416966 42.4452317,14.1041769 42.1809494,13.8168299 C41.9165391,13.5301633 41.545904,13.3527483 41.069428,13.2847211 C40.6991769,13.2513878 40.1988963,13.2934286 39.5683303,13.4113878 C38.9371244,13.5301633 38.2801941,13.8168299 37.5962597,14.2728844 C36.9125813,14.7289388 36.2248075,15.3798231 35.5325543,16.2239048 C34.8404291,17.0688027 34.2437782,18.1837687 33.7438816,19.5685306 C33.6471274,19.9481224 33.572514,20.332068 33.5177378,20.7196871 C33.0344788,22.0260816 32.5606904,23.1724762 32.0962447,24.1547891 C31.5443875,25.3203673 31.0123674,26.2158776 30.4998006,26.8406395 C29.9865938,27.4660816 29.5183087,27.8209116 29.0935373,27.9048571 C28.6688939,27.989619 28.3233432,27.7448571 28.058293,27.1700272 C27.9134177,26.8327483 27.8560819,26.4440408 27.8856457,26.004449 C27.9120099,25.8358776 27.9408058,25.6418639 27.9721613,25.4217279 C28.0028769,25.2024082 28.0277054,24.9909796 28.0467747,24.7882585 C28.0984793,24.5855374 28.1460885,24.3662177 28.1896023,24.129483 C28.6833558,21.0215918 29.3159695,18.2256735 30.0879554,15.7425442 C30.8590453,13.2592789 31.625016,11.1056735 32.3853555,9.28131973 C33.145439,7.45696599 33.8525381,5.97070748 34.5069087,4.82172789 C35.1606394,3.67356463 35.6345557,2.87941497 35.92725,2.43995918 C36.0863313,2.13587755 36.0365464,1.84934694 35.7759755,1.57846259 C35.2797904,1.00444898 34.7448267,0.615605442 34.1714685,0.412884354 C33.5972145,0.210163265 33.1254738,0.0922040816 32.7556066,0.0581904762 C32.45165,0.0248571429 32.2283219,0.126353741 32.0858782,0.362136054 C30.7008599,2.89601361 29.5593908,5.34594558 28.6618549,7.71029932 C27.7636791,10.0754694 27.0446777,12.2886667 26.5045948,14.3489388 C25.963872,16.4100272 25.5658488,18.2683946 25.3092454,19.9233605 C25.241927,20.3575102 25.1816476,20.7717959 25.1272554,21.1688027 C24.7202734,22.2905714 24.3112438,23.2862177 23.9006784,24.1547891 C23.3488212,25.3203673 22.8168011,26.2158776 22.3042343,26.8406395 C21.7910275,27.4660816 21.3227424,27.8209116 20.897971,27.9048571 C20.4733276,27.989619 20.1277769,27.7448571 19.8627267,27.1700272 C19.6696023,26.764585 19.6308238,26.1738367 19.7460074,25.3962857 C19.7547101,25.2949252 19.7643088,25.1935646 19.7739074,25.0923401 C19.7827381,24.9909796 19.7963042,24.907034 19.8135817,24.8390068 C19.9614006,24.0621361 20.197399,23.2006395 20.5202969,22.254517 C20.8431948,21.3089388 21.1817065,20.3968299 21.5371118,19.5177823 C21.8918771,18.6396871 22.2321806,17.8376463 22.5566143,17.1107075 C22.8813039,16.3847211 23.1353477,15.8526122 23.3205372,15.514517 C23.3879836,15.3798231 23.3952786,15.2357415 23.3435739,15.0837687 C23.2912294,14.9316599 23.2045858,14.8049932 23.0822352,14.7036327 C22.5596858,14.2981905 22.0114121,13.9941088 21.4380539,13.7913878 C20.8637999,13.5888027 20.421239,13.4541088 20.1092196,13.3860816 C19.8453212,13.3860816 19.6676826,13.4708435 19.5756637,13.639415 C19.096884,14.5515238 18.676464,15.5398231 18.3156835,16.6040408 C17.9540072,17.6682585 17.6574735,18.6904354 17.4249307,19.6700272 C17.1950755,20.3792789 16.9117239,21.249619 16.5760278,22.2796871 C16.2398198,23.3107075 15.8734081,24.2814558 15.4770487,25.1935646 C15.0800493,26.1058095 14.6853537,26.8493469 14.2929617,27.4234966 C13.8998018,27.9981905 13.5641057,28.1836327 13.2870252,27.9807755 C13.0790549,27.3727483 12.9867801,26.764585 13.0103287,26.1564218 C13.0331095,25.5483946 13.0807187,24.974381 13.1522605,24.4334286 C13.3497363,22.8799592 13.7564622,21.3764218 14.3732062,19.9233605 C14.9894383,18.4711156 15.7115112,17.119415 16.539809,15.8692109 C16.7401004,15.5991429 16.6933871,15.3292109 16.4004369,15.0583265 C15.4950941,14.2815918 14.5059233,13.7075782 13.4316446,13.3353333 C13.1773449,13.2339728 12.9878039,13.2681224 12.8627658,13.4366939 C11.8430073,14.8556054 11.0755009,16.4693469 10.5580707,18.2762857 C10.3117059,19.1375102 10.1320195,20.0124762 10.0151722,20.9003673 C9.5765788,22.1315238 9.13580971,23.2181905 8.69299291,24.1547891 C8.14126365,25.3203673 7.6091156,26.2158776 7.09654876,26.8406395 C6.58334201,27.4660816 6.11505684,27.8209116 5.69028547,27.9048571 C5.26551409,27.989619 4.92009139,27.7448571 4.65504122,27.1700272 C4.49340029,26.8999592 4.43529658,26.5112517 4.48239386,26.004449 C4.50863011,25.8358776 4.53755399,25.6418639 4.56890951,25.4217279 C4.59949715,25.2024082 4.62445358,24.9909796 4.64352286,24.7882585 C4.6950995,24.5855374 4.74270871,24.3662177 4.78635048,24.129483 C5.27408887,20.8528844 5.9219324,17.946898 6.73141687,15.4130204 C7.54013345,12.8792789 8.35345737,10.6836327 9.17202854,8.82526531 C12.3504549,8.62240816 14.8201184,8.58921088 16.5796113,8.72376871 C18.3392322,8.85927891 19.2425272,9.38268027 19.2906484,10.2947891 C19.314325,10.3961497 19.3502879,10.4807755 19.3991769,10.5482585 C19.496187,10.6836327 19.6268564,10.7508435 19.7919528,10.7508435 C19.8574795,10.7508435 19.9821337,10.649483 20.1655315,10.4467619 C20.3481614,10.2441769 20.5245203,9.97410884 20.6925603,9.63601361 C20.8609843,9.29873469 20.9947252,8.91859864 21.0936551,8.4957415 C21.1929689,8.07370068 21.2075588,7.64295238 21.1384487,7.2034966 C21.0291523,6.59546939 20.5417978,6.19873469 19.6760014,6.01261224 C18.809693,5.82730612 17.7960777,5.75138776 16.6356673,5.78458503 C15.474873,5.81859864 14.3029442,5.9112517 13.120777,6.06336054 C11.9380978,6.21533333 10.9923127,6.32540136 10.2843178,6.3927483 C10.8053314,5.37914286 11.2523716,4.54295238 11.6259503,3.88431293 C11.9986331,3.22540136 12.2816007,2.74404082 12.4745972,2.43995918 C12.699973,2.13587755 12.6658019,1.84934694 12.3727237,1.57846259 C11.8765385,1.00444898 11.333768,0.615605442 10.7435163,0.412884354 C10.1531365,0.210163265 9.67282107,0.0922040816 9.30295385,0.0581904762 C9.02356973,-0.00915646259 8.81713519,0.0922040816 8.68262639,0.362136054 C8.07804068,1.44390476 7.53591005,2.50798639 7.05597855,3.55478912 C6.57553512,4.60240816 6.12401556,5.63261224 5.70205978,6.64608163 C4.40099748,6.71410884 3.31468852,6.71410884 2.44326089,6.64608163 C1.57119335,6.57873469 1.10457195,6.41016327 1.04147696,6.13927891 C1.0257352,6.07206803 0.993227844,6.00472109 0.94497873,5.93669388 C0.896089707,5.86934694 0.781546055,5.802 0.601347774,5.73397279 C0.469526588,5.73397279 0.353447155,5.802 0.253621402,5.93669388 C0.226617257,6.10608163 0.189502554,6.33410884 0.141381422,6.62077551 C0.0924923992,6.9082585 0.0892928559,7.21234014 0.131526828,7.53288435 C0.173248873,7.85438095 0.282929219,8.1497551 0.461463739,8.41982313 C0.639614312,8.69057143 0.94203515,8.89329252 1.36847029,9.02785034 C1.58181584,9.09601361 1.98470234,9.12921088 2.57712978,9.12921088 C3.16955723,9.12921088 3.90634807,9.11261224 4.78724635,9.07859864 C3.59983182,12.3218639 2.76679871,15.244449 2.2862273,17.8455374 C1.80578387,20.4474422 1.51654515,22.5252653 1.41697537,24.0787347 C1.37858084,24.619551 1.40046572,25.1009116 1.4818621,25.5230884 C1.56402638,25.9458095 1.6731948,26.3085306 1.80949534,26.6126122 C1.9625615,26.9847211 2.15606988,27.3221361 2.39117232,27.6260816 C2.58621649,27.8968299 2.79124323,28.1415918 3.00676447,28.3609116 C3.2230536,28.5810476 3.43255969,28.7749252 3.63617863,28.9437687 C3.99555134,29.214517 4.35901947,29.4338367 4.72773484,29.6024082 C5.09581031,29.772068 5.46068623,29.9240408 5.82146674,30.0585986 C6.18147936,30.1931565 6.49413874,30.2271701 6.75842102,30.1599592 C7.02193541,30.0917959 7.23771261,29.9912517 7.40357694,29.8558776 C7.60220459,29.7211837 7.7772836,29.5517959 7.92753416,29.3490748 C8.57077035,28.436966 9.09895097,27.5247211 9.51220399,26.6126122 C9.68024401,26.2411837 9.83318218,25.8856735 9.97716163,25.539415 C10.044864,26.009619 10.1466094,26.4854014 10.2859816,26.9673061 C10.3018513,27.0353333 10.3344866,27.1026803 10.3826078,27.1700272 C10.6220616,27.9135646 10.9572457,28.5049932 11.3880323,28.9437687 C11.65641,29.2477143 11.9850671,29.4932925 12.3738756,29.6784626 C12.7628121,29.864585 13.2248261,29.9066259 13.7611976,29.8052653 C14.1730428,29.7379184 14.5714499,29.4678503 14.9548832,28.994381 C15.3385724,28.5215918 15.7149667,27.9475782 16.08445,27.2713878 C15.6764442,29.197102 15.2148141,30.851932 14.6980239,32.2377823 C14.1811056,33.6225442 13.6545888,34.7541088 13.1187293,35.6330204 C12.5824858,36.5111156 12.0732465,37.1866259 11.5908833,37.6599592 C11.1085202,38.1327483 10.730974,38.4202313 10.4585009,38.5214558 C10.3429334,38.5888027 10.2944283,38.6988707 10.3129857,38.8509796 C10.332055,39.0029524 10.3984775,39.1122041 10.5130212,39.1803673 C10.717408,39.3489388 10.9380485,39.4843129 11.1753266,39.5856735 C11.4133726,39.687034 11.6218549,39.7711156 11.8021812,39.8391429 C12.0153987,39.9064898 12.2245209,39.957102 12.4300595,39.9911156 C13.2689798,40.0584626 14.0354624,39.7456735 14.7298913,39.0535646 C15.4240642,38.3607755 16.0387605,37.4651293 16.5732122,36.3678503 C17.107536,35.269619 17.576589,34.0698912 17.9820351,32.7697551 C18.3865854,31.4688027 18.7307283,30.2271701 19.0156156,29.0451293 C19.3417131,29.3158776 19.6767693,29.5184626 20.0212961,29.6531565 C20.365311,29.7886667 20.701519,29.9240408 21.0291523,30.0585986 C21.3891649,30.1931565 21.7018243,30.2271701 21.9662345,30.1599592 C22.2296209,30.0917959 22.4453981,29.9912517 22.6113904,29.8558776 C22.8098901,29.7211837 22.9849691,29.5517959 23.1352197,29.3490748 C23.7784559,28.436966 24.3066365,27.5247211 24.7198895,26.6126122 C24.8158758,26.4003673 24.9071268,26.1931565 24.9953062,25.9892109 C25.0582732,26.2179184 25.129815,26.4274422 25.2128751,26.6126122 C25.3658133,26.9847211 25.5594497,27.3221361 25.7945521,27.6260816 C26.1763216,28.1328844 26.5911104,28.5723401 27.0394305,28.9437687 C27.3988032,29.214517 27.7623993,29.4338367 28.1309867,29.6024082 C28.4990621,29.772068 28.8639381,29.9240408 29.2247186,30.0585986 C29.5847312,30.1931565 29.8973906,30.2271701 30.1618008,30.1599592 C30.4251872,30.0917959 30.6409644,29.9912517 30.8069567,29.8558776 C31.0054564,29.7211837 31.1805354,29.5517959 31.330786,29.3490748 C31.9740222,28.436966 32.5022028,27.5247211 32.9154558,26.6126122 C33.2139092,25.9526122 33.4735841,25.3337007 33.6961444,24.7534286 C33.7372265,24.919415 33.7812522,25.0839048 33.8311651,25.2443129 C34.1493277,26.3259456 34.5711555,27.2888027 35.0962646,28.1328844 C35.5325543,28.8764218 36.116151,29.5439048 36.8461588,30.1346531 C37.5762946,30.7252653 38.4847089,31.0214558 39.5708899,31.0214558 C40.228972,31.0214558 40.8537788,30.9113878 41.4445425,30.692068 C42.0351782,30.471932 42.6338768,30.0411837 43.2421739,29.3998231 L43.3549259,29.2477143 L43.3924245,29.197102 C44.1343346,28.2849932 44.7718116,27.3814558 45.3039597,26.4858095 C45.8361077,25.5911156 46.2767488,24.7628163 46.6266509,24.0026803 C46.9759131,23.2425442 47.2440348,22.5924762 47.4314,22.0516599 C47.6181254,21.5117959 47.7374044,21.139551 47.788981,20.9368299 C47.8057466,20.869483 47.8250719,20.8100272 47.8464448,20.759415 C47.8669219,20.7088027 47.8703774,20.6502993 47.8545077,20.5821361 C47.78207,20.4134286 47.7325411,20.2701633 47.704897,20.1513878" mask="url(#lalostyles-logo-slogan-d)"/>
      </g>
      <g transform="translate(129.236 12)">
        <mask id="lalostyles-logo-slogan-f" fill="#fff">
          <use xlink:href="#lalostyles-logo-slogan-e"/>
        </mask>
        <path fill="#000" d="M5.33477247,16.3551275 C5.28345037,16.7050604 5.18027434,16.9799597 5.02404775,17.180094 C4.84176124,17.413651 4.57890169,17.5971409 4.23560206,17.7300268 C3.86624251,17.8971409 3.54089232,17.9298926 3.25995037,17.8298926 C2.97887547,17.7300268 2.75390918,17.613651 2.58425375,17.4799597 C2.17739981,17.213651 1.95190169,16.8886846 1.90895599,16.5050604 C1.86654213,16.1223758 1.88608708,15.7473423 1.96666011,15.380094 C2.07382491,14.9802282 2.26661517,14.5802282 2.54449906,14.1802282 C2.7270515,13.9474765 2.91252903,13.7302953 3.10319195,13.5302953 C3.29305712,13.3302953 3.50047285,13.1304295 3.72543914,12.9302953 C4.01076873,13.3975436 4.26472004,13.8053289 4.48755899,14.1552617 C4.70960019,14.5053289 4.88789794,14.8139195 5.02205337,15.0802282 C5.28105712,15.5802282 5.38516386,16.0051946 5.33477247,16.3551275 M10.9322051,8.43069799 L10.7414092,8.2807651 C10.6143006,8.1807651 10.448235,8.13083221 10.2429466,8.13083221 C8.33937547,8.59794631 6.68696348,9.18063087 5.28597659,9.88063087 L5.27374438,9.83069799 C4.7944279,9.13069799 4.44261891,8.46425503 4.21898221,7.83069799 C3.99494663,7.19794631 3.86065824,6.61445638 3.81558521,6.08089933 C3.76984738,5.54814765 3.78367509,5.08089933 3.85706835,4.68103356 C3.92979682,4.28103356 4.02685674,3.98103356 4.14944476,3.78103356 C4.34914888,3.48103356 4.6237088,3.41472483 4.97232678,3.58103356 C4.93988483,4.14828188 4.9303118,4.66452349 4.94201217,5.13096644 C4.95397846,5.59808054 5.05250094,5.93083221 5.2385103,6.13083221 C5.45018071,6.29808054 5.61518258,6.44801342 5.73364888,6.58089933 C5.85131742,6.71445638 5.97457022,6.83083221 6.10154588,6.93083221 C6.30510581,7.06438926 6.49284363,7.09794631 6.66475936,7.03083221 C6.83587734,6.96438926 6.94915824,6.83083221 7.00260768,6.63083221 C7.02454588,6.16452349 7.11708521,5.56452349 7.2794279,4.83096644 C7.44123876,4.09821477 7.77828933,3.38103356 8.29111142,2.68116779 C8.54280243,2.31472483 8.4999897,1.9312349 8.16293914,1.5312349 C7.93451592,1.29848322 7.67870318,1.05620134 7.39536798,0.806268456 C7.11123502,0.55633557 6.79572378,0.348550336 6.44697285,0.181302013 C6.217353,0.0813020134 6.00807584,0.0649261745 5.81927434,0.131369128 C5.63060581,0.198483221 5.53022191,0.348550336 5.51918633,0.581302013 C5.3940721,1.04841611 5.26244288,1.69848322 5.12536236,2.53110067 C4.71771067,2.26479195 4.28665824,2.0398255 3.83127434,1.85620134 C3.37615637,1.67338255 2.91226311,1.66479195 2.4401264,1.8312349 C1.95815075,2.09834899 1.58639794,2.46479195 1.32486798,2.93110067 C1.04618633,3.33110067 0.852465356,3.86465772 0.742508427,4.53096644 C0.632817416,5.19808054 0.717512172,6.03083221 0.996459738,7.03083221 C1.15175562,7.66438926 1.39839419,8.35566443 1.73610955,9.10559732 C2.07395787,9.8555302 2.43946161,10.6140537 2.83262079,11.3803624 C1.89207022,12.1476107 1.20826311,12.9474765 0.779205056,13.7802282 C0.351343633,14.6137852 0.126111423,15.4051946 0.104838015,16.1551275 C0.0835646067,16.9050604 0.262660112,17.5635839 0.640263109,18.1300268 C1.01892978,18.6963356 1.56578933,19.1127114 2.28057584,19.3798255 C3.48983614,19.8462685 4.4794485,19.9798255 5.25127434,19.7798255 C6.02296723,19.5798255 6.6456133,19.2626443 7.12147285,18.8298926 C7.6479897,18.3298926 8.07478745,17.6971409 8.39973876,16.9300268 C8.53243165,16.4972752 8.5529073,16.0223758 8.4606339,15.5051946 C8.36769569,14.9888188 8.20734738,14.472443 7.97799345,13.9552617 C7.74863951,13.4388859 7.47820131,12.9302953 7.16800843,12.4304295 C6.85701779,11.9304295 6.57142228,11.4976779 6.31069007,11.1304295 C7.25762266,10.5304295 8.14352715,10.064255 8.96813764,9.73056376 C9.79221629,9.39781208 10.4233717,9.14787919 10.8617369,8.9807651 C10.9817987,8.91418792 11.0539953,8.82291275 11.0765983,8.70573154 C11.0992013,8.5893557 11.0512032,8.49794631 10.9322051,8.43069799" mask="url(#lalostyles-logo-slogan-f)"/>
      </g>
      <path fill="#EF9C00" d="M137.903649,7.85132053 C137.678474,7.53138411 137.391748,7.28467967 137.075016,7.06995544 C136.530159,6.70030189 135.963759,6.37122827 135.293107,6.40199914 C134.849425,6.4222891 134.404589,6.49552109 133.968088,6.58608688 C132.040636,6.98543633 130.117031,7.404807 128.19022,7.8071126 C126.714273,8.11549315 125.234606,8.40506181 123.758273,8.71115806 C122.384142,8.99588938 121.012575,9.29446088 119.638828,9.5805359 C119.114616,9.68964484 118.591559,9.68104512 118.152493,9.3203944 C117.9395,9.1453095 117.767926,8.90156122 117.614048,8.66318775 C117.138436,7.92656807 116.513819,7.41810969 115.674157,7.19156084 C115.678902,7.23093143 115.67762,7.24356227 115.681979,7.25337132 C116.149128,8.26800379 116.490353,9.32805353 116.735916,10.4238458 C116.830167,10.8446946 116.924802,11.2664839 117.043544,11.6799423 C117.170237,12.1204092 117.258974,12.1777854 117.689704,12.1674389 C119.087046,12.1331744 120.471436,11.9439806 121.850954,11.7330187 C123.159559,11.5326721 124.460599,11.2787117 125.764716,11.0470567 C126.257254,10.9594471 126.598223,11.3487188 126.455757,11.8532804 C126.389333,12.087354 126.297135,12.3143059 126.208013,12.5405861 C125.708935,13.8048791 125.204856,15.0667535 124.527921,16.2424963 C124.428413,16.4151626 124.335958,16.5923974 124.240425,16.7674823 C124.249401,16.7783663 124.258121,16.7892504 124.266969,16.8 C124.630891,16.576676 125.001865,16.3650423 125.357196,16.1276095 C126.734533,15.2067677 127.886567,14.0221564 128.926271,12.7144616 C129.4869,12.0095534 130.02355,11.2834146 130.560328,10.5580821 C130.833077,10.1899066 131.157375,9.91619369 131.595543,9.8041286 C132.050638,9.68776365 132.507015,9.57448923 132.960186,9.4497933 C134.530384,9.01779179 136.099685,8.58175916 137.668344,8.14492031 C137.779136,8.11401507 137.884928,8.06349172 138.011236,8.01498393 C137.965585,7.94537996 137.935964,7.89727528 137.903649,7.85132053"/>
      <path fill="#EF9C00" d="M123.957083,7.19703985 C124.299355,7.13877226 124.64019,7.07260237 124.981231,7.00814622 C125.062055,6.99291287 125.142468,6.97425201 125.247191,6.95206843 C125.202574,6.92493401 125.18206,6.91112878 125.160315,6.89951335 C124.580803,6.58884807 124.002521,6.27665946 123.420957,5.9695169 C123.243309,5.87554613 123.061865,5.78405078 122.873036,5.71207317 C122.622256,5.61657906 122.357731,5.57897171 122.05618,5.6114378 C122.64759,6.14232029 123.21623,6.65492276 123.789897,7.16286001 C123.826001,7.19465964 123.904363,7.20598945 123.957083,7.19703985"/>
    </g>
    <text fill="#000" font-family="Montserrat-Light, Montserrat" font-size="9" font-weight="300" letter-spacing="3.45">
      <tspan x="9.498" y="55">TRAVEL SERVICES</tspan>
    </text>
  </g>
</svg>
