<?xml version="1.0" encoding="utf-8"?>
<!-- Generator: Adobe Illustrator 16.0.0, SVG Export Plug-In . SVG Version: 6.00 Build 0)  -->
<!DOCTYPE svg PUBLIC "-//W3C//DTD SVG 1.1//EN" "http://www.w3.org/Graphics/SVG/1.1/DTD/svg11.dtd">
<svg version="1.1" id="Layer_1" xmlns="http://www.w3.org/2000/svg" xmlns:xlink="http://www.w3.org/1999/xlink" x="0px" y="0px"
	 width="18.055px" height="18.055px" viewBox="5.945 5.945 18.055 18.055" enable-background="new 5.945 5.945 18.055 18.055"
	 xml:space="preserve">
<path d="M19.073,10.873c-1.096-1.096-2.552-1.699-4.101-1.699s-3.006,0.604-4.1,1.699c-1.095,1.095-1.699,2.551-1.699,4.1
	s0.603,3.006,1.699,4.101c1.095,1.095,2.551,1.698,4.1,1.698s3.006-0.604,4.101-1.698c1.095-1.096,1.698-2.552,1.698-4.101
	S20.169,11.968,19.073,10.873z M14.973,18.546c-1.971,0-3.574-1.603-3.574-3.573s1.603-3.574,3.574-3.574
	c1.972,0,3.573,1.603,3.573,3.574S16.943,18.546,14.973,18.546z"/>
</svg>
