<?xml version="1.0" encoding="utf-8"?>
<!-- Generator: Adobe Illustrator 16.0.0, SVG Export Plug-In . SVG Version: 6.00 Build 0)  -->
<!DOCTYPE svg PUBLIC "-//W3C//DTD SVG 1.1//EN" "http://www.w3.org/Graphics/SVG/1.1/DTD/svg11.dtd">
<svg version="1.1" id="Layer_1" xmlns="http://www.w3.org/2000/svg" xmlns:xlink="http://www.w3.org/1999/xlink" x="0px" y="0px"
	 width="24px" height="24px" viewBox="0 -4 24 24" enable-background="new 0 -4 24 24" xml:space="preserve">
<path fill="#25D366" d="M11.812,20c-3.156,0-6.122-1.229-8.353-3.46C1.227,14.31,0,11.343,0,8.188c0-3.156,1.229-6.121,3.459-8.353
	c2.23-2.232,5.197-3.461,8.353-3.461c3.155,0,6.121,1.229,8.353,3.461c2.233,2.231,3.46,5.197,3.46,8.353
	c0,3.156-1.229,6.121-3.46,8.352C17.935,18.771,14.968,20,11.812,20z M11.812-2.382c-5.828,0-10.569,4.741-10.569,10.569
	c0,5.829,4.741,10.568,10.569,10.568c5.829,0,10.568-4.739,10.568-10.568C22.381,2.359,17.642-2.382,11.812-2.382z"/>
<path fill="#25D366" d="M9.326,13.161c-0.159,0-0.318-0.061-0.44-0.182l-3.73-3.73c-0.242-0.242-0.242-0.637,0-0.879
	c0.242-0.242,0.637-0.242,0.879,0l3.29,3.291l8.263-8.264c0.243-0.242,0.639-0.242,0.88,0c0.243,0.243,0.243,0.637,0,0.879
	l-8.704,8.704c-0.122,0.122-0.281,0.182-0.44,0.182H9.326z"/>
</svg>
